<?xml version="1.0" encoding="UTF-8" standalone="no"?>
<!-- Created with Inkscape (http://www.inkscape.org/) -->

<svg
   xmlns:dc="http://purl.org/dc/elements/1.1/"
   xmlns:cc="http://creativecommons.org/ns#"
   xmlns:rdf="http://www.w3.org/1999/02/22-rdf-syntax-ns#"
   xmlns:svg="http://www.w3.org/2000/svg"
   xmlns="http://www.w3.org/2000/svg"
   xmlns:sodipodi="http://sodipodi.sourceforge.net/DTD/sodipodi-0.dtd"
   xmlns:inkscape="http://www.inkscape.org/namespaces/inkscape"
   width="12in"
   height="15in"
   viewBox="0 0 1080 1350"
   id="svg2"
   version="1.1"
   inkscape:version="0.91 r13725"
   sodipodi:docname="trsuch-1.svg">
  <defs
     id="defs4" />
  <sodipodi:namedview
     id="base"
     pagecolor="#ffffff"
     bordercolor="#666666"
     borderopacity="1.0"
     inkscape:pageopacity="0.0"
     inkscape:pageshadow="2"
     inkscape:zoom="0.35"
     inkscape:cx="-18.602481"
     inkscape:cy="610.82203"
     inkscape:document-units="px"
     inkscape:current-layer="layer1"
     showgrid="false"
     units="in"
     inkscape:window-width="1536"
     inkscape:window-height="801"
     inkscape:window-x="-8"
     inkscape:window-y="-8"
     inkscape:window-maximized="1" />
  <metadata
     id="metadata7">
    <rdf:RDF>
      <cc:Work
         rdf:about="">
        <dc:format>image/svg+xml</dc:format>
        <dc:type
           rdf:resource="http://purl.org/dc/dcmitype/StillImage" />
        <dc:title />
      </cc:Work>
    </rdf:RDF>
  </metadata>
  <g
     inkscape:label="Layer 1"
     inkscape:groupmode="layer"
     id="layer1"
     transform="translate(0,297.63785)">
    <g
       id="g7287"
       style="stroke:#000000;stroke-opacity:1;stroke-width:5.9;stroke-miterlimit:4;stroke-dasharray:none">
      <path
         sodipodi:nodetypes="ccccc"
         inkscape:connector-curvature="0"
         id="path4149"
         d="m 735.46175,152.06085 c 2.12444,-92.540486 -16.30137,-211.257174 -101.6745,-264.08651 -65.03712,-40.4634 -144.46462,-61.25442 -220.81756,-53.3671 -105.37644,21.20787 -165.51512,129.812467 -177.29575,229.269394 -8.05547,36.837056 -0.8769,82.757446 9.46348,118.357526"
         style="fill:none;fill-rule:evenodd;stroke:#000000;stroke-width:5.9;stroke-linecap:butt;stroke-linejoin:miter;stroke-opacity:1;stroke-miterlimit:4;stroke-dasharray:none" />
      <path
         inkscape:connector-curvature="0"
         id="path4151"
         d="m 688.19634,208.0128 c -6.41358,-65.42087 91.21751,-78.97759 83.31094,-6.70889 5.70021,47.8687 -11.576,102.06335 -49.1635,133.27265 -43.98888,14.57799 -1.04916,-64.15382 -22.51016,-88.8468 -6.18916,-30.19795 -16.96873,-59.16263 -27.54719,-88.02897"
         style="fill:none;fill-rule:evenodd;stroke:#000000;stroke-width:5.9;stroke-linecap:butt;stroke-linejoin:miter;stroke-opacity:1;stroke-miterlimit:4;stroke-dasharray:none" />
      <path
         inkscape:connector-curvature="0"
         id="path4153"
         d="M 702.85714,227.21929 C 723.06344,213.17269 710.73319,145.95494 750,169.36215"
         style="fill:none;fill-rule:evenodd;stroke:#000000;stroke-width:5.9;stroke-linecap:butt;stroke-linejoin:miter;stroke-opacity:1;stroke-miterlimit:4;stroke-dasharray:none" />
      <path
         inkscape:connector-curvature="0"
         id="path4155"
         d="m 738.57143,166.50501 c 10.66494,37.84291 36.95498,129.49638 -29.08666,124.12413 l -6.48277,-1.67798"
         style="fill:none;fill-rule:evenodd;stroke:#000000;stroke-width:5.9;stroke-linecap:butt;stroke-linejoin:miter;stroke-opacity:1;stroke-miterlimit:4;stroke-dasharray:none" />
      <path
         sodipodi:nodetypes="cc"
         inkscape:connector-curvature="0"
         id="path4159"
         d="m 233.44888,208.97963 c 9.00909,53.91978 -5.74893,112.43452 34.05112,155.38252"
         style="fill:none;fill-rule:evenodd;stroke:#000000;stroke-width:5.9;stroke-linecap:butt;stroke-linejoin:miter;stroke-opacity:1;stroke-miterlimit:4;stroke-dasharray:none" />
      <path
         sodipodi:nodetypes="cc"
         inkscape:connector-curvature="0"
         id="path4161"
         d="m 257.02031,239.44138 c 10.41195,41.58868 1.31971,86.30888 10.83683,126.34934"
         style="fill:none;fill-rule:evenodd;stroke:#000000;stroke-width:5.9;stroke-linecap:butt;stroke-linejoin:miter;stroke-opacity:1;stroke-miterlimit:4;stroke-dasharray:none" />
      <path
         inkscape:connector-curvature="0"
         id="path4163"
         d="m 666.06708,142.67105 c -22.63716,-67.74 -4.45766,-146.2592112 -46.41462,-207.955876 -31.54455,-16.435355 -73.22518,12.921825 -102.23113,-1.399346 -58.05283,41.908013 -133.8571,40.244128 -201.29686,28.655219 -61.92317,23.312831 -67.26762,98.902867 -61.9481,155.295713 7.12469,28.06907 -2.46262,46.29379 -10.3524,72.23281"
         style="fill:none;fill-rule:evenodd;stroke:#000000;stroke-width:5.9;stroke-linecap:butt;stroke-linejoin:miter;stroke-opacity:1;stroke-miterlimit:4;stroke-dasharray:none" />
      <path
         sodipodi:nodetypes="ccc"
         inkscape:connector-curvature="0"
         id="path4165"
         d="m 715.76813,156.15837 c -28.19977,-16.54998 -99.33695,38.93978 -103.97937,5.0756 21.2437,-17.6228 86.80046,-31.33941 113.92553,-9.01468"
         style="fill:none;fill-rule:evenodd;stroke:#000000;stroke-width:5.9;stroke-linecap:butt;stroke-linejoin:miter;stroke-opacity:1;stroke-miterlimit:4;stroke-dasharray:none" />
      <path
         inkscape:connector-curvature="0"
         id="path4167"
         d="m 600.54841,146.79343 c 36.9899,38.14249 -8.28982,88.14216 -48.25464,98.23932 -43.06239,21.65313 -104.51992,-0.55676 -106.4536,-53.39611 16.09631,-47.22431 79.21082,-42.00405 119.45751,-53.92545 12.19257,-1.31565 25.34173,0.89276 35.06997,8.81484"
         style="fill:none;fill-rule:evenodd;stroke:#000000;stroke-width:5.9;stroke-linecap:butt;stroke-linejoin:miter;stroke-opacity:1;stroke-miterlimit:4;stroke-dasharray:none" />
      <path
         inkscape:connector-curvature="0"
         id="path4169"
         d="M 606.18347,179.35471 C 571.90956,147.23826 482.02577,162.70927 470.7767,146.95676 512.38219,118.66349 585.01143,131.00447 606.37781,179.31882"
         style="fill:none;fill-rule:evenodd;stroke:#000000;stroke-width:5.9;stroke-linecap:butt;stroke-linejoin:miter;stroke-opacity:1;stroke-miterlimit:4;stroke-dasharray:none" />
      <path
         inkscape:connector-curvature="0"
         id="path4171"
         d="m 571.04332,186.94824 c -26.31959,-15.84244 -69.25664,-23.62672 -88.89343,6.56599"
         style="fill:none;fill-rule:evenodd;stroke:#000000;stroke-width:5.9;stroke-linecap:butt;stroke-linejoin:miter;stroke-opacity:1;stroke-miterlimit:4;stroke-dasharray:none" />
      <path
         inkscape:connector-curvature="0"
         id="path4173"
         d="m 491.99888,183.91778 c 21.70873,10.77331 46.92134,5.06121 68.69038,-2.27284"
         style="fill:none;fill-rule:evenodd;stroke:#000000;stroke-width:5.9;stroke-linecap:butt;stroke-linejoin:miter;stroke-opacity:1;stroke-miterlimit:4;stroke-dasharray:none" />
      <path
         inkscape:connector-curvature="0"
         id="path4175"
         d="m 544.52681,176.0891 1.13642,10.35406"
         style="fill:none;fill-rule:evenodd;stroke:#000000;stroke-width:5.9;stroke-linecap:butt;stroke-linejoin:miter;stroke-opacity:1;stroke-miterlimit:4;stroke-dasharray:none" />
      <path
         inkscape:connector-curvature="0"
         id="path4177"
         d="m 518.76792,173.94253 c -3.65028,3.27478 -7.23149,11.87899 -1.51523,15.40482"
         style="fill:none;fill-rule:evenodd;stroke:#000000;stroke-width:5.9;stroke-linecap:butt;stroke-linejoin:miter;stroke-opacity:1;stroke-miterlimit:4;stroke-dasharray:none" />
      <path
         inkscape:connector-curvature="0"
         id="path4179"
         d="m 524.5763,173.94253 c -1.48403,2.92095 -5.07394,15.98628 2.90419,15.15228"
         style="fill:none;fill-rule:evenodd;stroke:#000000;stroke-width:5.9;stroke-linecap:butt;stroke-linejoin:miter;stroke-opacity:1;stroke-miterlimit:4;stroke-dasharray:none" />
      <path
         inkscape:connector-curvature="0"
         id="path4181"
         d="m 531.14229,174.32133 c 6.11557,1.72738 7.25896,12.86935 0.50508,14.64722"
         style="fill:none;fill-rule:evenodd;stroke:#000000;stroke-width:5.9;stroke-linecap:butt;stroke-linejoin:miter;stroke-opacity:1;stroke-miterlimit:4;stroke-dasharray:none" />
      <path
         inkscape:connector-curvature="0"
         id="path4183"
         d="m 564.9824,199.57515 c -22.54039,15.18509 -52.28818,14.05929 -76.77159,4.54568"
         style="fill:none;fill-rule:evenodd;stroke:#000000;stroke-width:5.9;stroke-linecap:butt;stroke-linejoin:miter;stroke-opacity:1;stroke-miterlimit:4;stroke-dasharray:none" />
      <path
         inkscape:connector-curvature="0"
         id="path4185"
         d="m 574.57885,196.03961 c 9.4469,1.61884 18.98063,2.79859 28.53681,3.53554"
         style="fill:none;fill-rule:evenodd;stroke:#000000;stroke-width:5.9;stroke-linecap:butt;stroke-linejoin:miter;stroke-opacity:1;stroke-miterlimit:4;stroke-dasharray:none" />
      <path
         inkscape:connector-curvature="0"
         id="path4189"
         d="m 373.5585,172.55357 c -32.37363,-13.87794 -70.35693,-0.58951 -95.45942,21.71828"
         style="fill:none;fill-rule:evenodd;stroke:#000000;stroke-width:5.9;stroke-linecap:butt;stroke-linejoin:miter;stroke-opacity:1;stroke-miterlimit:4;stroke-dasharray:none" />
      <path
         inkscape:connector-curvature="0"
         id="path4191"
         d="m 278.09908,194.52438 c 4.81302,-43.47146 82.75518,-56.44666 107.62625,-31.18825 l -3.94156,4.88774 -8.47781,5.59239"
         style="fill:none;fill-rule:evenodd;stroke:#000000;stroke-width:5.9;stroke-linecap:butt;stroke-linejoin:miter;stroke-opacity:1;stroke-miterlimit:4;stroke-dasharray:none" />
      <path
         inkscape:connector-curvature="0"
         id="path4195"
         d="m 243.50135,175.07895 c -25.85985,-4.22837 -20.33468,42.17725 3.283,35.1028"
         style="fill:none;fill-rule:evenodd;stroke:#000000;stroke-width:5.9;stroke-linecap:butt;stroke-linejoin:miter;stroke-opacity:1;stroke-miterlimit:4;stroke-dasharray:none" />
      <path
         inkscape:connector-curvature="0"
         id="path4197"
         d="m 244.00643,189.9787 c -12.25959,53.03472 51.91127,82.5597 96.00809,73.96789 58.25693,4.02319 78.93414,-95.56502 11.51681,-95.61725 -36.64284,-2.60171 -74.65714,5.5466 -107.5249,21.64936 z"
         style="fill:none;fill-rule:evenodd;stroke:#000000;stroke-width:5.9;stroke-linecap:butt;stroke-linejoin:miter;stroke-opacity:1;stroke-miterlimit:4;stroke-dasharray:none" />
      <path
         inkscape:connector-curvature="0"
         id="path4199"
         d="m 381.13464,201.59545 c -19.70845,-23.36354 -59.7564,-17.28759 -76.7716,6.06092"
         style="fill:none;fill-rule:evenodd;stroke:#000000;stroke-width:5.9;stroke-linecap:butt;stroke-linejoin:miter;stroke-opacity:1;stroke-miterlimit:4;stroke-dasharray:none" />
      <path
         inkscape:connector-curvature="0"
         id="path4201"
         d="m 382.64987,201.34291 c -25.31057,-7.05579 -50.17721,9.64587 -75.50891,3.78808"
         style="fill:none;fill-rule:evenodd;stroke:#000000;stroke-width:5.9;stroke-linecap:butt;stroke-linejoin:miter;stroke-opacity:1;stroke-miterlimit:4;stroke-dasharray:none" />
      <path
         inkscape:connector-curvature="0"
         id="path4203"
         d="m 333.40493,188.84227 c -1.69137,4.78001 -1.18706,12.33889 4.29315,14.64722"
         style="fill:none;fill-rule:evenodd;stroke:#000000;stroke-width:5.9;stroke-linecap:butt;stroke-linejoin:miter;stroke-opacity:1;stroke-miterlimit:4;stroke-dasharray:none" />
      <path
         inkscape:connector-curvature="0"
         id="path4205"
         d="m 359.16382,188.3372 c 5.1395,2.09801 4.51544,12.79197 -2.02031,12.2481"
         style="fill:none;fill-rule:evenodd;stroke:#000000;stroke-width:5.9;stroke-linecap:butt;stroke-linejoin:miter;stroke-opacity:1;stroke-miterlimit:4;stroke-dasharray:none" />
      <path
         inkscape:connector-curvature="0"
         id="path4207"
         d="m 342.87511,187.32705 c 0.43407,2.41773 3.21199,11.76163 4.16688,14.01586"
         style="fill:none;fill-rule:evenodd;stroke:#000000;stroke-width:5.9;stroke-linecap:butt;stroke-linejoin:miter;stroke-opacity:1;stroke-miterlimit:4;stroke-dasharray:none" />
      <path
         inkscape:connector-curvature="0"
         id="path4209"
         d="m 351.96648,187.70585 c 0.58019,3.66158 4.18546,10.64005 -0.88388,13.38453"
         style="fill:none;fill-rule:evenodd;stroke:#000000;stroke-width:5.9;stroke-linecap:butt;stroke-linejoin:miter;stroke-opacity:1;stroke-miterlimit:4;stroke-dasharray:none" />
      <path
         inkscape:connector-curvature="0"
         id="path4211"
         d="m 307.89858,206.39368 c -1.31183,2.52605 -6.19424,12.79593 -7.32361,15.40482"
         style="fill:none;fill-rule:evenodd;stroke:#000000;stroke-width:5.9;stroke-linecap:butt;stroke-linejoin:miter;stroke-opacity:1;stroke-miterlimit:4;stroke-dasharray:none" />
      <path
         inkscape:connector-curvature="0"
         id="path4213"
         d="m 305.87827,220.78835 c -2.64901,0.66179 -13.08725,3.8606 -15.65736,4.79822"
         style="fill:none;fill-rule:evenodd;stroke:#000000;stroke-width:5.9;stroke-linecap:butt;stroke-linejoin:miter;stroke-opacity:1;stroke-miterlimit:4;stroke-dasharray:none" />
      <path
         inkscape:connector-curvature="0"
         id="path4215"
         d="m 377.34657,212.95967 c -19.58153,7.26042 -40.90902,9.50846 -61.61931,7.07107"
         style="fill:none;fill-rule:evenodd;stroke:#000000;stroke-width:5.9;stroke-linecap:butt;stroke-linejoin:miter;stroke-opacity:1;stroke-miterlimit:4;stroke-dasharray:none" />
      <path
         sodipodi:nodetypes="cc"
         inkscape:connector-curvature="0"
         id="path4217"
         d="m 395.52932,194.52439 c 16.90188,4.2155 -1.78893,22.92755 -5.55585,34.34518"
         style="fill:none;fill-rule:evenodd;stroke:#000000;stroke-width:5.9;stroke-linecap:butt;stroke-linejoin:miter;stroke-opacity:1;stroke-miterlimit:4;stroke-dasharray:none" />
      <path
         sodipodi:nodetypes="cc"
         inkscape:connector-curvature="0"
         id="path4219"
         d="m 447.29962,184.80166 c -17.45382,-1.75413 -37.53153,8.82002 -54.42196,10.98541"
         style="fill:none;fill-rule:evenodd;stroke:#000000;stroke-width:5.9;stroke-linecap:butt;stroke-linejoin:miter;stroke-opacity:1;stroke-miterlimit:4;stroke-dasharray:none" />
      <path
         sodipodi:nodetypes="cc"
         inkscape:connector-curvature="0"
         id="path4221"
         d="m 452.85547,174.06879 c -16.9851,2.75809 -45.401,10.50212 -62.12438,14.39468"
         style="fill:none;fill-rule:evenodd;stroke:#000000;stroke-width:5.9;stroke-linecap:butt;stroke-linejoin:miter;stroke-opacity:1;stroke-miterlimit:4;stroke-dasharray:none" />
      <path
         sodipodi:nodetypes="cc"
         inkscape:connector-curvature="0"
         id="path4223"
         d="M 403.32633,193.08524 C 436.26108,228.14849 387.74651,273.1925 395,312.57643"
         style="fill:none;fill-rule:evenodd;stroke:#000000;stroke-width:5.9;stroke-linecap:butt;stroke-linejoin:miter;stroke-opacity:1;stroke-miterlimit:4;stroke-dasharray:none" />
      <path
         inkscape:connector-curvature="0"
         id="path4225"
         d="m 373.57143,289.71929 c -20.39723,66.2492 76.87196,66.94022 103.9381,32.51998 41.08034,1.80459 21.35451,-47.89084 -2.50953,-56.09141"
         style="fill:none;fill-rule:evenodd;stroke:#000000;stroke-width:5.9;stroke-linecap:butt;stroke-linejoin:miter;stroke-opacity:1;stroke-miterlimit:4;stroke-dasharray:none" />
      <path
         inkscape:connector-curvature="0"
         id="path4227"
         d="M 504.28572,288.64786 C 532.72836,309.8891 569.28833,327.7511 582.5,362.93358"
         style="fill:none;fill-rule:evenodd;stroke:#000000;stroke-width:5.9;stroke-linecap:butt;stroke-linejoin:miter;stroke-opacity:1;stroke-miterlimit:4;stroke-dasharray:none" />
      <path
         inkscape:connector-curvature="0"
         id="path4229"
         d="m 361.78571,300.79072 c -15.99154,17.62163 -42.99126,35.5936 -36.07142,63.21429"
         style="fill:none;fill-rule:evenodd;stroke:#000000;stroke-width:5.9;stroke-linecap:butt;stroke-linejoin:miter;stroke-opacity:1;stroke-miterlimit:4;stroke-dasharray:none" />
      <path
         inkscape:connector-curvature="0"
         id="path4231"
         d="m 431.07143,389.7193 c -30.46188,-7.73274 -62.16546,-4.68195 -93.21428,-6.42858"
         style="fill:none;fill-rule:evenodd;stroke:#000000;stroke-width:5.9;stroke-linecap:butt;stroke-linejoin:miter;stroke-opacity:1;stroke-miterlimit:4;stroke-dasharray:none" />
      <path
         inkscape:connector-curvature="0"
         id="path4233"
         d="m 431.42857,379.71928 c -31.06558,-10.96122 -63.59246,0.47017 -95,2.85715"
         style="fill:none;fill-rule:evenodd;stroke:#000000;stroke-width:5.9;stroke-linecap:butt;stroke-linejoin:miter;stroke-opacity:1;stroke-miterlimit:4;stroke-dasharray:none" />
      <path
         inkscape:connector-curvature="0"
         id="path4235"
         d="m 431.25,389.36214 c 40.61912,-10.7556 82.02383,-22.16901 124.46429,-19.99999"
         style="fill:none;fill-rule:evenodd;stroke:#000000;stroke-width:5.9;stroke-linecap:butt;stroke-linejoin:miter;stroke-opacity:1;stroke-miterlimit:4;stroke-dasharray:none" />
      <path
         inkscape:connector-curvature="0"
         id="path4237"
         d="m 431.07143,380.07643 c 41.80875,-18.66167 88.88961,-15.87344 133.21429,-10.71428"
         style="fill:none;fill-rule:evenodd;stroke:#000000;stroke-width:5.9;stroke-linecap:butt;stroke-linejoin:miter;stroke-opacity:1;stroke-miterlimit:4;stroke-dasharray:none" />
      <path
         inkscape:connector-curvature="0"
         id="path4239"
         d="m 357.5,383.11215 c 43.94697,58.5231 143.2731,41.3683 182.85714,-13.03572"
         style="fill:none;fill-rule:evenodd;stroke:#000000;stroke-width:5.9;stroke-linecap:butt;stroke-linejoin:miter;stroke-opacity:1;stroke-miterlimit:4;stroke-dasharray:none" />
      <path
         inkscape:connector-curvature="0"
         id="path4241"
         d="m 357.67857,384.89786 c 26.04372,63.67536 125.48588,77.61372 163.97598,18.21616 8.95879,-11.14204 16.88167,-23.05925 25.48831,-34.46616"
         style="fill:none;fill-rule:evenodd;stroke:#000000;stroke-width:5.9;stroke-linecap:butt;stroke-linejoin:miter;stroke-opacity:1;stroke-miterlimit:4;stroke-dasharray:none" />
      <path
         sodipodi:nodetypes="ccc"
         inkscape:connector-curvature="0"
         id="path4259"
         d="m 267.65093,364.82175 c 11.0195,84.10278 96.54358,128.89696 110.38581,212.05133 l 4.61313,10.09557"
         style="fill:none;fill-rule:evenodd;stroke:#000000;stroke-width:5.9;stroke-linecap:butt;stroke-linejoin:miter;stroke-opacity:1;stroke-miterlimit:4;stroke-dasharray:none" />
      <path
         inkscape:connector-curvature="0"
         id="path4261"
         d="m 342.74884,462.71989 c 9.2211,76.33012 105.67444,136.44236 173.45502,89.43253 54.66576,-38.49788 57.04303,-110.585 87.16434,-164.6889"
         style="fill:none;fill-rule:evenodd;stroke:#000000;stroke-width:5.9;stroke-linecap:butt;stroke-linejoin:miter;stroke-opacity:1;stroke-miterlimit:4;stroke-dasharray:none" />
      <path
         inkscape:connector-curvature="0"
         id="path4263"
         d="m 560.94179,526.86457 c 36.56062,-58.56191 106.98972,-106.81702 100.70989,-183.45182 -1.91608,-23.91662 -8.90685,-46.24396 -17.3723,-68.58124"
         style="fill:none;fill-rule:evenodd;stroke:#000000;stroke-width:5.9;stroke-linecap:butt;stroke-linejoin:miter;stroke-opacity:1;stroke-miterlimit:4;stroke-dasharray:none" />
      <path
         sodipodi:nodetypes="ccc"
         inkscape:connector-curvature="0"
         id="path4265"
         d="m 705.9779,333.52933 c -20.10366,74.19329 -28.46953,181.40428 -101.3816,225.43806 -10.91524,4.49766 -20.5867,11.69398 -31.0276,15.87943"
         style="fill:none;fill-rule:evenodd;stroke:#000000;stroke-width:5.9;stroke-linecap:butt;stroke-linejoin:miter;stroke-opacity:1;stroke-miterlimit:4;stroke-dasharray:none" />
      <path
         inkscape:connector-curvature="0"
         id="path4267"
         d="m 699.33269,361.70463 c 5.09242,65.69562 -16.28944,130.85623 -6.56599,196.47467"
         style="fill:none;fill-rule:evenodd;stroke:#000000;stroke-width:5.9;stroke-linecap:butt;stroke-linejoin:miter;stroke-opacity:1;stroke-miterlimit:4;stroke-dasharray:none" />
      <path
         inkscape:connector-curvature="0"
         id="path4269"
         d="m 691.50401,469.53842 c 6.67946,20.36073 18.43913,39.12012 34.34519,53.53808"
         style="fill:none;fill-rule:evenodd;stroke:#000000;stroke-width:5.9;stroke-linecap:butt;stroke-linejoin:miter;stroke-opacity:1;stroke-miterlimit:4;stroke-dasharray:none" />
      <path
         inkscape:connector-curvature="0"
         id="path4271"
         d="m 696.55477,434.68815 c 78.73163,18.65304 99.62922,106.55307 145.75018,161.72035 29.45148,31.769 -8.68772,79.6511 -9.63215,116.32415"
         style="fill:none;fill-rule:evenodd;stroke:#000000;stroke-width:5.9;stroke-linecap:butt;stroke-linejoin:miter;stroke-opacity:1;stroke-miterlimit:4;stroke-dasharray:none" />
      <path
         inkscape:connector-curvature="0"
         id="path4273"
         d="m 692.7667,452.61836 c 48.52658,26.67094 37.09543,90.79708 19.44661,133.17554 -13.83265,42.9377 -38.65156,79.55521 -60.35779,118.35245"
         style="fill:none;fill-rule:evenodd;stroke:#000000;stroke-width:5.9;stroke-linecap:butt;stroke-linejoin:miter;stroke-opacity:1;stroke-miterlimit:4;stroke-dasharray:none" />
      <path
         sodipodi:nodetypes="cc"
         inkscape:connector-curvature="0"
         id="path4275"
         d="m 834.28959,585.54007 c 35.63156,27.5224 89.73518,40.95182 131.21831,56.48188"
         style="fill:none;fill-rule:evenodd;stroke:#000000;stroke-width:5.9;stroke-linecap:butt;stroke-linejoin:miter;stroke-miterlimit:4;stroke-dasharray:none;stroke-opacity:1" />
      <path
         inkscape:connector-curvature="0"
         id="path4277"
         d="m 854.3911,634.95085 c 31.93055,0.15018 64.30956,6.67794 92.429,22.2234"
         style="fill:none;fill-rule:evenodd;stroke:#000000;stroke-width:5.9;stroke-linecap:butt;stroke-linejoin:miter;stroke-opacity:1;stroke-miterlimit:4;stroke-dasharray:none" />
      <path
         inkscape:connector-curvature="0"
         id="path4279"
         d="M 549.32504,568.28083 C 510.29624,598.36757 449.25827,616.7244 407.3986,581.41281"
         style="fill:none;fill-rule:evenodd;stroke:#000000;stroke-width:5.9;stroke-linecap:butt;stroke-linejoin:miter;stroke-opacity:1;stroke-miterlimit:4;stroke-dasharray:none" />
      <path
         inkscape:connector-curvature="0"
         id="path4281"
         d="m 380.12449,584.94835 c 22.18759,33.91002 6.61234,80.38892 33.8401,112.1269"
         style="fill:none;fill-rule:evenodd;stroke:#000000;stroke-width:5.9;stroke-linecap:butt;stroke-linejoin:miter;stroke-opacity:1;stroke-miterlimit:4;stroke-dasharray:none" />
      <path
         inkscape:connector-curvature="0"
         id="path4283"
         d="m 379.61941,585.9585 c -9.68486,38.15955 -43.62502,66.04517 -47.98225,106.06605"
         style="fill:none;fill-rule:evenodd;stroke:#000000;stroke-width:5.9;stroke-linecap:butt;stroke-linejoin:miter;stroke-opacity:1;stroke-miterlimit:4;stroke-dasharray:none" />
      <path
         inkscape:connector-curvature="0"
         id="path4289"
         d="M 341.23361,658.6895 C 309.64,687.31542 260.53219,684.22854 230.62191,715.25805"
         style="fill:none;fill-rule:evenodd;stroke:#000000;stroke-width:5.9;stroke-linecap:butt;stroke-linejoin:miter;stroke-opacity:1;stroke-miterlimit:4;stroke-dasharray:none" />
      <path
         inkscape:connector-curvature="0"
         id="path4291"
         d="m 400,671.50505 c 11.85123,38.567 17.44748,78.77093 30,117.1428"
         style="fill:none;fill-rule:evenodd;stroke:#000000;stroke-width:5.9;stroke-linecap:butt;stroke-linejoin:miter;stroke-opacity:1;stroke-miterlimit:4;stroke-dasharray:none" />
      <path
         inkscape:connector-curvature="0"
         id="path4293"
         d="m 502.14286,763.64785 c -1.96636,22.39727 1.57177,74.94571 -35,65"
         style="fill:none;fill-rule:evenodd;stroke:#000000;stroke-width:5.9;stroke-linecap:butt;stroke-linejoin:miter;stroke-opacity:1;stroke-miterlimit:4;stroke-dasharray:none" />
      <path
         inkscape:connector-curvature="0"
         id="path4295"
         d="m 653.12328,700.97273 c -11.66545,38.50137 -48.68241,94.29848 -14.56292,127.50076 40.09421,-11.8734 83.05417,-7.76362 124.50516,-16.06525 l 6.02582,-2.01755 L 775,807.93355"
         style="fill:none;fill-rule:evenodd;stroke:#000000;stroke-width:5.9;stroke-linecap:butt;stroke-linejoin:miter;stroke-opacity:1;stroke-miterlimit:4;stroke-dasharray:none" />
      <path
         sodipodi:nodetypes="ccc"
         inkscape:connector-curvature="0"
         id="path4297"
         d="m 625.31074,785.86248 c -42.655,51.96435 -123.70901,41.99624 -155.123,106.80832 -21.17886,21.54487 -52.03593,29.42809 -73.75917,50.2627"
         style="fill:none;fill-rule:evenodd;stroke:#000000;stroke-width:5.9;stroke-linecap:butt;stroke-linejoin:miter;stroke-opacity:1;stroke-miterlimit:4;stroke-dasharray:none" />
      <path
         inkscape:connector-curvature="0"
         id="path4299"
         d="m 624.59645,810.07645 c -21.53447,70.87881 -103.03087,84.27139 -163.40993,106.067 -22.27801,3.39198 -40.58241,26.68009 -62.52843,24.01968"
         style="fill:none;fill-rule:evenodd;stroke:#000000;stroke-width:5.9;stroke-linecap:butt;stroke-linejoin:miter;stroke-opacity:1;stroke-miterlimit:4;stroke-dasharray:none" />
      <path
         sodipodi:nodetypes="cccc"
         inkscape:connector-curvature="0"
         id="path4301"
         d="m 405.0805,692.30598 c 0.11303,74.94265 -10.13409,147.6978 -4.13945,222.23441 l 2.47074,9.79214 3.64441,9.43786"
         style="fill:none;fill-rule:evenodd;stroke:#000000;stroke-width:5.9;stroke-linecap:butt;stroke-linejoin:miter;stroke-opacity:1;stroke-miterlimit:4;stroke-dasharray:none" />
      <path
         inkscape:connector-curvature="0"
         id="path4303"
         d="m 331.34191,691.8157 c -11.55313,36.67661 -15.7074,77.32719 -40.62762,108.26075"
         style="fill:none;fill-rule:evenodd;stroke:#000000;stroke-width:5.9;stroke-linecap:butt;stroke-linejoin:miter;stroke-opacity:1;stroke-miterlimit:4;stroke-dasharray:none" />
      <path
         inkscape:connector-curvature="0"
         id="path4307"
         d="m 320.48405,727.52128 c -39.75375,39.96554 -62.98189,118.07631 1.17819,146.71433 22.20018,20.89 45.6549,42.44424 56.90919,71.55509"
         style="fill:none;fill-rule:evenodd;stroke:#000000;stroke-width:5.9;stroke-linecap:butt;stroke-linejoin:miter;stroke-opacity:1;stroke-miterlimit:4;stroke-dasharray:none" />
      <path
         inkscape:connector-curvature="0"
         id="path4309"
         d="m 317.85714,770.79075 c 40.43019,39.14144 60.98427,92.66949 84.40826,142.56125"
         style="fill:none;fill-rule:evenodd;stroke:#000000;stroke-width:5.9;stroke-linecap:butt;stroke-linejoin:miter;stroke-opacity:1;stroke-miterlimit:4;stroke-dasharray:none" />
      <path
         inkscape:connector-curvature="0"
         id="path4311"
         d="M 233.57143,712.93355 C 170.1351,758.59464 144.54652,836.03775 105.64049,900.44166 100.20388,914.28012 96.245629,928.79598 95,943.6479"
         style="fill:none;fill-rule:evenodd;stroke:#000000;stroke-width:5.9;stroke-linecap:butt;stroke-linejoin:miter;stroke-opacity:1;stroke-miterlimit:4;stroke-dasharray:none" />
    </g>
  </g>
</svg>
