<?xml version="1.0" encoding="UTF-8" standalone="no"?>
<!-- Created with Inkscape (http://www.inkscape.org/) -->

<svg
   xmlns:dc="http://purl.org/dc/elements/1.1/"
   xmlns:cc="http://creativecommons.org/ns#"
   xmlns:rdf="http://www.w3.org/1999/02/22-rdf-syntax-ns#"
   xmlns:svg="http://www.w3.org/2000/svg"
   xmlns="http://www.w3.org/2000/svg"
   xmlns:sodipodi="http://sodipodi.sourceforge.net/DTD/sodipodi-0.dtd"
   xmlns:inkscape="http://www.inkscape.org/namespaces/inkscape"
   width="256"
   height="256"
   viewBox="0 0 256 256"
   id="svg5219"
   version="1.1"
   inkscape:version="0.91 r13725"
   sodipodi:docname="trsuch-3.svg">
  <defs
     id="defs5221" />
  <sodipodi:namedview
     id="base"
     pagecolor="#ffffff"
     bordercolor="#666666"
     borderopacity="1.0"
     inkscape:pageopacity="0.0"
     inkscape:pageshadow="2"
     inkscape:zoom="1.4"
     inkscape:cx="331.85714"
     inkscape:cy="75.744818"
     inkscape:document-units="px"
     inkscape:current-layer="layer1"
     showgrid="false"
     units="px"
     inkscape:window-width="1920"
     inkscape:window-height="993"
     inkscape:window-x="0"
     inkscape:window-y="24"
     inkscape:window-maximized="1">
    <inkscape:grid
       type="xygrid"
       id="grid6907" />
  </sodipodi:namedview>
  <metadata
     id="metadata5224">
    <rdf:RDF>
      <cc:Work
         rdf:about="">
        <dc:format>image/svg+xml</dc:format>
        <dc:type
           rdf:resource="http://purl.org/dc/dcmitype/StillImage" />
        <dc:title></dc:title>
      </cc:Work>
    </rdf:RDF>
  </metadata>
  <g
     inkscape:label="Layer 1"
     inkscape:groupmode="layer"
     id="layer1"
     transform="translate(0,-796.36215)">
    <g
       id="g3813"
       transform="matrix(0.21022336,0,0,0.20027754,16.395433,849.24402)">
      <rect
         y="-244.7807"
         x="17.142857"
         height="1234.2858"
         width="1040"
         id="rect7217"
         style="opacity:1;fill:#8f8989;fill-opacity:1;stroke:none;stroke-width:2;stroke-miterlimit:4;stroke-dasharray:none;stroke-opacity:1" />
      <g
         id="g7766">
        <path
           style="fill:none;fill-rule:evenodd;stroke:#000000;stroke-width:3.0999999;stroke-linecap:butt;stroke-linejoin:miter;stroke-miterlimit:4;stroke-dasharray:none;stroke-opacity:1"
           d="m 761.69222,146.21619 c 2.12444,-92.54049 -16.30137,-211.25718 -101.6745,-264.08651 -65.03712,-40.4634 -144.46462,-61.25442 -220.81756,-53.3671 -105.37644,21.20787 -165.51512,129.812472 -177.29575,229.26939 -8.05547,36.83706 -0.8769,82.75745 9.46348,118.35753"
           id="path4149"
           inkscape:connector-curvature="0"
           sodipodi:nodetypes="ccccc" />
        <path
           style="fill:none;fill-rule:evenodd;stroke:#000000;stroke-width:3;stroke-linecap:butt;stroke-linejoin:miter;stroke-miterlimit:4;stroke-dasharray:none;stroke-opacity:1"
           d="m 714.42681,202.16814 c -6.41358,-65.42087 91.21751,-78.97759 83.31094,-6.70889 5.70021,47.8687 -11.576,102.06335 -49.1635,133.27265 -43.98888,14.57799 -1.04916,-64.15382 -22.51016,-88.8468 -6.18916,-30.19795 -16.96873,-59.16263 -27.54719,-88.02897"
           id="path4151"
           inkscape:connector-curvature="0" />
        <path
           style="fill:none;fill-rule:evenodd;stroke:#000000;stroke-width:2;stroke-linecap:butt;stroke-linejoin:miter;stroke-miterlimit:4;stroke-dasharray:none;stroke-opacity:1"
           d="m 729.08761,221.37463 c 20.2063,-14.0466 7.87605,-81.26435 47.14286,-57.85714"
           id="path4153"
           inkscape:connector-curvature="0" />
        <path
           style="fill:none;fill-rule:evenodd;stroke:#000000;stroke-width:2;stroke-linecap:butt;stroke-linejoin:miter;stroke-miterlimit:4;stroke-dasharray:none;stroke-opacity:1"
           d="m 764.8019,160.66035 c 10.66494,37.84291 36.95498,129.49638 -29.08666,124.12413 l -6.48277,-1.67798"
           id="path4155"
           inkscape:connector-curvature="0" />
        <path
           style="fill:none;fill-rule:evenodd;stroke:#000000;stroke-width:3;stroke-linecap:butt;stroke-linejoin:miter;stroke-miterlimit:4;stroke-dasharray:none;stroke-opacity:1"
           d="m 259.67935,203.13497 c 9.00909,53.91978 -5.74893,112.43452 34.05112,155.38252"
           id="path4159"
           inkscape:connector-curvature="0"
           sodipodi:nodetypes="cc" />
        <path
           style="fill:none;fill-rule:evenodd;stroke:#000000;stroke-width:3;stroke-linecap:butt;stroke-linejoin:miter;stroke-miterlimit:4;stroke-dasharray:none;stroke-opacity:1"
           d="m 283.25078,233.59672 c 10.41195,41.58868 1.31971,86.30888 10.83683,126.34934"
           id="path4161"
           inkscape:connector-curvature="0"
           sodipodi:nodetypes="cc" />
        <path
           style="fill:none;fill-rule:evenodd;stroke:#000000;stroke-width:3;stroke-linecap:butt;stroke-linejoin:miter;stroke-miterlimit:4;stroke-dasharray:none;stroke-opacity:1"
           d="m 692.29755,136.82639 c -22.63716,-67.74 -4.45766,-146.259208 -46.41462,-207.95588 -31.54455,-16.43535 -73.22518,12.921832 -102.23113,-1.39934 -58.05283,41.908012 -133.8571,40.244122 -201.29686,28.655222 -61.92317,23.31283 -67.26762,98.902858 -61.9481,155.295708 7.12469,28.06907 -2.46262,46.29379 -10.3524,72.23281"
           id="path4163"
           inkscape:connector-curvature="0" />
        <path
           style="fill:none;fill-rule:evenodd;stroke:#000000;stroke-width:2;stroke-linecap:butt;stroke-linejoin:miter;stroke-miterlimit:4;stroke-dasharray:none;stroke-opacity:1"
           d="m 741.9986,150.31371 c -28.19977,-16.54998 -99.33695,38.93978 -103.97937,5.0756 21.2437,-17.6228 86.80046,-31.33941 113.92553,-9.01468"
           id="path4165"
           inkscape:connector-curvature="0"
           sodipodi:nodetypes="ccc" />
        <path
           style="fill:none;fill-rule:evenodd;stroke:#000000;stroke-width:2;stroke-linecap:butt;stroke-linejoin:miter;stroke-miterlimit:4;stroke-dasharray:none;stroke-opacity:1"
           d="m 626.77888,140.94877 c 36.9899,38.14249 -8.28982,88.14216 -48.25464,98.23932 -43.06239,21.65313 -104.51992,-0.55676 -106.4536,-53.39611 16.09631,-47.22431 79.21082,-42.00405 119.45751,-53.92545 12.19257,-1.31565 25.34173,0.89276 35.06997,8.81484"
           id="path4167"
           inkscape:connector-curvature="0" />
        <path
           style="fill:none;fill-rule:evenodd;stroke:#000000;stroke-width:3;stroke-linecap:butt;stroke-linejoin:miter;stroke-miterlimit:4;stroke-dasharray:none;stroke-opacity:1"
           d="M 632.41394,173.51005 C 598.14003,141.3936 508.25624,156.86461 497.00717,141.1121 538.61266,112.81883 611.2419,125.15981 632.60828,173.47416"
           id="path4169"
           inkscape:connector-curvature="0" />
        <path
           style="fill:none;fill-rule:evenodd;stroke:#000000;stroke-width:3;stroke-linecap:butt;stroke-linejoin:miter;stroke-miterlimit:4;stroke-dasharray:none;stroke-opacity:1"
           d="m 597.27379,181.10358 c -26.31959,-15.84244 -69.25664,-23.62672 -88.89343,6.56599"
           id="path4171"
           inkscape:connector-curvature="0" />
        <path
           style="fill:none;fill-rule:evenodd;stroke:#000000;stroke-width:3;stroke-linecap:butt;stroke-linejoin:miter;stroke-miterlimit:4;stroke-dasharray:none;stroke-opacity:1"
           d="m 518.22935,178.07312 c 21.70873,10.77331 46.92134,5.06121 68.69038,-2.27284"
           id="path4173"
           inkscape:connector-curvature="0" />
        <path
           style="fill:none;fill-rule:evenodd;stroke:#000000;stroke-width:2;stroke-linecap:butt;stroke-linejoin:miter;stroke-miterlimit:4;stroke-dasharray:none;stroke-opacity:1"
           d="m 570.75728,170.24444 1.13642,10.35406"
           id="path4175"
           inkscape:connector-curvature="0" />
        <path
           style="fill:none;fill-rule:evenodd;stroke:#000000;stroke-width:2;stroke-linecap:butt;stroke-linejoin:miter;stroke-miterlimit:4;stroke-dasharray:none;stroke-opacity:1"
           d="m 544.99839,168.09787 c -3.65028,3.27478 -7.23149,11.87899 -1.51523,15.40482"
           id="path4177"
           inkscape:connector-curvature="0" />
        <path
           style="fill:none;fill-rule:evenodd;stroke:#000000;stroke-width:4;stroke-linecap:butt;stroke-linejoin:miter;stroke-miterlimit:4;stroke-dasharray:none;stroke-opacity:1"
           d="m 550.80677,168.09787 c -1.48403,2.92095 -5.07394,15.98628 2.90419,15.15228"
           id="path4179"
           inkscape:connector-curvature="0" />
        <path
           style="fill:none;fill-rule:evenodd;stroke:#000000;stroke-width:4;stroke-linecap:butt;stroke-linejoin:miter;stroke-miterlimit:4;stroke-dasharray:none;stroke-opacity:1"
           d="m 557.37276,168.47667 c 6.11557,1.72738 7.25896,12.86935 0.50508,14.64722"
           id="path4181"
           inkscape:connector-curvature="0" />
        <path
           style="fill:none;fill-rule:evenodd;stroke:#000000;stroke-width:2;stroke-linecap:butt;stroke-linejoin:miter;stroke-miterlimit:4;stroke-dasharray:none;stroke-opacity:1"
           d="m 591.21287,193.73049 c -22.54039,15.18509 -52.28818,14.05929 -76.77159,4.54568"
           id="path4183"
           inkscape:connector-curvature="0" />
        <path
           style="fill:none;fill-rule:evenodd;stroke:#000000;stroke-width:2;stroke-linecap:butt;stroke-linejoin:miter;stroke-miterlimit:4;stroke-dasharray:none;stroke-opacity:1"
           d="m 600.80932,190.19495 c 9.4469,1.61884 18.98063,2.79859 28.53681,3.53554"
           id="path4185"
           inkscape:connector-curvature="0" />
        <path
           style="fill:none;fill-rule:evenodd;stroke:#000000;stroke-width:3;stroke-linecap:butt;stroke-linejoin:miter;stroke-miterlimit:4;stroke-dasharray:none;stroke-opacity:1"
           d="m 399.78897,166.70891 c -32.37363,-13.87794 -70.35693,-0.58951 -95.45942,21.71828"
           id="path4189"
           inkscape:connector-curvature="0" />
        <path
           style="fill:none;fill-rule:evenodd;stroke:#000000;stroke-width:3;stroke-linecap:butt;stroke-linejoin:miter;stroke-miterlimit:4;stroke-dasharray:none;stroke-opacity:1"
           d="m 304.32955,188.67972 c 4.81302,-43.47146 82.75518,-56.44666 107.62625,-31.18825 l -3.94156,4.88774 -8.47781,5.59239"
           id="path4191"
           inkscape:connector-curvature="0" />
        <path
           style="fill:none;fill-rule:evenodd;stroke:#000000;stroke-width:2;stroke-linecap:butt;stroke-linejoin:miter;stroke-miterlimit:4;stroke-dasharray:none;stroke-opacity:1"
           d="m 269.73182,169.23429 c -25.85985,-4.22837 -20.33468,42.17725 3.283,35.1028"
           id="path4195"
           inkscape:connector-curvature="0" />
        <path
           style="fill:none;fill-rule:evenodd;stroke:#000000;stroke-width:2;stroke-linecap:butt;stroke-linejoin:miter;stroke-miterlimit:4;stroke-dasharray:none;stroke-opacity:1"
           d="m 270.2369,184.13404 c -12.25959,53.03472 51.91127,82.5597 96.00809,73.96789 58.25693,4.02319 78.93414,-95.56502 11.51681,-95.61725 -36.64284,-2.60171 -74.65714,5.5466 -107.5249,21.64936 z"
           id="path4197"
           inkscape:connector-curvature="0" />
        <path
           style="fill:none;fill-rule:evenodd;stroke:#000000;stroke-width:3;stroke-linecap:butt;stroke-linejoin:miter;stroke-miterlimit:4;stroke-dasharray:none;stroke-opacity:1"
           d="m 407.36511,195.75079 c -19.70845,-23.36354 -59.7564,-17.28759 -76.7716,6.06092"
           id="path4199"
           inkscape:connector-curvature="0" />
        <path
           style="fill:none;fill-rule:evenodd;stroke:#000000;stroke-width:3;stroke-linecap:butt;stroke-linejoin:miter;stroke-miterlimit:4;stroke-dasharray:none;stroke-opacity:1"
           d="m 408.88034,195.49825 c -25.31057,-7.05579 -50.17721,9.64587 -75.50891,3.78808"
           id="path4201"
           inkscape:connector-curvature="0" />
        <path
           style="fill:none;fill-rule:evenodd;stroke:#000000;stroke-width:2;stroke-linecap:butt;stroke-linejoin:miter;stroke-miterlimit:4;stroke-dasharray:none;stroke-opacity:1"
           d="m 359.6354,182.99761 c -1.69137,4.78001 -1.18706,12.33889 4.29315,14.64722"
           id="path4203"
           inkscape:connector-curvature="0" />
        <path
           style="fill:none;fill-rule:evenodd;stroke:#000000;stroke-width:2;stroke-linecap:butt;stroke-linejoin:miter;stroke-miterlimit:4;stroke-dasharray:none;stroke-opacity:1"
           d="m 385.39429,182.49254 c 5.1395,2.09801 4.51544,12.79197 -2.02031,12.2481"
           id="path4205"
           inkscape:connector-curvature="0" />
        <path
           style="fill:none;fill-rule:evenodd;stroke:#000000;stroke-width:4;stroke-linecap:butt;stroke-linejoin:miter;stroke-miterlimit:4;stroke-dasharray:none;stroke-opacity:1"
           d="m 369.10558,181.48239 c 0.43407,2.41773 3.21199,11.76163 4.16688,14.01586"
           id="path4207"
           inkscape:connector-curvature="0" />
        <path
           style="fill:none;fill-rule:evenodd;stroke:#000000;stroke-width:4;stroke-linecap:butt;stroke-linejoin:miter;stroke-miterlimit:4;stroke-dasharray:none;stroke-opacity:1"
           d="m 378.19695,181.86119 c 0.58019,3.66158 4.18546,10.64005 -0.88388,13.38453"
           id="path4209"
           inkscape:connector-curvature="0" />
        <path
           style="fill:none;fill-rule:evenodd;stroke:#000000;stroke-width:0;stroke-linecap:butt;stroke-linejoin:miter;stroke-miterlimit:4;stroke-dasharray:none;stroke-opacity:1"
           d="m 334.12905,200.54902 c -1.31183,2.52605 -6.19424,12.79593 -7.32361,15.40482"
           id="path4211"
           inkscape:connector-curvature="0" />
        <path
           style="fill:none;fill-rule:evenodd;stroke:#000000;stroke-width:2;stroke-linecap:butt;stroke-linejoin:miter;stroke-miterlimit:4;stroke-dasharray:none;stroke-opacity:1"
           d="m 332.10874,214.94369 c -2.64901,0.66179 -13.08725,3.8606 -15.65736,4.79822"
           id="path4213"
           inkscape:connector-curvature="0" />
        <path
           style="fill:none;fill-rule:evenodd;stroke:#000000;stroke-width:2;stroke-linecap:butt;stroke-linejoin:miter;stroke-miterlimit:4;stroke-dasharray:none;stroke-opacity:1"
           d="m 403.57704,207.11501 c -19.58153,7.26042 -40.90902,9.50846 -61.61931,7.07107"
           id="path4215"
           inkscape:connector-curvature="0" />
        <path
           style="fill:none;fill-rule:evenodd;stroke:#000000;stroke-width:2;stroke-linecap:butt;stroke-linejoin:miter;stroke-miterlimit:4;stroke-dasharray:none;stroke-opacity:1"
           d="m 421.75979,188.67973 c 16.90188,4.2155 -1.78893,22.92755 -5.55585,34.34518"
           id="path4217"
           inkscape:connector-curvature="0"
           sodipodi:nodetypes="cc" />
        <path
           style="fill:none;fill-rule:evenodd;stroke:#000000;stroke-width:2;stroke-linecap:butt;stroke-linejoin:miter;stroke-miterlimit:4;stroke-dasharray:none;stroke-opacity:1"
           d="m 473.53009,178.957 c -17.45382,-1.75413 -37.53153,8.82002 -54.42196,10.98541"
           id="path4219"
           inkscape:connector-curvature="0"
           sodipodi:nodetypes="cc" />
        <path
           style="fill:none;fill-rule:evenodd;stroke:#000000;stroke-width:2;stroke-linecap:butt;stroke-linejoin:miter;stroke-miterlimit:4;stroke-dasharray:none;stroke-opacity:1"
           d="m 479.08594,168.22413 c -16.9851,2.75809 -45.401,10.50212 -62.12438,14.39468"
           id="path4221"
           inkscape:connector-curvature="0"
           sodipodi:nodetypes="cc" />
        <path
           style="fill:none;fill-rule:evenodd;stroke:#000000;stroke-width:2;stroke-linecap:butt;stroke-linejoin:miter;stroke-miterlimit:4;stroke-dasharray:none;stroke-opacity:1"
           d="m 429.5568,187.24058 c 32.93475,35.06325 -15.57982,80.10726 -8.32633,119.49119"
           id="path4223"
           inkscape:connector-curvature="0"
           sodipodi:nodetypes="cc" />
        <path
           style="fill:none;fill-rule:evenodd;stroke:#000000;stroke-width:3;stroke-linecap:butt;stroke-linejoin:miter;stroke-miterlimit:4;stroke-dasharray:none;stroke-opacity:1"
           d="m 399.8019,283.87463 c -20.39723,66.2492 76.87196,66.94022 103.9381,32.51998 41.08034,1.80459 21.35451,-47.89084 -2.50953,-56.09141"
           id="path4225"
           inkscape:connector-curvature="0" />
        <path
           style="fill:none;fill-rule:evenodd;stroke:#000000;stroke-width:2;stroke-linecap:butt;stroke-linejoin:miter;stroke-miterlimit:4;stroke-dasharray:none;stroke-opacity:1"
           d="m 530.51619,282.8032 c 28.44264,21.24124 65.00261,39.10324 78.21428,74.28572"
           id="path4227"
           inkscape:connector-curvature="0" />
        <path
           style="fill:none;fill-rule:evenodd;stroke:#000000;stroke-width:2;stroke-linecap:butt;stroke-linejoin:miter;stroke-miterlimit:4;stroke-dasharray:none;stroke-opacity:1"
           d="m 388.01618,294.94606 c -15.99154,17.62163 -42.99126,35.5936 -36.07142,63.21429"
           id="path4229"
           inkscape:connector-curvature="0" />
        <path
           style="fill:none;fill-rule:evenodd;stroke:#000000;stroke-width:3;stroke-linecap:butt;stroke-linejoin:miter;stroke-miterlimit:4;stroke-dasharray:none;stroke-opacity:1"
           d="m 457.3019,383.87464 c -30.46188,-7.73274 -62.16546,-4.68195 -93.21428,-6.42858"
           id="path4231"
           inkscape:connector-curvature="0" />
        <path
           style="fill:none;fill-rule:evenodd;stroke:#000000;stroke-width:3;stroke-linecap:butt;stroke-linejoin:miter;stroke-miterlimit:4;stroke-dasharray:none;stroke-opacity:1"
           d="m 457.65904,373.87462 c -31.06558,-10.96122 -63.59246,0.47017 -95,2.85715"
           id="path4233"
           inkscape:connector-curvature="0" />
        <path
           style="fill:none;fill-rule:evenodd;stroke:#000000;stroke-width:3;stroke-linecap:butt;stroke-linejoin:miter;stroke-miterlimit:4;stroke-dasharray:none;stroke-opacity:1"
           d="m 457.48047,383.51748 c 40.61912,-10.7556 82.02383,-22.16901 124.46429,-19.99999"
           id="path4235"
           inkscape:connector-curvature="0" />
        <path
           style="fill:none;fill-rule:evenodd;stroke:#000000;stroke-width:3;stroke-linecap:butt;stroke-linejoin:miter;stroke-miterlimit:4;stroke-dasharray:none;stroke-opacity:1"
           d="m 457.3019,374.23177 c 41.80875,-18.66167 88.88961,-15.87344 133.21429,-10.71428"
           id="path4237"
           inkscape:connector-curvature="0" />
        <path
           style="fill:none;fill-rule:evenodd;stroke:#000000;stroke-width:3;stroke-linecap:butt;stroke-linejoin:miter;stroke-miterlimit:4;stroke-dasharray:none;stroke-opacity:1"
           d="m 383.73047,377.26749 c 43.94697,58.5231 143.2731,41.3683 182.85714,-13.03572"
           id="path4239"
           inkscape:connector-curvature="0" />
        <path
           style="fill:none;fill-rule:evenodd;stroke:#000000;stroke-width:3;stroke-linecap:butt;stroke-linejoin:miter;stroke-miterlimit:4;stroke-dasharray:none;stroke-opacity:1"
           d="m 383.90904,379.0532 c 26.04372,63.67536 125.48588,77.61372 163.97598,18.21616 8.95879,-11.14204 16.88167,-23.05925 25.48831,-34.46616"
           id="path4241"
           inkscape:connector-curvature="0" />
        <path
           style="fill:none;fill-rule:evenodd;stroke:#000000;stroke-width:3;stroke-linecap:butt;stroke-linejoin:miter;stroke-miterlimit:4;stroke-dasharray:none;stroke-opacity:1"
           d="m 293.8814,358.97709 c 11.0195,84.10278 96.54358,128.89696 110.38581,212.05133 l 4.61313,10.09557"
           id="path4259"
           inkscape:connector-curvature="0"
           sodipodi:nodetypes="ccc" />
        <path
           style="fill:none;fill-rule:evenodd;stroke:#000000;stroke-width:3;stroke-linecap:butt;stroke-linejoin:miter;stroke-miterlimit:4;stroke-dasharray:none;stroke-opacity:1"
           d="m 368.97931,456.87523 c 9.2211,76.33012 105.67444,136.44236 173.45502,89.43253 54.66576,-38.49788 57.04303,-110.585 87.16434,-164.6889"
           id="path4261"
           inkscape:connector-curvature="0" />
        <path
           style="fill:none;fill-rule:evenodd;stroke:#000000;stroke-width:2;stroke-linecap:butt;stroke-linejoin:miter;stroke-miterlimit:4;stroke-dasharray:none;stroke-opacity:1"
           d="M 587.17226,521.01991 C 623.73288,462.458 694.16198,414.20289 687.88215,337.56809 c -1.91608,-23.91662 -8.90685,-46.24396 -17.3723,-68.58124"
           id="path4263"
           inkscape:connector-curvature="0" />
        <path
           style="fill:none;fill-rule:evenodd;stroke:#000000;stroke-width:3;stroke-linecap:butt;stroke-linejoin:miter;stroke-miterlimit:4;stroke-dasharray:none;stroke-opacity:1"
           d="m 732.20837,327.68467 c -20.10366,74.19329 -28.46953,181.40428 -101.3816,225.43806 -10.91524,4.49766 -20.5867,11.69398 -31.0276,15.87943"
           id="path4265"
           inkscape:connector-curvature="0"
           sodipodi:nodetypes="ccc" />
        <path
           style="fill:none;fill-rule:evenodd;stroke:#000000;stroke-width:3;stroke-linecap:butt;stroke-linejoin:miter;stroke-miterlimit:4;stroke-dasharray:none;stroke-opacity:1"
           d="m 725.56316,355.85997 c 5.09242,65.69562 -16.28944,130.85623 -6.56599,196.47467"
           id="path4267"
           inkscape:connector-curvature="0" />
        <path
           style="fill:none;fill-rule:evenodd;stroke:#000000;stroke-width:2;stroke-linecap:butt;stroke-linejoin:miter;stroke-miterlimit:4;stroke-dasharray:none;stroke-opacity:1"
           d="m 717.73448,463.69376 c 6.67946,20.36073 18.43913,39.12012 34.34519,53.53808"
           id="path4269"
           inkscape:connector-curvature="0" />
        <path
           style="fill:none;fill-rule:evenodd;stroke:#000000;stroke-width:3;stroke-linecap:butt;stroke-linejoin:miter;stroke-miterlimit:4;stroke-dasharray:none;stroke-opacity:1"
           d="m 722.78524,428.84349 c 78.73163,18.65304 99.62922,106.55307 145.75018,161.72035 29.45148,31.769 -8.68772,79.6511 -9.63215,116.32415"
           id="path4271"
           inkscape:connector-curvature="0" />
        <path
           style="fill:none;fill-rule:evenodd;stroke:#000000;stroke-width:3;stroke-linecap:butt;stroke-linejoin:miter;stroke-miterlimit:4;stroke-dasharray:none;stroke-opacity:1"
           d="m 718.99717,446.7737 c 48.52658,26.67094 37.09543,90.79708 19.44661,133.17554 -13.83265,42.9377 -38.65156,79.55521 -60.35779,118.35245"
           id="path4273"
           inkscape:connector-curvature="0" />
        <path
           style="fill:none;fill-rule:evenodd;stroke:#000000;stroke-width:3;stroke-linecap:butt;stroke-linejoin:miter;stroke-miterlimit:4;stroke-dasharray:none;stroke-opacity:1"
           d="m 860.52006,579.69541 c 35.63156,27.5224 158.30664,70.95182 199.78974,86.48188"
           id="path4275"
           inkscape:connector-curvature="0"
           sodipodi:nodetypes="cc" />
        <path
           style="fill:none;fill-rule:evenodd;stroke:#000000;stroke-width:2;stroke-linecap:butt;stroke-linejoin:miter;stroke-miterlimit:4;stroke-dasharray:none;stroke-opacity:1"
           d="m 880.62157,629.10619 c 31.93055,0.15018 64.30956,6.67794 92.429,22.2234"
           id="path4277"
           inkscape:connector-curvature="0" />
        <path
           style="fill:none;fill-rule:evenodd;stroke:#000000;stroke-width:2;stroke-linecap:butt;stroke-linejoin:miter;stroke-miterlimit:4;stroke-dasharray:none;stroke-opacity:1"
           d="m 575.55551,562.43617 c -39.0288,30.08674 -100.06677,48.44357 -141.92644,13.13198"
           id="path4279"
           inkscape:connector-curvature="0" />
        <path
           style="fill:none;fill-rule:evenodd;stroke:#000000;stroke-width:3;stroke-linecap:butt;stroke-linejoin:miter;stroke-miterlimit:4;stroke-dasharray:none;stroke-opacity:1"
           d="m 406.35496,579.10369 c 22.18759,33.91002 6.61234,80.38892 33.8401,112.1269"
           id="path4281"
           inkscape:connector-curvature="0" />
        <path
           style="fill:none;fill-rule:evenodd;stroke:#000000;stroke-width:3;stroke-linecap:butt;stroke-linejoin:miter;stroke-miterlimit:4;stroke-dasharray:none;stroke-opacity:1"
           d="m 405.84988,580.11384 c -9.68486,38.15955 -43.62502,66.04517 -47.98225,106.06605"
           id="path4283"
           inkscape:connector-curvature="0" />
        <path
           style="fill:none;fill-rule:evenodd;stroke:#000000;stroke-width:3;stroke-linecap:butt;stroke-linejoin:miter;stroke-miterlimit:4;stroke-dasharray:none;stroke-opacity:1"
           d="m 367.46408,652.84484 c -31.59361,28.62592 -80.70142,25.53904 -110.6117,56.56855"
           id="path4289"
           inkscape:connector-curvature="0" />
        <path
           style="fill:none;fill-rule:evenodd;stroke:#000000;stroke-width:3;stroke-linecap:butt;stroke-linejoin:miter;stroke-miterlimit:4;stroke-dasharray:none;stroke-opacity:1"
           d="m 426.23047,665.66039 c 11.85123,38.567 17.44748,78.77093 30,117.1428"
           id="path4291"
           inkscape:connector-curvature="0" />
        <path
           style="fill:none;fill-rule:evenodd;stroke:#000000;stroke-width:2;stroke-linecap:butt;stroke-linejoin:miter;stroke-miterlimit:4;stroke-dasharray:none;stroke-opacity:1"
           d="m 528.37333,757.80319 c -1.96636,22.39727 1.57177,74.94574 -35,65"
           id="path4293"
           inkscape:connector-curvature="0" />
        <path
           style="fill:none;fill-rule:evenodd;stroke:#000000;stroke-width:3;stroke-linecap:butt;stroke-linejoin:miter;stroke-miterlimit:4;stroke-dasharray:none;stroke-opacity:1"
           d="m 679.35375,695.12807 c -11.66545,38.50137 -48.68241,94.29848 -14.56292,127.50076 40.09421,-11.8734 83.05417,-7.76362 124.50516,-16.06525 l 6.02582,-2.01755 5.90866,-2.45714"
           id="path4295"
           inkscape:connector-curvature="0" />
        <path
           style="fill:none;fill-rule:evenodd;stroke:#000000;stroke-width:3;stroke-linecap:butt;stroke-linejoin:miter;stroke-miterlimit:4;stroke-dasharray:none;stroke-opacity:1"
           d="m 651.54121,780.01782 c -42.655,51.96431 -123.70901,41.99624 -155.123,106.80831 -21.17886,21.5449 -52.03593,29.4281 -73.75917,50.2627"
           id="path4297"
           inkscape:connector-curvature="0"
           sodipodi:nodetypes="ccc" />
        <path
           style="fill:none;fill-rule:evenodd;stroke:#000000;stroke-width:2;stroke-linecap:butt;stroke-linejoin:miter;stroke-miterlimit:4;stroke-dasharray:none;stroke-opacity:1"
           d="m 650.82692,804.23179 c -21.53447,70.87884 -103.03087,84.27134 -163.40993,106.06704 -22.27801,3.3919 -40.58241,26.68 -62.52843,24.0196"
           id="path4299"
           inkscape:connector-curvature="0" />
        <path
           style="fill:none;fill-rule:evenodd;stroke:#000000;stroke-width:3;stroke-linecap:butt;stroke-linejoin:miter;stroke-miterlimit:4;stroke-dasharray:none;stroke-opacity:1"
           d="m 431.31097,686.46132 c 0.11303,74.94265 -10.13409,147.69781 -4.13945,222.23441 l 2.47074,9.7921 3.64441,9.4379"
           id="path4301"
           inkscape:connector-curvature="0"
           sodipodi:nodetypes="cccc" />
        <path
           style="fill:none;fill-rule:evenodd;stroke:#000000;stroke-width:2;stroke-linecap:butt;stroke-linejoin:miter;stroke-miterlimit:4;stroke-dasharray:none;stroke-opacity:1"
           d="m 357.57238,685.97104 c -11.55313,36.67661 -15.7074,77.32719 -40.62762,108.26075"
           id="path4303"
           inkscape:connector-curvature="0" />
        <path
           style="fill:none;fill-rule:evenodd;stroke:#000000;stroke-width:2;stroke-linecap:butt;stroke-linejoin:miter;stroke-miterlimit:4;stroke-dasharray:none;stroke-opacity:1"
           d="m 346.71452,721.67662 c -39.75375,39.96554 -62.98189,118.07631 1.17819,146.71431 22.20018,20.89 45.6549,42.4443 56.90919,71.5551"
           id="path4307"
           inkscape:connector-curvature="0" />
        <path
           style="fill:none;fill-rule:evenodd;stroke:#000000;stroke-width:2;stroke-linecap:butt;stroke-linejoin:miter;stroke-miterlimit:4;stroke-dasharray:none;stroke-opacity:1"
           d="m 344.08761,764.94609 c 40.43019,39.14144 60.98427,92.66944 84.40826,142.56124"
           id="path4309"
           inkscape:connector-curvature="0" />
        <path
           style="fill:none;fill-rule:evenodd;stroke:#000000;stroke-width:3;stroke-linecap:butt;stroke-linejoin:miter;stroke-miterlimit:4;stroke-dasharray:none;stroke-opacity:1"
           d="m 259.8019,707.08889 c -63.43633,45.66109 -89.02491,123.10424 -127.93094,187.50814 -5.43661,13.8384 -33.680573,79.06858 -34.926204,93.92048"
           id="path4311"
           inkscape:connector-curvature="0"
           sodipodi:nodetypes="ccc" />
        <path
           style="opacity:1;fill:#fffbf6;fill-opacity:1;stroke:#000000;stroke-width:2;stroke-miterlimit:4;stroke-dasharray:none;stroke-opacity:1"
           d="m 274.12315,178.54712 c 0.52496,-1.3677 2.93192,-8.9153 5.34881,-16.77245 5.16715,-16.79812 5.75816,-30.59247 2.6885,-62.7506 -3.44165,-36.0552 1.96098,-72.60468 14.46959,-97.88875 7.82673,-15.82042 23.14687,-31.79411 36.83412,-38.40543 l 9.28571,-4.48526 12.85715,2.05481 c 41.1678,6.57941 83.4606,6.53356 116.42857,-0.12622 22.86441,-4.61879 55.76201,-17.97852 68.1591,-27.67945 2.87891,-2.2528 3.82918,-2.29059 10.71428,-0.42606 9.0516,2.45123 21.18615,1.73594 42.55519,-2.5085 20.49471,-4.07078 38.89136,-4.30644 46.38977,-0.59426 12.24291,6.06101 27.0048,44.17918 32.06943,82.80972 0.82407,6.28572 2.81913,25.57143 4.43344,42.85715 3.74047,40.05205 6.81527,59.63807 12.27889,78.21428 0.51887,1.76417 -0.0667,2.5 -1.9896,2.5 -6.46377,0 -26.25926,6.1569 -37.39722,11.6315 -7.19385,3.53596 -12.28251,5.30369 -12.59227,4.37439 -1.03534,-3.10602 -9.2445,-12.49157 -13.02258,-14.88877 -5.88259,-3.73249 -20.62406,-7.03382 -29.81153,-6.67625 -4.81372,0.18736 -12.06037,-0.80915 -17.50119,-2.40665 -14.49998,-4.25737 -42.76944,-3.69729 -57.44047,1.13804 -11.18536,3.68651 -23.9881,10.29431 -23.9881,12.38084 0,1.98696 4.84584,5.6144 8.82747,6.60795 3.66247,0.91391 3.47774,1.13815 -4.28571,5.20201 -4.46226,2.33581 -10.46069,6.52486 -13.32985,9.30899 -3.98518,3.86705 -6.6831,5.19438 -11.42857,5.6227 -3.41655,0.30837 -17.74221,3.38402 -31.8348,6.8348 l -25.62288,6.27411 -5.93182,-6.55189 -5.93181,-6.5519 4.97425,-4.97424 4.97425,-4.97426 -4.33212,-3.87075 c -19.73412,-17.63243 -69.99717,-13.30663 -94.64984,8.14588 -4.4015,3.83015 -9.80702,6.65436 -17.14286,8.95662 -5.89285,1.8494 -14.15577,4.87951 -18.36203,6.73358 -6.7039,2.955 -7.52995,3.06415 -6.69327,0.88432 z"
           id="path7219"
           inkscape:connector-curvature="0" />
        <path
           style="opacity:1;fill:#fffbf6;fill-opacity:1;stroke:#000000;stroke-width:2;stroke-miterlimit:4;stroke-dasharray:none;stroke-opacity:1"
           d="m 431.2317,916.41755 c -4.92867,-15.7758 -4.31579,-85.1283 1.73274,-196.0714 l 0.93461,-17.1429 5.4202,23.5714 c 8.05145,35.0142 14.47985,57.1429 16.60006,57.1429 2.4939,0 2.36139,-1.1834 -1.72977,-15.4455 -1.95819,-6.8264 -6.7959,-26.2331 -10.75047,-43.1259 -3.95459,-16.8929 -7.58802,-31.995 -8.0743,-33.56028 -0.78647,-2.53151 -0.61796,-2.62501 1.52531,-0.84625 4.61329,3.82868 5.13859,-0.41409 0.84313,-6.80986 -8.15888,-12.1483 -10.50803,-21.33964 -16.48217,-64.48886 -2.18952,-15.81418 -3.7662,-21.5633 -10.58062,-38.58051 -1.73048,-4.32143 -4.63025,-13.64286 -6.44392,-20.71429 -7.15778,-27.90778 -18.89343,-48.99741 -51.09278,-91.81653 -40.88304,-54.3668 -50.54743,-73.01412 -57.54928,-111.04061 -2.6554,-14.42127 -4.86007,-47.0154 -4.9306,-72.89462 -0.0439,-16.10391 -1.94631,-37.88017 -3.85923,-44.17488 -0.71318,-2.34682 -0.11059,-2.165 3.83895,1.15833 17.40451,14.64492 47.39023,21.62272 78.67275,18.30747 25.48652,-2.70101 35.09565,-10.23659 50.41904,-39.53916 5.34142,-10.21428 10.07212,-20.74127 10.51265,-23.3933 l 0.80095,-4.82187 2.55312,3.38474 c 4.07987,5.40881 6.02878,14.7545 5.25626,25.20548 -0.49183,6.65346 -3.49242,17.7842 -9.7192,36.05352 -7.39411,21.69428 -9.12427,28.53982 -9.65834,38.21429 -0.51718,9.36847 -0.24764,11.78316 1.31423,11.77323 1.48103,-0.01 2.0106,-2.73567 2.15061,-11.07143 0.16125,-9.60012 1.44149,-14.76738 9.70518,-39.17161 8.68023,-25.63433 9.52173,-29.15479 9.54542,-39.9339 0.0227,-10.33783 -0.50639,-12.85348 -4.21645,-20.04712 -3.71448,-7.20224 -3.94768,-8.31396 -1.87401,-8.93366 13.69671,-4.09314 24.74616,-6.54264 29.48254,-6.53583 l 5.743,0.008 0.0989,8.20603 c 0.35477,29.46828 26.54358,54.50986 61.66393,58.96269 13.90643,1.76316 26.09653,-0.0437 43.98778,-6.52008 21.35566,-7.73044 30.0842,-12.94019 43.12335,-25.73878 13.94377,-13.68654 20.32628,-25.47583 21.46374,-39.64622 l 0.71053,-8.85157 10.19021,-0.0818 c 7.97186,-0.064 13.99976,-1.35356 27.69017,-5.92367 9.625,-3.213 17.5,-5.73726 17.5,-5.60947 0,0.1278 3.21429,9.21165 7.14286,20.18635 3.92857,10.9747 7.14286,20.99058 7.14286,22.25751 0,1.26694 0.92077,4.17015 2.04614,6.45158 1.12539,2.28143 3.73039,10.89805 5.78891,19.14805 2.05852,8.25 4.97692,17.30554 6.48533,20.12343 4.23385,7.90928 4.79067,18.55656 2.13117,40.75125 -1.47107,12.27681 -2.08681,24.28744 -1.57462,30.71429 0.4626,5.80465 0.97312,12.48246 1.1345,14.8396 0.2828,4.13095 -5.6657,31.17875 -17.75116,80.71429 -14.32552,58.71704 -31.91669,96.28144 -56.3491,120.32856 -12.89017,12.6869 -16.58972,15.29708 -37.26832,26.29437 -9.83607,5.231 -17.5,10.1981 -17.5,11.34195 0,1.11932 0.4361,2.03512 0.96912,2.03512 3.28268,0 40.36113,-21.55579 48.19884,-28.0207 29.84382,-24.61657 49.8385,-64.4942 66.5188,-132.66586 3.84872,-15.72954 7.33759,-29.88487 7.75304,-31.4563 1.31403,-4.97024 -0.53772,43.79747 -2.08841,55 -0.8157,5.89286 -1.77931,14.25 -2.14137,18.57143 -0.36206,4.32143 -1.00136,10.10714 -1.42069,12.85714 -0.41931,2.75 -1.14827,18.50067 -1.61988,35.00149 -0.94576,33.08966 0.14958,52.14137 2.99774,52.14137 1.38594,0 1.63409,-6.60897 1.11964,-29.82041 -0.3635,-16.40123 -0.19163,-33.57646 0.38195,-38.16718 l 1.04285,-8.34675 1.8843,4.48141 c 3.00243,7.1407 10.96635,18.92026 19.92579,29.47262 l 8.28886,9.76254 -0.91175,8.80888 c -1.37874,13.32099 -5.98681,30.21438 -14.38953,52.75265 -11.91614,31.96224 -16.91667,41.93467 -48.88228,97.48481 -11.76252,20.44102 -30.29059,66.45599 -35.30909,87.69119 -1.90015,8.0403 -4.60863,15.8936 -6.01883,17.4519 -5.75872,6.3633 -23.51165,18.6598 -35.58481,24.6477 -7.07143,3.5072 -22.40031,10.3142 -34.0642,15.1266 -44.42149,18.3279 -60.02426,28.9687 -74.60131,50.8766 -4.41703,6.6384 -10.98196,14.5923 -14.5887,17.6752 -5.35456,4.5769 -50.16429,31.5308 -52.4187,31.5308 -0.35473,0 -1.69939,-3.375 -2.98813,-7.5 z m 80.76221,-93.1927 c 10.78513,-5.5773 16.55134,-23.8084 17.37737,-54.9424 0.46743,-17.6175 -2.4955,-13.5918 -3.54704,4.8194 -1.48567,26.0123 -4.77283,37.373 -13.04981,45.1014 -3.05448,2.852 -5.45653,3.6192 -11.92475,3.8088 -9.74758,0.2856 -9.18304,0.1528 -8.0998,1.9055 1.34682,2.1792 14.61387,1.7016 19.24403,-0.6927 z m 6.50507,-230.82565 c 19.24112,-5.02367 50.15662,-20.2521 56.40945,-27.78628 3.72644,-4.4901 -0.0544,-3.63283 -8.11988,1.84111 -11.8373,8.0338 -29.20397,16.48103 -43.32438,21.07319 -9.79919,3.18684 -15.58944,4.07478 -30,4.60053 -24.26309,0.88521 -36.67737,-2.37228 -53.83966,-14.12745 -7.08921,-4.8557 -9.74231,-2.9879 -2.97281,2.09289 9.48458,7.11858 25.85927,13.7518 38.95533,15.78041 8.51267,1.31865 31.74072,-0.56291 42.89195,-3.4744 z m -4.83905,-30.66695 c 20.65171,-5.33256 42.62074,-20.96603 57.75538,-41.09953 10.16463,-13.52196 23.54944,-42.65602 35.57277,-77.42947 5.97673,-17.28572 13.8157,-38.04533 17.41993,-46.13246 6.34093,-14.22773 7.10413,-18.29703 2.75462,-14.68724 -2.98318,2.4758 -13.47492,27.98932 -24.12928,58.67684 -11.30018,32.54774 -17.49347,47.55461 -25.35132,61.42857 -15.93523,28.1355 -34.78866,44.82796 -60.66015,53.70731 -9.68034,3.3224 -13.80267,3.9249 -27.12914,3.96508 -27.96857,0.0843 -51.70309,-8.91818 -75.82666,-28.76103 -19.17462,-15.7721 -35.28481,-40.95815 -40.55626,-63.40406 -1.62037,-6.89956 -3.2194,-10.65459 -4.65706,-10.93626 -1.86047,-0.36451 -1.99837,0.60132 -0.91782,6.42857 9.13289,49.25242 54.58559,92.2785 106.21001,100.5397 9.95319,1.59276 28.66542,0.50548 39.51498,-2.29602 z m 104.09864,-78.58522 c 30.31248,-36.95458 36.21798,-44.47927 44.26746,-56.40483 13.83734,-20.50044 22.01137,-38.96183 25.78734,-58.24174 2.50066,-12.76824 0.96086,-44.86131 -2.85874,-59.58293 -3.8491,-14.83529 -11.5031,-38.1989 -13.07296,-39.90476 -3.21003,-3.48813 -2.36073,1.69517 2.82357,17.23245 17.31537,51.89393 15.19254,87.42624 -7.51937,125.86124 -9.5776,16.20801 -18.99909,28.92406 -41.14796,55.53686 -28.82103,34.62968 -40.62193,50.79648 -38.9974,53.42501 0.5528,0.89444 4.12014,-2.97011 8.3461,-9.04146 4.05936,-5.83198 14.12674,-18.82791 22.37196,-28.87984 z M 498.30353,433.95862 c 27.36634,-6.99913 37.60144,-15.63795 67.32724,-56.8268 l 8.5057,-11.78572 8.23527,0 c 6.09229,0 8.23529,-0.51857 8.23529,-1.9928 0,-2.80353 -6.92673,-3.50293 -45,-4.54378 -37.28025,-1.01916 -50.49433,0.41664 -74.4461,8.08908 -12.26029,3.92732 -14.45282,4.23866 -20.00476,2.84066 -11.90327,-2.99729 -26.56587,-3.28669 -44.83486,-0.88493 -9.82143,1.29119 -23.82335,3.10067 -31.11538,4.0211 -10.56706,1.3338 -13.17382,2.11687 -12.84237,3.8578 0.31344,1.64633 2.75296,2.28756 9.90505,2.60354 l 9.48918,0.41926 4.06322,8.15217 c 2.48226,4.98026 8.5185,12.64552 15.51376,19.7005 12.99308,13.10406 27.66966,21.40187 46.41511,26.24213 14.66945,3.78779 35.98727,3.83324 50.55365,0.10786 l 0,-7e-5 z M 352.7975,349.97047 c 0,-12.41884 5.2281,-21.67938 22.38314,-39.64735 7.91158,-8.28649 13.92682,-15.52421 13.3672,-16.08383 -1.79651,-1.79651 -30.20822,28.60943 -34.32586,36.73521 -5.24595,10.35239 -6.83546,27.22875 -2.56455,27.22875 0.62704,0 1.14007,-3.70475 1.14007,-8.23278 z m 252.76884,-3.0847 c -9.21744,-17.54082 -22.5728,-29.99454 -58.8099,-54.83947 -8.79639,-6.031 -16.36389,-10.36605 -16.81666,-9.63345 -0.45277,0.7326 5.77999,5.97211 13.85059,11.64336 27.8115,19.54331 33.57983,24.14652 44.10977,35.20032 5.81021,6.09927 12.69689,15.11844 15.3037,20.04262 2.60683,4.92417 5.35037,8.57561 6.09679,8.1143 0.75127,-0.4643 -0.9158,-5.1641 -3.73429,-10.52768 z m -139.13861,-7.99062 c 12.33058,-2.59382 25.6474,-8.71353 33.46501,-15.37876 3.90581,-3.33006 7.70967,-5.13472 12.01917,-5.7022 7.02307,-0.92484 12.79579,-4.56502 15.45977,-9.74866 4.36099,-8.48573 0.66862,-24.71333 -8.42041,-37.00689 -3.12999,-4.23354 -14.63926,-12.85539 -17.16059,-12.85539 -2.77858,0 -0.86034,4.38168 2.74492,6.27 9.79555,5.13059 18.92131,19.28968 20.05818,31.12132 1.1249,11.70702 -4.74474,18.32296 -16.25605,18.32296 -4.18003,0 -6.57762,1.20687 -11.60645,5.84227 -22.46418,20.70676 -69.18968,22.59606 -88.21871,3.56703 -8.98141,-8.98141 -10.48028,-16.3299 -7.56984,-37.11269 0.20822,-1.48686 -0.40128,-2.97896 -1.35444,-3.31577 -4.89549,-1.72987 -5.56632,25.72279 -0.84525,34.59059 10.31404,19.37334 37.09073,27.84183 67.68469,21.40619 z"
           id="path7221"
           inkscape:connector-curvature="0" />
        <path
           style="opacity:1;fill:#fffbf6;fill-opacity:1;stroke:#000000;stroke-width:2;stroke-miterlimit:4;stroke-dasharray:none;stroke-opacity:1"
           d="m 732.83089,325.02823 c -2.38769,-3.40888 -2.91847,-15.46206 -1.34505,-30.544 l 0.87881,-8.42384 6.8764,0.48814 c 16.69949,1.18547 32.51013,-8.6561 37.65949,-23.44171 5.95154,-17.08896 4.02294,-46.77773 -5.4411,-83.76007 -2.57379,-10.0575 -4.42943,-18.28636 -4.12364,-18.28636 0.30578,0 2.41613,0.96193 4.68967,2.13762 2.66251,1.37683 4.4523,1.6221 5.0289,0.68914 1.12249,-1.81621 -10.13737,-7.03896 -15.26631,-7.0811 -4.91614,-0.0404 -12.12652,6.04706 -14.83195,12.52206 -1.1648,2.78776 -4.03303,12.7153 -6.37384,22.06121 -4.52535,18.06781 -5.84435,21.44927 -10.2612,26.30607 -3.28547,3.61274 -1.09607,5.97151 2.34694,2.5285 4.09746,-4.09745 6.6247,-10.51472 11.40439,-28.95842 6.1453,-23.71325 8.64181,-28.53452 15.92884,-30.76188 2.76277,-0.84447 3.32385,0.53618 8.20192,20.1823 8.56895,34.51101 10.73737,52.69027 8.22011,68.91446 -3.06946,19.78309 -12.00988,30.29281 -27.98074,32.89213 -14.53562,2.36573 -14.52557,2.37702 -14.38508,-16.17055 0.10286,-13.58026 -0.34083,-16.93979 -2.95892,-22.4044 -5.227,-10.91007 -13.99179,-44.22021 -13.94391,-52.99317 0.0801,-14.6809 10.06775,-29.42834 25.17375,-37.17079 7.64329,-3.91751 24.6224,-5.34803 31.46252,-2.65078 8.47816,3.34318 14.20426,8.72335 18.03731,16.94765 3.46843,7.44195 3.77048,9.71544 4.25958,32.06094 0.79504,36.32371 -3.55515,58.77196 -16.41972,84.73054 -7.37823,14.88805 -22.02662,34.24768 -30.02661,39.68381 -6.83763,4.64629 -13.76314,4.8533 -16.81056,0.5025 z"
           id="path7223"
           inkscape:connector-curvature="0" />
        <path
           style="opacity:1;fill:#fffbf6;fill-opacity:1;stroke:#000000;stroke-width:2;stroke-miterlimit:4;stroke-dasharray:none;stroke-opacity:1"
           d="m 521.32131,242.76545 c -24.52908,-7.29431 -42.43517,-25.8773 -46.58963,-48.35083 -1.34327,-7.26642 -1.15467,-8.55589 2.27735,-15.57068 4.50532,-9.20855 14.41609,-18.45847 25.87112,-24.14606 9.38682,-4.66069 9.18088,-4.64884 40.58402,-2.33689 43.16907,3.17817 66.91773,8.41576 80.83078,17.82663 9.82342,6.64462 12.32943,5.07511 6.88396,-4.31141 -5.42701,-9.35469 -18.15314,-21.94408 -27.73803,-27.43999 l -7.83385,-4.49188 7.24383,-0.0134 c 15.35741,-0.0284 29.51941,11.58416 34.33687,28.1556 5.6274,19.3576 -5.4442,42.48079 -28.74087,60.02571 -9.45012,7.11697 -13.94632,9.34296 -37.12555,18.38023 -13.20668,5.14911 -36.73193,6.21855 -50,2.27297 z m 55.71429,-40.16423 c 8.99257,-3.19933 16.30593,-7.85394 14.76356,-9.39632 -0.49942,-0.49942 -4.2659,0.79352 -8.36995,2.8732 -16.46364,8.34276 -39.1889,9.70975 -58.86646,3.54099 -10.38211,-3.25472 -11.09858,-3.34383 -11.09858,-1.38049 0,1.82374 5.32847,3.93149 16.42857,6.49855 12.35842,2.85807 36.13369,1.78087 47.14286,-2.13593 z m 53.57143,-8.57018 c 0,-1.48976 -4.05808,-2.39897 -16.42858,-3.6808 -4.71428,-0.48849 -9.69642,-1.21472 -11.07142,-1.61385 -1.56413,-0.45402 -2.5,0.0488 -2.5,1.34309 0,1.50786 3.00179,2.44749 11.07142,3.46558 15.22712,1.92111 18.92858,2.01615 18.92858,0.48598 z M 525.64614,183.29743 c 12.5661,3.6845 30.86222,3.13667 48.27559,-1.44549 13.51036,-3.55512 14.18318,-3.6005 18.20026,-1.22756 3.10763,1.83572 4.58407,2.05126 5.79008,0.84525 2.24763,-2.24763 -12.94975,-9.7776 -26.97138,-13.36373 -25.60981,-6.54989 -50.35713,-0.73764 -61.59861,14.46728 -4.65734,6.29938 -1.30741,8.38382 3.97409,2.47281 l 3.79766,-4.25032 8.53231,2.50176 z"
           id="path7225"
           inkscape:connector-curvature="0" />
        <path
           style="opacity:1;fill:#fffbf6;fill-opacity:1;stroke:#000000;stroke-width:2;stroke-miterlimit:4;stroke-dasharray:none;stroke-opacity:1"
           d="m 335.83524,256.70663 c -12.12695,-2.0354 -25.67143,-6.82227 -35.04659,-12.38612 -16.22101,-9.62663 -30.07471,-28.27625 -28.00495,-37.6998 0.56344,-2.56533 0.32285,-4.13175 -0.6346,-4.13175 -0.9173,0 -1.54207,-3.19184 -1.54207,-7.87814 0,-7.35584 0.30781,-8.06558 4.64285,-10.70534 5.20272,-3.16813 27.2161,-11.41652 30.4685,-11.41652 1.83051,0 1.8432,0.51208 0.0974,3.92857 -1.10412,2.16072 -2.45742,6.01786 -3.00734,8.57143 -1.38396,6.42652 1.51861,6.12772 10.9839,-1.13072 9.56969,-7.33849 24.89479,-14.76681 36.8147,-17.84465 6.85619,-1.77035 13.25547,-2.23882 24.4583,-1.79052 12.96609,0.51886 16.3572,1.18673 23.3183,4.59249 14.3068,6.99965 20.17172,18.68597 19.0645,37.98739 -0.78303,13.64992 -5.53483,24.39392 -15.40409,34.82921 -9.276,9.808 -17.94767,13.59738 -34.86399,15.23502 -15.17218,1.46878 -21.84073,1.43463 -31.34481,-0.16055 z m -8.79964,-38.44997 c 4.68287,-1.69296 6.40486,-2.88972 5,-3.47492 -2.83548,-1.18114 -14.62251,2.28904 -15.36761,4.52432 -0.77434,2.32303 1.74432,2.06809 10.36761,-1.0494 z m 61.43217,-4.89019 c 11.52468,-2.83307 16.74638,-4.916 15.87173,-6.33122 -0.39884,-0.64534 -6.70538,0.37543 -14.01454,2.26839 -9.69074,2.50975 -18.1249,3.56802 -31.14651,3.90807 -20.56952,0.53715 -20.19065,0.48559 -16.42857,2.23599 4.02785,1.87405 35.44639,0.44377 45.71789,-2.08123 z m -19.8944,-13.91423 c 9.08654,-1.80765 20.82658,-3.08537 28.10508,-3.05879 8.40831,0.0307 12.48554,-0.48396 12.45583,-1.57228 -0.0569,-2.08299 -10.86174,-10.22587 -16.40219,-12.3612 -12.8242,-4.94251 -30.98066,-4.05214 -44.11961,2.16358 -7.62056,3.6051 -19.43403,13.36067 -19.43403,16.04863 0,2.74797 23.03506,2.03464 39.39492,-1.21994 z"
           id="path7227"
           inkscape:connector-curvature="0" />
        <path
           style="opacity:1;fill:#fffbf6;fill-opacity:1;stroke:#000000;stroke-width:2;stroke-miterlimit:4;stroke-dasharray:none;stroke-opacity:1"
           d="m 285.97142,344.98745 c -4.87873,-7.44587 -11.02929,-21.18118 -13.15064,-29.36773 -4.30952,-16.63099 -5.14132,-23.9643 -7.2418,-63.84505 -1.15872,-22 -2.49359,-41.40287 -2.96638,-43.11749 -0.7193,-2.60863 -0.38081,-2.99229 2.07371,-2.35042 1.96157,0.51297 3.69147,3.04965 5.22186,7.65721 1.25869,3.78957 4.31642,9.66869 6.79495,13.0647 2.47853,3.39602 4.67265,7.13886 4.87581,8.31743 0.20317,1.17857 1.0387,5.35715 1.85673,9.28572 0.81803,3.92857 2.10222,24.82143 2.85374,46.42857 0.75153,21.60714 1.7839,43.30357 2.29416,48.21428 0.51026,4.91072 0.60536,8.92858 0.21133,8.92858 -0.39402,0 -1.66459,-1.44711 -2.82347,-3.2158 z"
           id="path7229"
           inkscape:connector-curvature="0" />
        <path
           style="opacity:1;fill:#5e574e;fill-opacity:1;stroke:#000000;stroke-width:2;stroke-miterlimit:4;stroke-dasharray:none;stroke-opacity:1"
           d="m 271.66019,167.84598 c -0.36382,-0.64155 -1.71275,-5.66647 -2.99761,-11.16647 -8.1823,-35.02531 -9.78667,-63.54026 -5.30491,-94.28571 4.00995,-27.50875 8.94266,-49.643 15.36078,-68.92745 18.77835,-56.42306 50.42205,-102.11977 91.51452,-132.15626 13.80521,-10.09089 41.35237,-23.17134 58.2312,-27.6504 13.13943,-3.48675 16.52097,-3.7901 42.14286,-3.78055 17.36,0.006 33.79694,0.84424 43.62008,2.22324 71.79607,10.07897 145.9335,43.66911 180.13666,81.61622 40.96507,45.44922 64.56511,121.8398 64.76657,209.64188 0.0546,23.77686 -0.49163,24.79177 -10.13923,18.84039 -9.55863,-5.8965 -20.63908,-8.27649 -38.77911,-8.32942 l -16.8236,-0.0491 -1.39069,-5.35714 c -0.76487,-2.94643 -2.01071,-7.76786 -2.76853,-10.71429 -2.74354,-10.66715 -5.76165,-33.12571 -8.59107,-63.92857 -5.57094,-60.64887 -10.24763,-82.67361 -23.13418,-108.94992 -7.63975,-15.57782 -11.49785,-19.55389 -20.93816,-21.57848 -11.24727,-2.41211 -20.43646,-1.9899 -42.46104,1.9509 -21.56119,3.85789 -35.67213,4.48215 -45.26292,2.00241 -5.93318,-1.53405 -6.39956,-1.38841 -17.89784,5.58938 -32.13459,19.50109 -66.17382,27.6819 -114.62266,27.54788 -25.3256,-0.0701 -33.09693,-0.64003 -62.43208,-4.57901 l -13.14638,-1.76523 -9.71077,4.88089 c -15.00589,7.54235 -29.72072,22.9764 -38.10076,39.96298 -13.05987,26.47276 -18.57436,63.03947 -15.17906,100.65254 3.40179,37.6849 3.39618,38.1425 -0.66137,53.89328 -3.91445,15.19525 -4.34327,16.33358 -5.4307,14.41605 z"
           id="path7231"
           inkscape:connector-curvature="0" />
        <path
           style="opacity:1;fill:#5e574e;fill-opacity:1;stroke:#000000;stroke-width:2;stroke-miterlimit:4;stroke-dasharray:none;stroke-opacity:1"
           d="m 707.30581,170.0385 c -2.83198,-7.99819 -4.84779,-15.0296 -4.47959,-15.62537 0.93937,-1.51993 19.46749,-5.59076 25.44597,-5.59076 9.1519,0 10.05004,1.3245 3.91279,5.7703 -7.27794,5.27211 -12.54878,12.31867 -16.51631,22.08056 l -3.21382,7.90744 -5.14904,-14.54217 z"
           id="path7233"
           inkscape:connector-curvature="0" />
        <path
           style="opacity:1;fill:#5e574e;fill-opacity:1;stroke:#000000;stroke-width:2;stroke-miterlimit:4;stroke-dasharray:none;stroke-opacity:1"
           d="m 510.49614,145.25565 c -5.43271,-1.16688 -9.88911,-2.87562 -9.88911,-3.79184 0,-0.99187 10.54393,-6.21172 16.76768,-8.30096 12.85159,-4.31414 28.88833,-6.09383 42.16089,-4.67885 8.58936,0.91571 20.10716,3.35603 20.75015,4.39641 0.22308,0.36093 0.2614,0.65624 0.0852,0.65624 -0.923,0 -42.32772,7.24701 -46.84794,8.19973 -4.79705,1.01107 -14.94529,3.49632 -17.3241,4.24259 -0.52195,0.16374 -3.08819,-0.16175 -5.70275,-0.72332 z"
           id="path7235"
           inkscape:connector-curvature="0" />
        <path
           style="opacity:1;fill:#5e574e;fill-opacity:1;stroke:#000000;stroke-width:2;stroke-miterlimit:4;stroke-dasharray:none;stroke-opacity:1"
           d="m 620.97388,163.46772 c -9.98859,-5.45818 -27.57345,-10.08266 -47.15257,-12.40019 -5.10714,-0.60452 -18.41808,-1.74114 -29.57986,-2.52582 -11.16179,-0.78468 -20.4106,-1.54314 -20.55292,-1.68546 -0.44351,-0.44351 13.56666,-3.24671 35.13278,-7.02949 11.39286,-1.99836 22.48214,-3.95713 24.64286,-4.35284 3.73871,-0.6847 4.20071,-0.59368 9.55962,1.88349 8.19966,3.7903 17.17706,10.00637 23.32821,16.15274 4.88742,4.88363 10.4782,11.95866 9.85959,12.47712 -0.13608,0.11405 -2.49306,-1.01975 -5.23771,-2.51955 z"
           id="path7237"
           inkscape:connector-curvature="0" />
        <path
           style="opacity:1;fill:#5e574e;fill-opacity:1;stroke:#000000;stroke-width:2;stroke-miterlimit:4;stroke-dasharray:none;stroke-opacity:1"
           d="m 318.7386,165.09906 c 1.06527,-1.72364 13.34319,-9.30547 18.64009,-11.51057 16.61616,-6.91733 37.10137,-8.86152 53.10234,-5.03979 5.8466,1.39642 13.93854,5.00405 17.26265,7.6962 l 1.7795,1.4412 -1.42236,1.57985 c -0.7823,0.86891 -2.76735,2.50765 -4.41123,3.64164 l -2.98886,2.0618 -6.29685,-2.09527 c -10.27592,-3.41928 -22.99797,-4.51188 -33.79685,-2.90254 -2.55358,0.38056 -8.33929,1.02203 -12.85715,1.42549 -7.60792,0.67943 -23.62949,3.01769 -27.73188,4.04732 -1.19496,0.29992 -1.6091,0.18814 -1.2794,-0.34533 z"
           id="path7239"
           inkscape:connector-curvature="0" />
        <path
           style="opacity:1;fill:#5e574e;fill-opacity:1;stroke:#000000;stroke-width:2;stroke-miterlimit:4;stroke-dasharray:none;stroke-opacity:1"
           d="m 307.74988,182.10601 c 0,-1.47922 3.49563,-8.18966 5.50734,-10.57226 1.81966,-2.15515 2.70581,-2.50287 10.20695,-4.00521 4.51786,-0.90484 9.98214,-1.86195 12.14286,-2.12691 l 3.92857,-0.48174 -6.78572,3.09189 c -7.85169,3.5776 -14.57005,7.39894 -19.64285,11.17267 -4.75791,3.53947 -5.35715,3.86626 -5.35715,2.92156 z"
           id="path7241"
           inkscape:connector-curvature="0" />
        <path
           style="opacity:1;fill:#1b152c;fill-opacity:1;stroke:#000000;stroke-width:2;stroke-miterlimit:4;stroke-dasharray:none;stroke-opacity:1"
           d="m 418.46087,186.38584 c -0.4968,-1.19939 -0.77965,-2.29013 -0.62856,-2.42386 0.41963,-0.37142 43.57141,-10.84569 51.86689,-12.5897 4.01855,-0.84485 7.61208,-1.42669 7.98563,-1.293 0.37354,0.1337 -0.30937,1.87965 -1.51759,3.8799 l -2.19677,3.6368 -5.78886,0.085 c -7.09427,0.10414 -12.12978,1.13918 -29.8469,6.13496 -7.58951,2.14005 -14.96269,4.08441 -16.38484,4.32081 -2.37712,0.39515 -2.65859,0.2539 -3.489,-1.75089 z"
           id="path7243"
           inkscape:connector-curvature="0" />
        <path
           style="opacity:1;fill:#1b152c;fill-opacity:1;stroke:#000000;stroke-width:2;stroke-miterlimit:4;stroke-dasharray:none;stroke-opacity:1"
           d="m 644.3155,163.51923 c -1.36218,-0.8305 -2.92519,-2.69644 -3.69044,-4.40567 l -1.32747,-2.96501 1.6361,-1.28696 c 5.9043,-4.64433 19.73984,-10.46466 32.89496,-13.83824 22.28997,-5.71618 46.64995,-6.25478 62.16574,-1.37446 4.59466,1.44519 12.63342,5.45011 12.97072,6.46203 0.13134,0.39399 -1.32451,1.21627 -3.23521,1.82729 -2.87407,0.91909 -3.77405,0.95372 -5.21155,0.20055 -3.12439,-1.63704 -10.72514,-2.61387 -16.3399,-2.09996 -5.10198,0.46698 -23.763,4.72075 -26.78571,6.1058 -4.00465,1.83498 -25.29746,8.88895 -32.3697,10.72356 -9.98225,2.58949 -17.15809,2.81511 -20.70754,0.65107 z"
           id="path7245"
           inkscape:connector-curvature="0" />
        <path
           style="opacity:1;fill:#1b152c;fill-opacity:1;stroke:#000000;stroke-width:2;stroke-miterlimit:4;stroke-dasharray:none;stroke-opacity:1"
           d="m 263.10862,202.41137 c -3.2143,-1.67599 -4.60807,-3.15523 -6.67936,-7.089 -1.62838,-3.09259 -1.88139,-4.44034 -1.88709,-10.05216 -0.006,-5.87753 0.17597,-6.75659 1.95467,-9.44437 2.15734,-3.25997 4.50843,-4.73093 8.55968,-5.3554 2.62466,-0.40457 2.67587,-0.36671 3.48704,2.57781 0.92908,3.37248 0.99225,5.30038 0.30856,9.41698 -0.26099,1.57142 -0.65842,6.95535 -0.88318,11.96428 -0.44976,10.02288 -0.56933,10.21924 -4.86032,7.98186 z"
           id="path7247"
           inkscape:connector-curvature="0" />
        <path
           style="opacity:1;fill:#1b152c;fill-opacity:1;stroke:#000000;stroke-width:2;stroke-miterlimit:4;stroke-dasharray:none;stroke-opacity:1"
           d="m 373.51861,188.9282 c -0.88551,-2.84737 -1.60543,-5.46114 -1.59983,-5.80838 0.006,-0.35281 0.63608,-0.63134 1.42888,-0.63134 0.78029,0 1.78502,0.2841 2.23275,0.63134 1.75197,1.35876 2.67346,9.20677 1.14969,9.7915 -0.4151,0.15928 -0.62897,0.49308 -0.47527,0.74176 0.15369,0.24868 -0.0368,0.45215 -0.42338,0.45215 -0.44995,0 -1.2821,-1.86268 -2.31284,-5.17703 z"
           id="path7249"
           inkscape:connector-curvature="0" />
        <path
           style="opacity:1;fill:#1b152c;fill-opacity:1;stroke:#000000;stroke-width:2;stroke-miterlimit:4;stroke-dasharray:none;stroke-opacity:1"
           d="m 553.75643,181.50083 c 0,-0.25153 -0.49609,-0.52995 -1.10242,-0.61872 -2.04982,-0.3001 -2.25246,-3.41618 -0.60994,-9.37904 0.62131,-2.25553 0.91077,-2.65165 1.9377,-2.65165 1.49591,0 2.80512,0.47854 2.80512,1.02534 0,0.2267 0.66513,1.07732 1.47808,1.89027 2.6048,2.6048 2.53324,7.12091 -0.1402,8.84796 -1.37015,0.88511 -4.36834,1.49311 -4.36834,0.88584 z"
           id="path7251"
           inkscape:connector-curvature="0" />
        <path
           style="opacity:1;fill:#29574a;fill-opacity:1;stroke:#000000;stroke-width:2;stroke-miterlimit:4;stroke-dasharray:none;stroke-opacity:1"
           d="m 564.57084,177.81246 c 0.20237,-1.34948 0.0425,-3.08109 -0.42921,-4.64838 -0.41344,-1.37377 -0.65182,-2.59765 -0.52973,-2.71974 0.20619,-0.20619 5.85048,0.77852 6.06847,1.05872 0.054,0.0694 0.24255,1.74733 0.41891,3.72863 l 0.32067,3.60234 -2.24197,0.56453 c -3.78335,0.95266 -3.9752,0.86831 -3.60714,-1.5861 z"
           id="path7253"
           inkscape:connector-curvature="0" />
        <path
           style="opacity:1;fill:#29574a;fill-opacity:1;stroke:#000000;stroke-width:2;stroke-miterlimit:4;stroke-dasharray:none;stroke-opacity:1"
           d="m 542.63921,180.84698 c -0.55046,-0.90282 -1.00042,-2.09607 -0.99991,-2.65165 0.003,-3.46704 3.28222,-9.34391 5.21349,-9.34391 1.1971,0 1.19827,0.006 0.5162,2.63545 -0.81006,3.12286 -0.89864,8.64596 -0.16078,10.02466 0.47691,0.89113 0.34316,0.97695 -1.52266,0.97695 -1.76572,0 -2.18239,-0.22452 -3.04634,-1.6415 z"
           id="path7255"
           inkscape:connector-curvature="0" />
        <path
           style="opacity:1;fill:#29574a;fill-opacity:1;stroke:#000000;stroke-width:2;stroke-miterlimit:4;stroke-dasharray:none;stroke-opacity:1"
           d="m 381.88391,189.4825 c -0.15716,-2.04107 -0.44227,-4.22241 -0.63357,-4.84745 -0.40198,-1.31341 0.3643,-1.45676 3.35144,-0.62697 1.98078,0.55023 2.98455,2.07757 2.98455,4.54131 0,1.83678 -0.97396,4.04061 -1.7857,4.04061 -0.33737,0 -1.29236,0.1358 -2.12219,0.30176 l -1.50879,0.30176 -0.28574,-3.71102 z"
           id="path7257"
           inkscape:connector-curvature="0" />
        <path
           style="opacity:1;fill:#29574a;fill-opacity:1;stroke:#000000;stroke-width:2;stroke-miterlimit:4;stroke-dasharray:none;stroke-opacity:1"
           d="m 363.07994,195.5222 c -2.38645,-1.87718 -3.63906,-6.01576 -2.86956,-9.48095 0.36796,-1.65699 0.54974,-1.784 3.40201,-2.37707 1.6573,-0.3446 3.14077,-0.63646 3.2966,-0.64859 0.15583,-0.0121 0.58867,1.17121 0.96188,2.62962 0.3732,1.4584 1.18163,4.18902 1.79651,6.06804 l 1.11796,3.41639 -1.06969,0.24133 c -5.19428,1.17185 -5.33416,1.17503 -6.63571,0.15123 z"
           id="path7259"
           inkscape:connector-curvature="0" />
        <path
           style="opacity:1;fill:#ffffff;fill-opacity:1;stroke:#000000;stroke-width:2;stroke-miterlimit:4;stroke-dasharray:none;stroke-opacity:1"
           d="m 337.11064,198.20653 c -1.14698,-0.32029 -0.95239,-0.56614 2.85848,-3.61145 4.51873,-3.61098 9.3399,-6.3815 14.45571,-8.30709 l 3.362,-1.26545 0,3.29488 c 0,3.30491 0.87579,6.26439 2.32899,7.87016 0.70092,0.77451 0.68697,0.88273 -0.14553,1.12893 -3.90384,1.1545 -19.70898,1.76986 -22.85965,0.89002 z"
           id="path7261"
           inkscape:connector-curvature="0" />
        <path
           style="opacity:1;fill:#ffffff;fill-opacity:1;stroke:#000000;stroke-width:2;stroke-miterlimit:4;stroke-dasharray:none;stroke-opacity:1"
           d="m 389.85918,188.80193 c 0,-1.80565 0.0789,-3.28299 0.17541,-3.28299 0.58702,0 8.16563,4.24962 9.42104,5.28273 l 1.51523,1.24693 -5.55584,0.0182 -5.55584,0.0182 0,-3.283 z"
           id="path7263"
           inkscape:connector-curvature="0" />
        <path
           style="opacity:1;fill:#ffffff;fill-opacity:1;stroke:#000000;stroke-width:2;stroke-miterlimit:4;stroke-dasharray:none;stroke-opacity:1"
           d="m 534.52282,181.47303 c -3.13808,-0.53111 -9.36338,-2.26955 -11.8122,-3.2986 -1.92693,-0.80974 -1.96574,-0.87152 -1.01015,-1.60776 3.33997,-2.57331 12.43082,-6.03169 18.29422,-6.95956 l 2.14816,-0.33994 -1.31273,2.61358 c -1.36351,2.7147 -1.84396,6.79592 -1.05552,8.96623 0.37741,1.0389 0.26906,1.13132 -1.26269,1.07702 -0.92155,-0.0327 -2.71664,-0.23561 -3.98909,-0.45097 z"
           id="path7265"
           inkscape:connector-curvature="0" />
        <path
           style="opacity:1;fill:#ffffff;fill-opacity:1;stroke:#000000;stroke-width:2;stroke-miterlimit:4;stroke-dasharray:none;stroke-opacity:1"
           d="m 572.76259,176.80637 c -0.44566,-1.66298 -0.38437,-4.41942 0.0983,-4.41942 0.76316,0 7.87307,2.53181 8.29512,2.95386 0.35611,0.35611 -6.20296,2.60198 -7.59907,2.60198 -0.26937,0 -0.62682,-0.51139 -0.79432,-1.13642 z"
           id="path7267"
           inkscape:connector-curvature="0" />
        <path
           style="opacity:1;fill:#ffffff;fill-opacity:1;stroke:#000000;stroke-width:2;stroke-miterlimit:4;stroke-dasharray:none;stroke-opacity:1"
           d="m 454.50894,411.80784 c -9.9474,-0.77694 -19.51251,-2.70767 -28.01344,-5.65455 -6.41644,-2.22427 -16.81046,-7.56258 -22.22444,-11.41434 -4.56162,-3.24534 -15.67457,-13.40261 -15.67457,-14.32659 0,-0.58645 19.19515,-0.54211 30.55711,0.0706 12.12836,0.65402 22.1367,1.81158 30.76699,3.55852 4.13624,0.83725 7.18464,1.23722 7.28314,0.95559 0.0932,-0.26639 0.36878,-0.36114 0.61244,-0.21054 0.24368,0.15059 8.80425,-1.88254 19.0235,-4.51807 36.52892,-9.42077 59.55625,-13.64812 80.46983,-14.77264 l 6.22984,-0.33497 -1.19474,1.72413 c -2.21277,3.19325 -14.35647,14.85764 -19.19477,18.43715 -16.74058,12.38513 -35.62991,20.62549 -56.03801,24.44625 -10.50228,1.96621 -23.29512,2.76647 -32.60288,2.03948 z"
           id="path7269"
           inkscape:connector-curvature="0" />
        <path
           style="opacity:1;fill:#e39b93;fill-opacity:1;stroke:#000000;stroke-width:2;stroke-miterlimit:4;stroke-dasharray:none;stroke-opacity:1"
           d="m 451.98356,380.9377 c -11.86371,-2.74213 -25.94284,-3.94342 -51.0127,-4.35262 l -19.69798,-0.32151 10.85914,-1.66416 c 31.68225,-4.85527 46.83791,-4.80791 62.882,0.19648 l 3.03045,0.94525 4.79823,-1.94553 c 22.4197,-9.0905 49.97556,-13.22487 81.31728,-12.20052 l 11.36422,0.37142 -8.5863,0.88692 c -21.59545,2.2307 -42.07973,6.39436 -78.08046,15.87075 -6.8313,1.79818 -12.51341,3.24198 -12.62691,3.20844 -0.1135,-0.0335 -2.02464,-0.48126 -4.24697,-0.99492 z"
           id="path7271"
           inkscape:connector-curvature="0" />
        <path
           style="opacity:1;fill:#e39b93;fill-opacity:1;stroke:#000000;stroke-width:2;stroke-miterlimit:4;stroke-dasharray:none;stroke-opacity:1"
           d="m 459.39277,432.15931 c -21.11101,-3.3222 -39.97263,-12.37753 -54.47083,-26.15106 -5.42633,-5.1551 -12.78992,-14.14236 -12.78992,-15.61009 0,-0.34 2.84105,1.68778 6.31345,4.50618 7.84636,6.36855 23.93434,14.30784 34.53348,17.04201 12.90621,3.3293 28.77543,4.5517 41.62453,3.20632 32.4641,-3.39918 59.79157,-15.50417 80.92071,-35.84466 4.02799,-3.87764 7.31965,-6.6325 7.31481,-6.12192 -0.005,0.51058 -5.75775,8.59314 -12.78423,17.96124 -9.89272,13.18954 -14.50642,18.4131 -20.44679,23.14954 -14.63535,11.66923 -32.19796,17.82639 -52.62315,18.44878 -6.38921,0.19469 -14.30564,-0.0692 -17.59206,-0.58634 z"
           id="path7273"
           inkscape:connector-curvature="0" />
        <path
           style="opacity:1;fill:#56456e;fill-opacity:1;stroke:#000000;stroke-width:2.85714293;stroke-miterlimit:4;stroke-dasharray:none;stroke-opacity:1"
           d="m 99.917715,984.22055 c 3.679275,-15.3707 31.058515,-83.6895 39.034305,-97.4013 3.00223,-5.1614 14.30367,-26.0983 25.11431,-46.5264 23.55698,-44.5141 34.99073,-63.8095 49.09858,-82.858 18.48519,-24.9588 49.81608,-53.5918 69.19429,-63.23602 5.09113,-2.53375 20.40733,-8.53945 34.03602,-13.346 25.16477,-8.87505 33.02514,-12.26238 40.21881,-17.33178 2.20594,-1.55453 4.25027,-2.58697 4.54294,-2.29432 0.29268,0.29268 -0.68987,5.02352 -2.18342,10.513 -1.49355,5.48948 -4.79305,18.28863 -7.33222,28.44258 -4.32406,17.29154 -5.05333,18.96074 -11.50597,26.33454 -32.00024,36.5685 -42.66366,85.0113 -25.36747,115.2419 5.18221,9.0576 15.54544,18.9563 26.05607,24.8881 4.90103,2.766 14.5703,11.3181 25.57247,22.6179 17.58713,18.0628 28.60397,32.6371 34.15267,45.1809 2.74589,6.2075 5.64939,8.6809 5.60543,4.7749 -0.0341,-3.0278 -11.12146,-22.3373 -18.13533,-31.5838 -10.42631,-13.7453 -37.69251,-40.0734 -45.50087,-43.9354 -16.436,-8.1293 -29.41226,-26.8645 -32.18953,-46.4756 -2.46628,-17.4151 3.06273,-41.9739 13.94336,-61.9337 5.25099,-9.6326 19.0102,-29.0828 19.92576,-28.1672 0.96227,0.9623 -6.55202,24.9826 -11.44376,36.5813 -2.66081,6.3091 -7.47971,15.4272 -10.70869,20.2627 -5.91957,8.8646 -6.92054,11.3232 -4.61007,11.3232 1.89923,0 12.30827,-16.5796 17.23207,-27.4474 5.12842,-11.3193 18.71082,-56.9333 26.70852,-89.69549 3.07197,-12.58421 9.55566,-26.31341 23.08987,-48.8928 13.29516,-22.18058 16.9509,-29.20627 20.25474,-38.92601 l 2.42626,-7.13793 3.10017,8.28596 c 4.24774,11.35313 5.66202,18.23061 8.86279,43.09935 1.5169,11.78572 4.43747,27.85715 6.49015,35.71429 3.65083,13.97449 3.71248,14.97043 2.82969,45.71433 -0.49634,17.2857 -1.83241,49.4285 -2.96906,71.4285 -1.13663,22 -2.12733,54.4643 -2.20154,72.1429 -0.10486,24.9825 -0.49131,31.3472 -1.7347,28.5714 -9.02409,-20.1462 -29.64484,-61.3238 -36.26637,-72.4203 -15.78592,-26.4544 -42.15162,-58.4121 -41.90594,-50.794 0.019,0.5893 4.53938,6.2143 10.04528,12.5 12.0069,13.7075 23.95559,30.8713 34.31044,49.2857 10.38312,18.4647 37.03829,75.6866 37.03829,79.5119 0,1.6999 1.27981,7.1659 2.84403,12.1466 l 2.84401,9.0558 -4.28547,3.5715 c -5.17727,4.3146 -5.7484,7.8995 -1.04543,6.5618 1.76786,-0.5028 6.26746,-1.5253 9.99912,-2.2723 7.45015,-1.4913 10.28694,-2.7876 28.21517,-12.8932 6.67857,-3.7645 14.39286,-7.5653 17.14286,-8.4461 86.48861,-27.7021 110.24751,-37.4368 132.59802,-54.3293 17.05015,-12.8864 30.42738,-29.9794 36.09495,-46.1209 1.83093,-5.2146 4.12825,-7.1683 4.19958,-3.5715 0.0194,0.9822 2.3134,4.8912 5.09762,8.6868 3.70018,5.0444 5.70857,6.6527 7.46458,5.9779 9.77863,-3.7579 32.73639,-6.9415 72.40239,-10.0402 42.31211,-3.3055 63.57143,-7.3357 63.57143,-12.0516 0,-2.0259 -2.41797,-1.8617 -9.64189,0.6548 -7.04586,2.4545 -30.97008,5.359 -70.35811,8.5418 -15.32143,1.2381 -34.28572,3.5633 -42.14286,5.1672 l -14.28571,2.9161 -3.87622,-4.6312 c -8.63051,-10.3113 -10.54434,-28.1365 -5.34823,-49.8124 1.59413,-6.65 7.84135,-24.65 13.88273,-40 8.3685,-21.2629 14.36053,-33.69259 25.16173,-52.19489 28.26993,-48.42597 46.76727,-89.58504 55.19323,-122.81228 10.81221,-42.6373 4.62386,-75.54566 -18.12636,-96.3921 l -9.02728,-8.27188 0.90722,-6.61901 c 1.10646,-8.07244 1.90033,-8.16545 16.23318,-1.90195 14.78171,6.45966 27.36848,15.31609 40,28.14522 13.98898,14.20783 23.52128,27.73581 46.09445,65.416 20.57847,34.35057 26.04247,42.71772 39.05313,59.8029 15.34123,20.14563 15.53363,30.82805 1.34329,74.58386 -8.09989,24.97594 -11.4762,41.01963 -8.95966,42.57503 2.05836,1.2721 3.44719,-1.8996 4.40673,-10.06393 0.47684,-4.0572 4.33268,-17.97087 8.56853,-30.91929 4.23585,-12.94841 8.16124,-26.27471 8.7231,-29.614 l 1.02157,-6.07142 7.90537,0 c 20.55824,0 53.30657,7.39775 72.9738,16.48457 12.00821,5.54814 11.72683,5.46321 11.72683,3.5395 0,-3.54385 -29.64066,-14.99723 -50.12124,-19.36726 -5.82618,-1.24316 -17.50376,-2.63867 -25.95019,-3.10113 l -15.35714,-0.84086 -0.035,-6.5717 c -0.0503,-9.4733 -2.44372,-18.63955 -6.4638,-24.75535 -1.92563,-2.92959 -3.5012,-5.54745 -3.5012,-5.81747 0,-0.27002 8.51785,3.83344 18.92857,9.1188 30.0399,15.25078 69.03598,31.36578 141.42861,58.44484 l 23.9285,8.95068 0,160.52912 0,160.5291 -478.59861,0 -478.598651,0 0.940376,-3.9286 z"
           id="path7277"
           inkscape:connector-curvature="0" />
      </g>
    </g>
  </g>
</svg>
