<?xml version="1.0" encoding="UTF-8" standalone="no"?>
<!-- Created with Inkscape (http://www.inkscape.org/) -->

<svg
   xmlns:dc="http://purl.org/dc/elements/1.1/"
   xmlns:cc="http://creativecommons.org/ns#"
   xmlns:rdf="http://www.w3.org/1999/02/22-rdf-syntax-ns#"
   xmlns:svg="http://www.w3.org/2000/svg"
   xmlns="http://www.w3.org/2000/svg"
   xmlns:sodipodi="http://sodipodi.sourceforge.net/DTD/sodipodi-0.dtd"
   xmlns:inkscape="http://www.inkscape.org/namespaces/inkscape"
   width="15in"
   height="15in"
   viewBox="0 0 1350 1350"
   id="svg2"
   version="1.1"
   inkscape:version="0.91 r13725"
   sodipodi:docname="trsuch-2.svg">
  <defs
     id="defs4" />
  <sodipodi:namedview
     id="base"
     pagecolor="#ffffff"
     bordercolor="#666666"
     borderopacity="1.0"
     inkscape:pageopacity="0.0"
     inkscape:pageshadow="2"
     inkscape:zoom="0.24748737"
     inkscape:cx="1612.2335"
     inkscape:cy="541.33766"
     inkscape:document-units="px"
     inkscape:current-layer="layer1"
     showgrid="false"
     units="in"
     inkscape:window-width="1536"
     inkscape:window-height="801"
     inkscape:window-x="-8"
     inkscape:window-y="-8"
     inkscape:window-maximized="1">
    <inkscape:grid
       type="xygrid"
       id="grid4944" />
  </sodipodi:namedview>
  <metadata
     id="metadata7">
    <rdf:RDF>
      <cc:Work
         rdf:about="">
        <dc:format>image/svg+xml</dc:format>
        <dc:type
           rdf:resource="http://purl.org/dc/dcmitype/StillImage" />
        <dc:title></dc:title>
      </cc:Work>
    </rdf:RDF>
  </metadata>
  <g
     inkscape:label="Layer 1"
     inkscape:groupmode="layer"
     id="layer1"
     transform="translate(0,297.63785)">
    <path
       style="opacity:1;fill:#db9f9a;fill-opacity:1;stroke:none;stroke-width:2;stroke-miterlimit:4;stroke-dasharray:none;stroke-opacity:1"
       d=""
       id="path4990"
       inkscape:connector-curvature="0"
       transform="translate(0,-297.63785)" />
    <g
       id="g8753"
       transform="translate(-1433.6044,36.284271)">
      <ellipse
         ry="651.57037"
         rx="642.99884"
         cy="340.36218"
         cx="2111.4282"
         id="path8590"
         style="opacity:1;fill:#828792;fill-opacity:1;stroke:#8b5a5a;stroke-width:1.71644437;stroke-miterlimit:4;stroke-dasharray:none;stroke-opacity:1" />
      <g
         id="g7287"
         transform="translate(1613.0877,-33.558949)">
        <path
           style="fill:none;fill-rule:evenodd;stroke:#000000;stroke-width:3.0999999;stroke-linecap:butt;stroke-linejoin:miter;stroke-miterlimit:4;stroke-dasharray:none;stroke-opacity:1"
           d="m 735.46175,152.06085 c 2.12444,-92.540486 -16.30137,-211.257174 -101.6745,-264.08651 -65.03712,-40.4634 -144.46462,-61.25442 -220.81756,-53.3671 -105.37644,21.20787 -165.51512,129.812467 -177.29575,229.269394 -8.05547,36.837056 -0.8769,82.757446 9.46348,118.357526"
           id="path4149"
           inkscape:connector-curvature="0"
           sodipodi:nodetypes="ccccc" />
        <path
           style="fill:none;fill-rule:evenodd;stroke:#000000;stroke-width:3;stroke-linecap:butt;stroke-linejoin:miter;stroke-miterlimit:4;stroke-dasharray:none;stroke-opacity:1"
           d="m 688.19634,208.0128 c -6.41358,-65.42087 91.21751,-78.97759 83.31094,-6.70889 5.70021,47.8687 -11.576,102.06335 -49.1635,133.27265 -43.98888,14.57799 -1.04916,-64.15382 -22.51016,-88.8468 -6.18916,-30.19795 -16.96873,-59.16263 -27.54719,-88.02897"
           id="path4151"
           inkscape:connector-curvature="0" />
        <path
           style="fill:none;fill-rule:evenodd;stroke:#000000;stroke-width:2;stroke-linecap:butt;stroke-linejoin:miter;stroke-miterlimit:4;stroke-dasharray:none;stroke-opacity:1"
           d="M 702.85714,227.21929 C 723.06344,213.17269 710.73319,145.95494 750,169.36215"
           id="path4153"
           inkscape:connector-curvature="0" />
        <path
           style="fill:none;fill-rule:evenodd;stroke:#000000;stroke-width:2;stroke-linecap:butt;stroke-linejoin:miter;stroke-miterlimit:4;stroke-dasharray:none;stroke-opacity:1"
           d="m 738.57143,166.50501 c 10.66494,37.84291 36.95498,129.49638 -29.08666,124.12413 l -6.48277,-1.67798"
           id="path4155"
           inkscape:connector-curvature="0" />
        <path
           style="fill:none;fill-rule:evenodd;stroke:#000000;stroke-width:3;stroke-linecap:butt;stroke-linejoin:miter;stroke-miterlimit:4;stroke-dasharray:none;stroke-opacity:1"
           d="m 233.44888,208.97963 c 9.00909,53.91978 -5.74893,112.43452 34.05112,155.38252"
           id="path4159"
           inkscape:connector-curvature="0"
           sodipodi:nodetypes="cc" />
        <path
           style="fill:none;fill-rule:evenodd;stroke:#000000;stroke-width:3;stroke-linecap:butt;stroke-linejoin:miter;stroke-miterlimit:4;stroke-dasharray:none;stroke-opacity:1"
           d="m 257.02031,239.44138 c 10.41195,41.58868 1.31971,86.30888 10.83683,126.34934"
           id="path4161"
           inkscape:connector-curvature="0"
           sodipodi:nodetypes="cc" />
        <path
           style="fill:none;fill-rule:evenodd;stroke:#000000;stroke-width:3;stroke-linecap:butt;stroke-linejoin:miter;stroke-miterlimit:4;stroke-dasharray:none;stroke-opacity:1"
           d="m 666.06708,142.67105 c -22.63716,-67.74 -4.45766,-146.2592112 -46.41462,-207.955876 -31.54455,-16.435355 -73.22518,12.921825 -102.23113,-1.399346 -58.05283,41.908013 -133.8571,40.244128 -201.29686,28.655219 -61.92317,23.312831 -67.26762,98.902867 -61.9481,155.295713 7.12469,28.06907 -2.46262,46.29379 -10.3524,72.23281"
           id="path4163"
           inkscape:connector-curvature="0" />
        <path
           style="fill:none;fill-rule:evenodd;stroke:#000000;stroke-width:2;stroke-linecap:butt;stroke-linejoin:miter;stroke-miterlimit:4;stroke-dasharray:none;stroke-opacity:1"
           d="m 715.76813,156.15837 c -28.19977,-16.54998 -99.33695,38.93978 -103.97937,5.0756 21.2437,-17.6228 86.80046,-31.33941 113.92553,-9.01468"
           id="path4165"
           inkscape:connector-curvature="0"
           sodipodi:nodetypes="ccc" />
        <path
           style="fill:none;fill-rule:evenodd;stroke:#000000;stroke-width:2;stroke-linecap:butt;stroke-linejoin:miter;stroke-miterlimit:4;stroke-dasharray:none;stroke-opacity:1"
           d="m 600.54841,146.79343 c 36.9899,38.14249 -8.28982,88.14216 -48.25464,98.23932 -43.06239,21.65313 -104.51992,-0.55676 -106.4536,-53.39611 16.09631,-47.22431 79.21082,-42.00405 119.45751,-53.92545 12.19257,-1.31565 25.34173,0.89276 35.06997,8.81484"
           id="path4167"
           inkscape:connector-curvature="0" />
        <path
           style="fill:none;fill-rule:evenodd;stroke:#000000;stroke-width:3;stroke-linecap:butt;stroke-linejoin:miter;stroke-miterlimit:4;stroke-dasharray:none;stroke-opacity:1"
           d="M 606.18347,179.35471 C 571.90956,147.23826 482.02577,162.70927 470.7767,146.95676 512.38219,118.66349 585.01143,131.00447 606.37781,179.31882"
           id="path4169"
           inkscape:connector-curvature="0" />
        <path
           style="fill:none;fill-rule:evenodd;stroke:#000000;stroke-width:3;stroke-linecap:butt;stroke-linejoin:miter;stroke-miterlimit:4;stroke-dasharray:none;stroke-opacity:1"
           d="m 571.04332,186.94824 c -26.31959,-15.84244 -69.25664,-23.62672 -88.89343,6.56599"
           id="path4171"
           inkscape:connector-curvature="0" />
        <path
           style="fill:none;fill-rule:evenodd;stroke:#000000;stroke-width:3;stroke-linecap:butt;stroke-linejoin:miter;stroke-miterlimit:4;stroke-dasharray:none;stroke-opacity:1"
           d="m 491.99888,183.91778 c 21.70873,10.77331 46.92134,5.06121 68.69038,-2.27284"
           id="path4173"
           inkscape:connector-curvature="0" />
        <path
           style="fill:none;fill-rule:evenodd;stroke:#000000;stroke-width:2;stroke-linecap:butt;stroke-linejoin:miter;stroke-miterlimit:4;stroke-dasharray:none;stroke-opacity:1"
           d="m 544.52681,176.0891 1.13642,10.35406"
           id="path4175"
           inkscape:connector-curvature="0" />
        <path
           style="fill:none;fill-rule:evenodd;stroke:#000000;stroke-width:2;stroke-linecap:butt;stroke-linejoin:miter;stroke-miterlimit:4;stroke-dasharray:none;stroke-opacity:1"
           d="m 518.76792,173.94253 c -3.65028,3.27478 -7.23149,11.87899 -1.51523,15.40482"
           id="path4177"
           inkscape:connector-curvature="0" />
        <path
           style="fill:none;fill-rule:evenodd;stroke:#000000;stroke-width:4;stroke-linecap:butt;stroke-linejoin:miter;stroke-miterlimit:4;stroke-dasharray:none;stroke-opacity:1"
           d="m 524.5763,173.94253 c -1.48403,2.92095 -5.07394,15.98628 2.90419,15.15228"
           id="path4179"
           inkscape:connector-curvature="0" />
        <path
           style="fill:none;fill-rule:evenodd;stroke:#000000;stroke-width:4;stroke-linecap:butt;stroke-linejoin:miter;stroke-miterlimit:4;stroke-dasharray:none;stroke-opacity:1"
           d="m 531.14229,174.32133 c 6.11557,1.72738 7.25896,12.86935 0.50508,14.64722"
           id="path4181"
           inkscape:connector-curvature="0" />
        <path
           style="fill:none;fill-rule:evenodd;stroke:#000000;stroke-width:2;stroke-linecap:butt;stroke-linejoin:miter;stroke-miterlimit:4;stroke-dasharray:none;stroke-opacity:1"
           d="m 564.9824,199.57515 c -22.54039,15.18509 -52.28818,14.05929 -76.77159,4.54568"
           id="path4183"
           inkscape:connector-curvature="0" />
        <path
           style="fill:none;fill-rule:evenodd;stroke:#000000;stroke-width:2;stroke-linecap:butt;stroke-linejoin:miter;stroke-miterlimit:4;stroke-dasharray:none;stroke-opacity:1"
           d="m 574.57885,196.03961 c 9.4469,1.61884 18.98063,2.79859 28.53681,3.53554"
           id="path4185"
           inkscape:connector-curvature="0" />
        <path
           style="fill:none;fill-rule:evenodd;stroke:#000000;stroke-width:3;stroke-linecap:butt;stroke-linejoin:miter;stroke-miterlimit:4;stroke-dasharray:none;stroke-opacity:1"
           d="m 373.5585,172.55357 c -32.37363,-13.87794 -70.35693,-0.58951 -95.45942,21.71828"
           id="path4189"
           inkscape:connector-curvature="0" />
        <path
           style="fill:none;fill-rule:evenodd;stroke:#000000;stroke-width:3;stroke-linecap:butt;stroke-linejoin:miter;stroke-miterlimit:4;stroke-dasharray:none;stroke-opacity:1"
           d="m 278.09908,194.52438 c 4.81302,-43.47146 82.75518,-56.44666 107.62625,-31.18825 l -3.94156,4.88774 -8.47781,5.59239"
           id="path4191"
           inkscape:connector-curvature="0" />
        <path
           style="fill:none;fill-rule:evenodd;stroke:#000000;stroke-width:2;stroke-linecap:butt;stroke-linejoin:miter;stroke-miterlimit:4;stroke-dasharray:none;stroke-opacity:1"
           d="m 243.50135,175.07895 c -25.85985,-4.22837 -20.33468,42.17725 3.283,35.1028"
           id="path4195"
           inkscape:connector-curvature="0" />
        <path
           style="fill:none;fill-rule:evenodd;stroke:#000000;stroke-width:2;stroke-linecap:butt;stroke-linejoin:miter;stroke-miterlimit:4;stroke-dasharray:none;stroke-opacity:1"
           d="m 244.00643,189.9787 c -12.25959,53.03472 51.91127,82.5597 96.00809,73.96789 58.25693,4.02319 78.93414,-95.56502 11.51681,-95.61725 -36.64284,-2.60171 -74.65714,5.5466 -107.5249,21.64936 z"
           id="path4197"
           inkscape:connector-curvature="0" />
        <path
           style="fill:none;fill-rule:evenodd;stroke:#000000;stroke-width:3;stroke-linecap:butt;stroke-linejoin:miter;stroke-miterlimit:4;stroke-dasharray:none;stroke-opacity:1"
           d="m 381.13464,201.59545 c -19.70845,-23.36354 -59.7564,-17.28759 -76.7716,6.06092"
           id="path4199"
           inkscape:connector-curvature="0" />
        <path
           style="fill:none;fill-rule:evenodd;stroke:#000000;stroke-width:3;stroke-linecap:butt;stroke-linejoin:miter;stroke-miterlimit:4;stroke-dasharray:none;stroke-opacity:1"
           d="m 382.64987,201.34291 c -25.31057,-7.05579 -50.17721,9.64587 -75.50891,3.78808"
           id="path4201"
           inkscape:connector-curvature="0" />
        <path
           style="fill:none;fill-rule:evenodd;stroke:#000000;stroke-width:2;stroke-linecap:butt;stroke-linejoin:miter;stroke-miterlimit:4;stroke-dasharray:none;stroke-opacity:1"
           d="m 333.40493,188.84227 c -1.69137,4.78001 -1.18706,12.33889 4.29315,14.64722"
           id="path4203"
           inkscape:connector-curvature="0" />
        <path
           style="fill:none;fill-rule:evenodd;stroke:#000000;stroke-width:2;stroke-linecap:butt;stroke-linejoin:miter;stroke-miterlimit:4;stroke-dasharray:none;stroke-opacity:1"
           d="m 359.16382,188.3372 c 5.1395,2.09801 4.51544,12.79197 -2.02031,12.2481"
           id="path4205"
           inkscape:connector-curvature="0" />
        <path
           style="fill:none;fill-rule:evenodd;stroke:#000000;stroke-width:4;stroke-linecap:butt;stroke-linejoin:miter;stroke-miterlimit:4;stroke-dasharray:none;stroke-opacity:1"
           d="m 342.87511,187.32705 c 0.43407,2.41773 3.21199,11.76163 4.16688,14.01586"
           id="path4207"
           inkscape:connector-curvature="0" />
        <path
           style="fill:none;fill-rule:evenodd;stroke:#000000;stroke-width:4;stroke-linecap:butt;stroke-linejoin:miter;stroke-miterlimit:4;stroke-dasharray:none;stroke-opacity:1"
           d="m 351.96648,187.70585 c 0.58019,3.66158 4.18546,10.64005 -0.88388,13.38453"
           id="path4209"
           inkscape:connector-curvature="0" />
        <path
           style="fill:none;fill-rule:evenodd;stroke:#000000;stroke-width:0;stroke-linecap:butt;stroke-linejoin:miter;stroke-miterlimit:4;stroke-dasharray:none;stroke-opacity:1"
           d="m 307.89858,206.39368 c -1.31183,2.52605 -6.19424,12.79593 -7.32361,15.40482"
           id="path4211"
           inkscape:connector-curvature="0" />
        <path
           style="fill:none;fill-rule:evenodd;stroke:#000000;stroke-width:2;stroke-linecap:butt;stroke-linejoin:miter;stroke-miterlimit:4;stroke-dasharray:none;stroke-opacity:1"
           d="m 305.87827,220.78835 c -2.64901,0.66179 -13.08725,3.8606 -15.65736,4.79822"
           id="path4213"
           inkscape:connector-curvature="0" />
        <path
           style="fill:none;fill-rule:evenodd;stroke:#000000;stroke-width:2;stroke-linecap:butt;stroke-linejoin:miter;stroke-miterlimit:4;stroke-dasharray:none;stroke-opacity:1"
           d="m 377.34657,212.95967 c -19.58153,7.26042 -40.90902,9.50846 -61.61931,7.07107"
           id="path4215"
           inkscape:connector-curvature="0" />
        <path
           style="fill:none;fill-rule:evenodd;stroke:#000000;stroke-width:2;stroke-linecap:butt;stroke-linejoin:miter;stroke-miterlimit:4;stroke-dasharray:none;stroke-opacity:1"
           d="m 395.52932,194.52439 c 16.90188,4.2155 -1.78893,22.92755 -5.55585,34.34518"
           id="path4217"
           inkscape:connector-curvature="0"
           sodipodi:nodetypes="cc" />
        <path
           style="fill:none;fill-rule:evenodd;stroke:#000000;stroke-width:2;stroke-linecap:butt;stroke-linejoin:miter;stroke-miterlimit:4;stroke-dasharray:none;stroke-opacity:1"
           d="m 447.29962,184.80166 c -17.45382,-1.75413 -37.53153,8.82002 -54.42196,10.98541"
           id="path4219"
           inkscape:connector-curvature="0"
           sodipodi:nodetypes="cc" />
        <path
           style="fill:none;fill-rule:evenodd;stroke:#000000;stroke-width:2;stroke-linecap:butt;stroke-linejoin:miter;stroke-miterlimit:4;stroke-dasharray:none;stroke-opacity:1"
           d="m 452.85547,174.06879 c -16.9851,2.75809 -45.401,10.50212 -62.12438,14.39468"
           id="path4221"
           inkscape:connector-curvature="0"
           sodipodi:nodetypes="cc" />
        <path
           style="fill:none;fill-rule:evenodd;stroke:#000000;stroke-width:2;stroke-linecap:butt;stroke-linejoin:miter;stroke-miterlimit:4;stroke-dasharray:none;stroke-opacity:1"
           d="M 403.32633,193.08524 C 436.26108,228.14849 387.74651,273.1925 395,312.57643"
           id="path4223"
           inkscape:connector-curvature="0"
           sodipodi:nodetypes="cc" />
        <path
           style="fill:none;fill-rule:evenodd;stroke:#000000;stroke-width:3;stroke-linecap:butt;stroke-linejoin:miter;stroke-miterlimit:4;stroke-dasharray:none;stroke-opacity:1"
           d="m 373.57143,289.71929 c -20.39723,66.2492 76.87196,66.94022 103.9381,32.51998 41.08034,1.80459 21.35451,-47.89084 -2.50953,-56.09141"
           id="path4225"
           inkscape:connector-curvature="0" />
        <path
           style="fill:none;fill-rule:evenodd;stroke:#000000;stroke-width:2;stroke-linecap:butt;stroke-linejoin:miter;stroke-miterlimit:4;stroke-dasharray:none;stroke-opacity:1"
           d="M 504.28572,288.64786 C 532.72836,309.8891 569.28833,327.7511 582.5,362.93358"
           id="path4227"
           inkscape:connector-curvature="0" />
        <path
           style="fill:none;fill-rule:evenodd;stroke:#000000;stroke-width:2;stroke-linecap:butt;stroke-linejoin:miter;stroke-miterlimit:4;stroke-dasharray:none;stroke-opacity:1"
           d="m 361.78571,300.79072 c -15.99154,17.62163 -42.99126,35.5936 -36.07142,63.21429"
           id="path4229"
           inkscape:connector-curvature="0" />
        <path
           style="fill:none;fill-rule:evenodd;stroke:#000000;stroke-width:3;stroke-linecap:butt;stroke-linejoin:miter;stroke-miterlimit:4;stroke-dasharray:none;stroke-opacity:1"
           d="m 431.07143,389.7193 c -30.46188,-7.73274 -62.16546,-4.68195 -93.21428,-6.42858"
           id="path4231"
           inkscape:connector-curvature="0" />
        <path
           style="fill:none;fill-rule:evenodd;stroke:#000000;stroke-width:3;stroke-linecap:butt;stroke-linejoin:miter;stroke-miterlimit:4;stroke-dasharray:none;stroke-opacity:1"
           d="m 431.42857,379.71928 c -31.06558,-10.96122 -63.59246,0.47017 -95,2.85715"
           id="path4233"
           inkscape:connector-curvature="0" />
        <path
           style="fill:none;fill-rule:evenodd;stroke:#000000;stroke-width:3;stroke-linecap:butt;stroke-linejoin:miter;stroke-miterlimit:4;stroke-dasharray:none;stroke-opacity:1"
           d="m 431.25,389.36214 c 40.61912,-10.7556 82.02383,-22.16901 124.46429,-19.99999"
           id="path4235"
           inkscape:connector-curvature="0" />
        <path
           style="fill:none;fill-rule:evenodd;stroke:#000000;stroke-width:3;stroke-linecap:butt;stroke-linejoin:miter;stroke-miterlimit:4;stroke-dasharray:none;stroke-opacity:1"
           d="m 431.07143,380.07643 c 41.80875,-18.66167 88.88961,-15.87344 133.21429,-10.71428"
           id="path4237"
           inkscape:connector-curvature="0" />
        <path
           style="fill:none;fill-rule:evenodd;stroke:#000000;stroke-width:3;stroke-linecap:butt;stroke-linejoin:miter;stroke-miterlimit:4;stroke-dasharray:none;stroke-opacity:1"
           d="m 357.5,383.11215 c 43.94697,58.5231 143.2731,41.3683 182.85714,-13.03572"
           id="path4239"
           inkscape:connector-curvature="0" />
        <path
           style="fill:none;fill-rule:evenodd;stroke:#000000;stroke-width:3;stroke-linecap:butt;stroke-linejoin:miter;stroke-miterlimit:4;stroke-dasharray:none;stroke-opacity:1"
           d="m 357.67857,384.89786 c 26.04372,63.67536 125.48588,77.61372 163.97598,18.21616 8.95879,-11.14204 16.88167,-23.05925 25.48831,-34.46616"
           id="path4241"
           inkscape:connector-curvature="0" />
        <path
           style="fill:none;fill-rule:evenodd;stroke:#000000;stroke-width:3;stroke-linecap:butt;stroke-linejoin:miter;stroke-miterlimit:4;stroke-dasharray:none;stroke-opacity:1"
           d="m 267.65093,364.82175 c 11.0195,84.10278 96.54358,128.89696 110.38581,212.05133 l 4.61313,10.09557"
           id="path4259"
           inkscape:connector-curvature="0"
           sodipodi:nodetypes="ccc" />
        <path
           style="fill:none;fill-rule:evenodd;stroke:#000000;stroke-width:3;stroke-linecap:butt;stroke-linejoin:miter;stroke-miterlimit:4;stroke-dasharray:none;stroke-opacity:1"
           d="m 342.74884,462.71989 c 9.2211,76.33012 105.67444,136.44236 173.45502,89.43253 54.66576,-38.49788 57.04303,-110.585 87.16434,-164.6889"
           id="path4261"
           inkscape:connector-curvature="0" />
        <path
           style="fill:none;fill-rule:evenodd;stroke:#000000;stroke-width:2;stroke-linecap:butt;stroke-linejoin:miter;stroke-miterlimit:4;stroke-dasharray:none;stroke-opacity:1"
           d="m 560.94179,526.86457 c 36.56062,-58.56191 106.98972,-106.81702 100.70989,-183.45182 -1.91608,-23.91662 -8.90685,-46.24396 -17.3723,-68.58124"
           id="path4263"
           inkscape:connector-curvature="0" />
        <path
           style="fill:none;fill-rule:evenodd;stroke:#000000;stroke-width:3;stroke-linecap:butt;stroke-linejoin:miter;stroke-miterlimit:4;stroke-dasharray:none;stroke-opacity:1"
           d="m 705.9779,333.52933 c -20.10366,74.19329 -28.46953,181.40428 -101.3816,225.43806 -10.91524,4.49766 -20.5867,11.69398 -31.0276,15.87943"
           id="path4265"
           inkscape:connector-curvature="0"
           sodipodi:nodetypes="ccc" />
        <path
           style="fill:none;fill-rule:evenodd;stroke:#000000;stroke-width:3;stroke-linecap:butt;stroke-linejoin:miter;stroke-miterlimit:4;stroke-dasharray:none;stroke-opacity:1"
           d="m 699.33269,361.70463 c 5.09242,65.69562 -16.28944,130.85623 -6.56599,196.47467"
           id="path4267"
           inkscape:connector-curvature="0" />
        <path
           style="fill:none;fill-rule:evenodd;stroke:#000000;stroke-width:2;stroke-linecap:butt;stroke-linejoin:miter;stroke-miterlimit:4;stroke-dasharray:none;stroke-opacity:1"
           d="m 691.50401,469.53842 c 6.67946,20.36073 18.43913,39.12012 34.34519,53.53808"
           id="path4269"
           inkscape:connector-curvature="0" />
        <path
           style="fill:none;fill-rule:evenodd;stroke:#000000;stroke-width:3;stroke-linecap:butt;stroke-linejoin:miter;stroke-miterlimit:4;stroke-dasharray:none;stroke-opacity:1"
           d="m 696.55477,434.68815 c 78.73163,18.65304 99.62922,106.55307 145.75018,161.72035 29.45148,31.769 -8.68772,79.6511 -9.63215,116.32415"
           id="path4271"
           inkscape:connector-curvature="0" />
        <path
           style="fill:none;fill-rule:evenodd;stroke:#000000;stroke-width:3;stroke-linecap:butt;stroke-linejoin:miter;stroke-miterlimit:4;stroke-dasharray:none;stroke-opacity:1"
           d="m 692.7667,452.61836 c 48.52658,26.67094 37.09543,90.79708 19.44661,133.17554 -13.83265,42.9377 -38.65156,79.55521 -60.35779,118.35245"
           id="path4273"
           inkscape:connector-curvature="0" />
        <path
           style="fill:none;fill-rule:evenodd;stroke:#000000;stroke-width:3;stroke-linecap:butt;stroke-linejoin:miter;stroke-miterlimit:4;stroke-dasharray:none;stroke-opacity:1"
           d="m 834.28959,585.54007 c 35.63156,27.5224 186.87801,72.38039 228.36121,87.91045"
           id="path4275"
           inkscape:connector-curvature="0"
           sodipodi:nodetypes="cc" />
        <path
           style="fill:none;fill-rule:evenodd;stroke:#000000;stroke-width:2;stroke-linecap:butt;stroke-linejoin:miter;stroke-miterlimit:4;stroke-dasharray:none;stroke-opacity:1"
           d="m 854.3911,634.95085 c 31.93055,0.15018 64.30956,6.67794 92.429,22.2234"
           id="path4277"
           inkscape:connector-curvature="0" />
        <path
           style="fill:none;fill-rule:evenodd;stroke:#000000;stroke-width:2;stroke-linecap:butt;stroke-linejoin:miter;stroke-miterlimit:4;stroke-dasharray:none;stroke-opacity:1"
           d="M 549.32504,568.28083 C 510.29624,598.36757 449.25827,616.7244 407.3986,581.41281"
           id="path4279"
           inkscape:connector-curvature="0" />
        <path
           style="fill:none;fill-rule:evenodd;stroke:#000000;stroke-width:3;stroke-linecap:butt;stroke-linejoin:miter;stroke-miterlimit:4;stroke-dasharray:none;stroke-opacity:1"
           d="m 380.12449,584.94835 c 22.18759,33.91002 6.61234,80.38892 33.8401,112.1269"
           id="path4281"
           inkscape:connector-curvature="0" />
        <path
           style="fill:none;fill-rule:evenodd;stroke:#000000;stroke-width:3;stroke-linecap:butt;stroke-linejoin:miter;stroke-miterlimit:4;stroke-dasharray:none;stroke-opacity:1"
           d="m 379.61941,585.9585 c -9.68486,38.15955 -43.62502,66.04517 -47.98225,106.06605"
           id="path4283"
           inkscape:connector-curvature="0" />
        <path
           style="fill:none;fill-rule:evenodd;stroke:#000000;stroke-width:3;stroke-linecap:butt;stroke-linejoin:miter;stroke-miterlimit:4;stroke-dasharray:none;stroke-opacity:1"
           d="M 341.23361,658.6895 C 309.64,687.31542 260.53219,684.22854 230.62191,715.25805"
           id="path4289"
           inkscape:connector-curvature="0" />
        <path
           style="fill:none;fill-rule:evenodd;stroke:#000000;stroke-width:3;stroke-linecap:butt;stroke-linejoin:miter;stroke-miterlimit:4;stroke-dasharray:none;stroke-opacity:1"
           d="m 400,671.50505 c 11.85123,38.567 17.44748,78.77093 30,117.1428"
           id="path4291"
           inkscape:connector-curvature="0" />
        <path
           style="fill:none;fill-rule:evenodd;stroke:#000000;stroke-width:2;stroke-linecap:butt;stroke-linejoin:miter;stroke-miterlimit:4;stroke-dasharray:none;stroke-opacity:1"
           d="m 502.14286,763.64785 c -1.96636,22.39727 1.57177,74.94571 -35,65"
           id="path4293"
           inkscape:connector-curvature="0" />
        <path
           style="fill:none;fill-rule:evenodd;stroke:#000000;stroke-width:3;stroke-linecap:butt;stroke-linejoin:miter;stroke-miterlimit:4;stroke-dasharray:none;stroke-opacity:1"
           d="m 653.12328,700.97273 c -11.66545,38.50137 -48.68241,94.29848 -14.56292,127.50076 40.09421,-11.8734 83.05417,-7.76362 124.50516,-16.06525 l 6.02582,-2.01755 L 775,807.93355"
           id="path4295"
           inkscape:connector-curvature="0" />
        <path
           style="fill:none;fill-rule:evenodd;stroke:#000000;stroke-width:3;stroke-linecap:butt;stroke-linejoin:miter;stroke-miterlimit:4;stroke-dasharray:none;stroke-opacity:1"
           d="m 625.31074,785.86248 c -42.655,51.96435 -123.70901,41.99624 -155.123,106.80832 -21.17886,21.54487 -52.03593,29.42809 -73.75917,50.2627"
           id="path4297"
           inkscape:connector-curvature="0"
           sodipodi:nodetypes="ccc" />
        <path
           style="fill:none;fill-rule:evenodd;stroke:#000000;stroke-width:2;stroke-linecap:butt;stroke-linejoin:miter;stroke-miterlimit:4;stroke-dasharray:none;stroke-opacity:1"
           d="m 624.59645,810.07645 c -21.53447,70.87881 -103.03087,84.27139 -163.40993,106.067 -22.27801,3.39198 -40.58241,26.68009 -62.52843,24.01968"
           id="path4299"
           inkscape:connector-curvature="0" />
        <path
           style="fill:none;fill-rule:evenodd;stroke:#000000;stroke-width:3;stroke-linecap:butt;stroke-linejoin:miter;stroke-miterlimit:4;stroke-dasharray:none;stroke-opacity:1"
           d="m 405.0805,692.30598 c 0.11303,74.94265 -10.13409,147.6978 -4.13945,222.23441 l 2.47074,9.79214 3.64441,9.43786"
           id="path4301"
           inkscape:connector-curvature="0"
           sodipodi:nodetypes="cccc" />
        <path
           style="fill:none;fill-rule:evenodd;stroke:#000000;stroke-width:2;stroke-linecap:butt;stroke-linejoin:miter;stroke-miterlimit:4;stroke-dasharray:none;stroke-opacity:1"
           d="m 331.34191,691.8157 c -11.55313,36.67661 -15.7074,77.32719 -40.62762,108.26075"
           id="path4303"
           inkscape:connector-curvature="0" />
        <path
           style="fill:none;fill-rule:evenodd;stroke:#000000;stroke-width:2;stroke-linecap:butt;stroke-linejoin:miter;stroke-miterlimit:4;stroke-dasharray:none;stroke-opacity:1"
           d="m 320.48405,727.52128 c -39.75375,39.96554 -62.98189,118.07631 1.17819,146.71433 22.20018,20.89 45.6549,42.44424 56.90919,71.55509"
           id="path4307"
           inkscape:connector-curvature="0" />
        <path
           style="fill:none;fill-rule:evenodd;stroke:#000000;stroke-width:2;stroke-linecap:butt;stroke-linejoin:miter;stroke-miterlimit:4;stroke-dasharray:none;stroke-opacity:1"
           d="m 317.85714,770.79075 c 40.43019,39.14144 60.98427,92.66949 84.40826,142.56125"
           id="path4309"
           inkscape:connector-curvature="0" />
        <path
           sodipodi:nodetypes="cc"
           style="fill:none;fill-rule:evenodd;stroke:#000000;stroke-width:3;stroke-linecap:butt;stroke-linejoin:miter;stroke-miterlimit:4;stroke-dasharray:none;stroke-opacity:1"
           d="M 233.57143,712.93355 C 174.22429,776.85502 119.61551,811.36476 112.14285,893.6479"
           id="path4311"
           inkscape:connector-curvature="0" />
      </g>
      <path
         transform="translate(0,-297.63785)"
         inkscape:connector-curvature="0"
         id="path8592"
         d="m 2098.8748,1281.4835 c -0.3319,-0.29 -12.8768,-1.0705 -27.8775,-1.7346 -44.9844,-1.9913 -113.034,-13.5659 -151.0437,-25.691 -18.3765,-5.8621 -32.0985,-10.4796 -35.8346,-12.0583 -7.9962,-3.3789 -30.4292,-12.342 -36.3654,-14.5298 -21.6022,-7.9617 -84.7518,-43.1072 -109.7504,-61.0808 l -10.7554,-7.7329 1.3419,-10.3102 c 1.7653,-13.5632 11.9876,-44.3198 18.5349,-55.767 11.1768,-19.5416 29.2023,-40.8339 67.6816,-79.9477 44.7435,-45.48145 47.6801,-47.5442 87.4956,-61.46043 13.334,-4.66046 29.1135,-11.08073 35.0656,-14.26725 10.5625,-5.65484 10.7916,-5.68659 9.5568,-1.32569 -0.6957,2.4574 -2.5914,10.37738 -4.2126,17.59997 -6.38,28.42388 -8.6075,33.96925 -18.6113,46.33279 -28.0378,34.65161 -38.4032,80.79701 -24.3088,108.22051 5.7197,11.1289 16.312,22.076 28.8684,29.8353 4.4965,2.7786 15.3183,12.2031 24.0485,20.9434 13.4933,13.5088 21.022,23.4067 36.8528,48.4499 1.8653,2.9508 2.4333,3.1151 2.5254,0.7306 0.4652,-12.0472 -40.705,-60.1639 -64.8334,-75.7725 -14.5779,-9.4304 -24.1885,-21.524 -27.9958,-35.2286 -3.84,-13.822 -2.3551,-34.2682 3.7656,-51.8507 5.733,-16.4688 24.618,-47.96806 26.0975,-43.5294 1.841,5.523 -12.8657,42.2284 -22.2474,55.5257 -4.4935,6.3688 -3.1481,10.3557 1.4448,4.2818 5.2744,-6.975 16.6437,-29.9187 19.9493,-40.2586 3.3992,-10.6325 15.5273,-54.47993 20.554,-74.30979 3.4671,-13.67734 7.0426,-21.04935 24.5836,-50.68648 7.1487,-12.07841 14.6171,-26.08365 16.5965,-31.12277 1.9923,-5.072 4.2119,-8.17021 4.972,-6.94026 3.9852,6.44825 7.5587,21.3999 10.3868,43.4594 1.7378,13.55508 5.0059,31.98838 7.2624,40.9629 3.8883,15.46489 3.9857,18.63113 1.8648,60.6092 -1.2308,24.3605 -2.7937,69.6547 -3.473,100.6539 l -1.2351,56.3621 -16.5965,-34.1387 c -9.1281,-18.7764 -22.0998,-42.321 -28.8261,-52.3215 -13.9886,-20.7979 -31.6179,-41.0965 -33.8304,-38.9528 -0.825,0.7994 3.4985,6.8524 9.6077,13.4512 6.1093,6.5987 15.2498,18.2282 20.3123,25.8432 19.0012,28.5818 48.9586,91.5037 53.9548,113.3254 2.3247,10.1532 2.221,10.8043 -2.3046,14.4733 -2.6063,2.113 -4.2835,4.2996 -3.727,4.8591 2.5996,2.6138 22.3659,-3.5386 37.1553,-11.5648 9.6309,-5.2267 33.4479,-14.5021 57.7974,-22.5089 51.5345,-16.9459 72.2244,-25.8399 92.1429,-39.6095 16.9011,-11.6838 28.6382,-24.9529 36.8311,-41.6386 2.8643,-5.8336 5.7004,-10.6004 6.3023,-10.5928 0.6019,0.01 3.3077,3.2635 6.013,7.2353 4.0591,5.9596 5.8243,7.0254 10.1015,6.0994 16.5905,-3.592 45.3407,-7.3268 71.853,-9.334 31.7033,-2.4003 56.9145,-6.5828 60.3425,-10.0108 3.5768,-3.5768 0.5073,-3.8378 -10.7607,-0.9149 -6.062,1.5725 -27.4255,4.2358 -47.4744,5.9184 -38.3238,3.2164 -61.1325,6.1568 -70.127,9.0405 -6.034,1.9345 -8.9314,-0.3491 -14.5693,-11.4829 -3.8262,-7.556 -4.3816,-29.7935 -1.0495,-42.0216 6.6631,-24.4521 27.2182,-71.20119 44.4155,-101.01529 23.055,-39.96928 31.4032,-57.80229 43.7095,-93.36917 l 9.6359,-27.84914 0.01,-28.28427 c 0.01,-26.82677 -0.2786,-28.87159 -5.5874,-39.68184 -3.0785,-6.26866 -9.6697,-15.15147 -14.6472,-19.73958 -7.4885,-6.90232 -9.0503,-9.59299 -9.0503,-15.5905 0,-6.87692 0.2848,-7.18158 5.5558,-5.94348 12.0232,2.8241 30.7774,13.7811 43.4262,25.37143 17.1639,15.72755 28.8972,31.73333 54.1279,73.83769 11.2963,18.85082 26.3109,42.04612 33.3659,51.54513 19.9676,26.88473 20.4354,34.68389 5.0234,83.74434 -9.3643,29.80931 -11.0731,39.39594 -7.0219,39.39594 1.8745,0 2.9034,-2.13253 2.9034,-6.0179 0,-3.30984 4.0911,-18.78453 9.0914,-34.3882 5.0002,-15.60366 9.0914,-30.29461 9.0914,-32.64655 0,-4.10683 0.6203,-4.22106 15.6573,-2.88282 23.0356,2.05009 40.8005,6.16895 60.1964,13.95682 9.4868,3.80916 16.9224,5.90288 16.5236,4.6527 -1.11,-3.47911 -30.9284,-14.73558 -47.9306,-18.09383 -8.3338,-1.64607 -21.1679,-3.59215 -28.5203,-4.32463 l -13.3681,-1.33178 -1.1445,-11.08976 c -0.6296,-6.09936 -2.9928,-14.2222 -5.2517,-18.05075 -2.2589,-3.82854 -3.6605,-6.96099 -3.1146,-6.96099 0.5458,0 7.1064,3.06358 14.579,6.80796 20.4528,10.24845 65.0749,26.91019 135.6605,50.65517 34.9168,11.74598 63.8878,21.75907 64.38,22.2513 0.4923,0.49223 -3.4454,8.44098 -8.7504,17.66389 -62.9694,109.47461 -164.5043,204.61201 -273.6679,256.42481 -11.6673,5.5377 -22.8117,10.9412 -24.7654,12.0079 -9.5533,5.2161 -69.3592,26.9252 -80.2905,29.145 -1.6667,0.3384 -8.4853,2.1409 -15.1523,4.0054 -14.2772,3.9928 -24.5371,6.4145 -38.3858,9.0602 -5.5558,1.0614 -12.3743,2.4322 -15.1523,3.0461 -16.3019,3.603 -42.846,6.5626 -73.7411,8.222 -12.2228,0.6565 -27.4067,1.4824 -33.7418,1.8354 -6.3352,0.353 -11.79,0.4046 -12.1218,0.1146 l 0,0 z"
         style="opacity:1;fill:#5c5f89;fill-opacity:1;stroke:#000000;stroke-width:4.04061031;stroke-miterlimit:4;stroke-dasharray:none;stroke-opacity:1" />
      <path
         transform="translate(0,-297.63785)"
         inkscape:connector-curvature="0"
         id="path8594"
         d="m 2018.5238,1187.0281 c -5.273,-14.6633 -4.7322,-94.8225 1.2845,-190.39301 l 1.2705,-20.1823 9.3665,37.75621 c 5.1515,20.7659 10.0192,38.409 10.817,39.2068 3.9132,3.9132 3.4837,-2.8002 -1.2694,-19.8423 -2.8803,-10.327 -7.5774,-29.2315 -10.4382,-42.0099 -2.8607,-12.77843 -5.7135,-24.93834 -6.3395,-27.02204 -0.6998,-2.32936 -0.3304,-3.28932 0.959,-2.49244 4.2305,2.61462 4.5369,-3.00494 0.4473,-8.20409 -5.5465,-7.05121 -11.5644,-27.83376 -14.2334,-49.15455 -3.1768,-25.37663 -5.7535,-36.87289 -11.4251,-50.97531 -2.8014,-6.96536 -6.3993,-18.03284 -7.9954,-24.59436 -6.3409,-26.06648 -19.2359,-48.52803 -56.6121,-98.61202 -45.41,-60.84911 -51.9814,-78.81542 -55.2623,-151.08743 -1.0341,-22.77894 -2.4283,-47.56673 -3.0982,-55.08399 l -1.218,-13.66774 12.768,7.0182 c 19.7518,10.85697 35.0067,14.01435 59.9659,12.4115 23.4978,-1.50901 30.4919,-3.7692 41.4576,-13.39722 8.3177,-7.30305 25.3549,-38.70589 27.3534,-50.41783 l 1.2067,-7.07107 4.0059,8.08122 c 6.6964,13.50875 5.3161,28.01249 -5.6835,59.71989 -7.0014,20.1824 -9.5035,30.42167 -9.5035,38.89087 0,15.02655 2.903,14.92179 3.4614,-0.12491 0.2834,-7.63765 3.6217,-20.88251 9.7522,-38.6933 11.045,-32.08841 12.3829,-47.03276 5.4083,-60.41382 l -4.2937,-8.23749 10.5136,-3.04905 c 5.7824,-1.67698 14.1501,-3.62675 18.5948,-4.33284 l 8.0812,-1.28378 0.1421,10.02016 c 0.3027,21.34455 17.7592,44.06899 40.977,53.34279 9.2494,3.69449 15.2327,4.54145 31.6119,4.4748 17.7871,-0.0724 22.0912,-0.83578 35.9923,-6.38401 8.6842,-3.46599 20.2061,-9.13601 25.6043,-12.60002 20.3008,-13.02698 36.3271,-36.63228 36.3684,-53.5672 l 0.02,-8.09578 8.5863,0.68248 c 5.6212,0.44679 15.1837,-1.43928 27.6906,-5.46157 10.5073,-3.37922 19.3668,-5.88148 19.6877,-5.56057 1.2698,1.27026 17.3725,49.76605 21.8902,65.92716 2.6402,9.44493 6.3056,21.47233 8.1451,26.72757 3.0523,8.71941 3.0891,11.98785 0.4215,37.37565 -1.8818,17.90853 -2.296,30.62014 -1.1626,35.67804 1.3938,6.22024 0.2562,14.63907 -5.4601,40.4061 -19.8596,89.52145 -32.3659,123.87125 -56.8321,156.09539 -12.6294,16.6339 -25.1903,26.76581 -48.7239,39.30183 -15.5041,8.25872 -19.9147,11.9079 -14.3929,11.9079 3.3617,0 31.5704,-15.7109 42.9223,-23.90563 14.1181,-10.19163 30.1348,-30.57642 41.4863,-52.80077 12.7594,-24.98047 18.9354,-42.53837 28.4488,-80.8774 4.2737,-17.2231 8.2579,-33.133 8.8538,-35.35534 1.8366,-6.84954 -0.8577,34.32937 -4.9449,75.57838 -5.2363,52.84472 -5.0038,101.19832 0.4865,101.19832 1.0307,0 1.2259,-10.20299 0.4558,-23.82944 -0.7407,-13.1062 -0.6912,-29.95011 0.1099,-37.43092 l 1.4566,-13.60146 7.7465,11.98528 c 4.2605,6.59191 11.1701,15.77488 15.3546,20.40659 l 7.6082,8.42132 -2.6042,15.50908 c -5.3336,31.76402 -23.1378,74.75539 -51.6036,124.60557 -23.724,41.54609 -47.5456,99.232 -47.5456,115.1351 0,9.5083 -26.1119,28.2247 -57.7541,41.397 -33.7284,14.0407 -63.9969,29.7545 -73.9452,38.3885 -5.2089,4.5208 -12.9366,13.521 -17.1726,20.0004 -4.2359,6.4794 -10.609,14.2256 -14.1622,17.2136 -5.4585,4.5903 -49.9187,31.5152 -52.0398,31.5152 -0.3869,0 -1.766,-2.9547 -3.0646,-6.566 z m 83.5764,-96.1893 c 6.7432,-5.8307 11.3489,-19.6695 13.3321,-40.0589 2.3809,-24.4801 2.3534,-22.8508 0.3865,-22.8508 -0.905,0 -2.6876,9.9667 -3.9613,22.1483 -2.6769,25.6022 -7.1404,36.556 -16.4709,40.4208 -3.3705,1.3961 -8.4186,1.9635 -11.2181,1.2609 -2.7995,-0.7026 -5.09,-0.4177 -5.09,0.6331 0,5.0677 16.6648,3.9432 23.0217,-1.5534 z m 12.3724,-231.12714 c 22.8237,-8.00049 53.4334,-25.41711 47.9077,-27.25901 -1.2925,-0.43083 -6.5294,2.09217 -11.6376,5.60667 -39.2679,27.01708 -88.0947,31.7793 -120.8606,11.78788 -5.3902,-3.28873 -9.4086,-4.79503 -8.9297,-3.34732 1.3879,4.19573 17.7389,13.35092 29.8418,16.70891 16.2214,4.50065 45.4401,2.89601 63.6784,-3.49713 z m -10.1403,-29.14724 c 30.4347,-9.34343 58.5922,-38.26832 74.3599,-76.38667 2.7579,-6.667 9.7654,-25.75889 15.5724,-42.4264 5.807,-16.66752 13.5656,-36.88253 17.2414,-44.92224 3.808,-8.3288 5.851,-15.13206 4.7487,-15.81331 -2.7772,-1.71641 -13.7434,23.23695 -27.1353,61.7457 -24.6898,70.99619 -47.8041,101.4681 -85.981,113.3501 -36.5773,11.38412 -77.7108,-1.12583 -109.9967,-33.45334 -17.574,-17.59669 -27.1012,-33.17688 -32.1571,-52.58793 -3.2637,-12.52992 -4.3542,-14.63071 -6.4873,-12.49755 -0.7384,0.73842 0.1978,6.88298 2.0805,13.65457 17.982,64.67771 88.7337,107.4564 147.7545,89.33707 z m 81.0486,-52.57972 c 5.3253,-7.46278 18.4123,-24.05454 29.0821,-36.87056 27.5562,-33.09882 37.3522,-47.03487 47.6222,-67.74859 11.4556,-23.10502 15.7838,-42.91995 14.1773,-64.90517 -1.2246,-16.75938 -8.4576,-48.0732 -14.3412,-62.08734 -5.6117,-13.36654 -5.6065,-6.51852 0.01,11.14095 22.205,69.8365 13.1917,104.74913 -45.2078,175.10947 -31.8733,38.40172 -46.8867,58.92994 -43.0985,58.92994 1.1415,0 6.4324,-6.10591 11.7578,-13.5687 z m -98.0828,-74.53743 c 24.5576,-7.28076 35.8338,-16.37448 58.4855,-47.16581 l 14.9276,-20.29156 8.8495,0 c 13.3494,0 9.7566,-4.77212 -4.7783,-6.34672 -19.2883,-2.08954 -65.4463,-1.87675 -79.2636,0.36543 -7.014,1.13818 -19.3537,4.16563 -27.4215,6.72766 -11.0875,3.52092 -15.8661,4.17467 -19.5723,2.67767 -11.6636,-4.71117 -89.6672,1.97159 -89.7329,7.68764 -0.013,1.11117 4.6312,2.29099 10.32,2.62183 9.9267,0.57731 10.4912,0.92975 14.0183,8.75144 8.207,18.19974 34.9595,38.37683 59.708,45.03254 14.7955,3.97901 40.9332,3.95014 54.4597,-0.0602 l 0,9e-5 z M 1944.7559,601.5666 c 1.9819,-3.84612 9.9849,-13.58312 17.7844,-21.63777 7.7995,-8.05465 13.619,-15.20667 12.9323,-15.89339 -0.6867,-0.68671 -7.7389,5.44889 -15.6714,13.63467 -15.2022,15.68751 -24.1117,30.93325 -24.1446,41.31556 -0.033,10.35509 2.9254,9.95656 4.2532,-0.57299 0.6834,-5.41922 2.8642,-12.99995 4.8461,-16.84608 z m 247.2991,13.86609 c -2.4406,-4.80546 -10.4817,-14.6466 -17.8692,-21.86919 -13.935,-13.6239 -55.2656,-43.20885 -57.3924,-41.08211 -0.6668,0.6668 8.53,7.99141 20.4374,16.27691 26.3349,18.32466 43.1892,34.31886 51.5206,48.89158 7.2265,12.6401 9.9282,10.82687 3.3036,-2.21719 z m -127.422,-9.82514 c 6.1733,-2.16973 14.6431,-6.69246 18.8217,-10.05051 4.1786,-3.35805 10.5855,-6.67211 14.2376,-7.36457 10.275,-1.94825 13.8071,-4.46693 17.0082,-12.12825 4.477,-10.71486 -0.6301,-26.407 -12.4367,-38.21364 -4.9153,-4.91526 -10.3245,-8.93685 -12.0205,-8.93685 -4.9815,0 -3.4545,2.66825 4.7851,8.36121 14.2636,9.85512 21.1375,33.34324 12.3344,42.14642 -2.3128,2.31274 -6.7344,4.04061 -10.3399,4.04061 -4.1629,0 -8.7174,2.12312 -13.4292,6.26008 -11.9913,10.52858 -23.4184,14.35413 -45.9315,15.37691 -19.1408,0.86958 -20.7818,0.61701 -31.2115,-4.80374 -16.0395,-8.3364 -19.3237,-13.84361 -19.1714,-32.14864 0.1193,-14.34834 -1.3197,-18.64571 -3.9492,-11.79349 -2.1873,5.70024 -1.2979,23.02659 1.5295,29.79348 9.3271,22.32287 46.1042,31.29476 79.7734,19.46098 z"
         style="opacity:1;fill:#fff5e9;fill-opacity:1;stroke:#000000;stroke-width:4.04061031;stroke-miterlimit:4;stroke-dasharray:none;stroke-opacity:1" />
      <path
         transform="translate(0,-297.63785)"
         inkscape:connector-curvature="0"
         id="path8596"
         d="m 1861.8649,446.46248 c 5.7071,-14.78906 9.4166,-34.63425 8.8891,-47.55645 -1.6051,-39.32226 -0.6155,-87.76863 2.0077,-98.28677 7.3511,-29.47575 25.7123,-56.15534 46.1857,-67.10985 l 9.6184,-5.14636 19.1929,2.9246 c 25.5985,3.90068 81.5413,4.3912 101.0152,0.88573 27.7661,-4.99816 63.2141,-18.26012 77.4713,-28.98393 2.9269,-2.20152 5.8656,-2.36826 13.6467,-0.77433 7.0227,1.43859 14.4827,1.32027 25.5642,-0.40544 58.2738,-9.07493 62.3326,-8.4761 72.7001,10.72631 13.8049,25.56892 18.4161,46.23337 24.7922,111.10118 2.2928,23.32594 5.532,48.78179 7.1982,56.56854 1.6663,7.78676 3.5085,16.43058 4.0938,19.2085 1.011,4.79824 0.3285,5.22653 -13.6503,8.5665 -8.093,1.93365 -19.6356,5.92341 -25.6503,8.86611 -10.5304,5.15202 -11.0141,5.20893 -13.0496,1.535 -6.7207,-12.12995 -22.1978,-19.50299 -39.3255,-18.73394 -5.2481,0.23565 -13.1786,-0.83811 -17.6232,-2.3861 -4.7836,-1.66601 -16.3255,-2.82965 -28.2843,-2.85157 -21.1733,-0.0388 -40.7214,4.94151 -51.598,13.14571 l -4.7327,3.56988 6.6512,4.04479 c 6.2292,3.78819 6.3793,4.1311 2.366,5.40486 -2.3568,0.74804 -8.336,4.45213 -13.287,8.23135 -4.951,3.7792 -11.0695,7.31765 -13.5967,7.86319 -2.5271,0.54554 -16.6511,3.83549 -31.3867,7.31098 l -26.792,6.31907 -6.1085,-6.5392 -6.1085,-6.53921 4.1111,-3.83011 c 6.4498,-6.00891 4.9737,-9.01448 -7.4008,-15.06875 -22.615,-11.06446 -60.6178,-6.0096 -82.7854,11.01153 -11.8718,9.11562 -46.1903,22.28182 -44.1243,16.92818 z"
         style="opacity:1;fill:#fff5e9;fill-opacity:1;stroke:#000000;stroke-width:4.04061031;stroke-miterlimit:4;stroke-dasharray:none;stroke-opacity:1" />
      <path
         transform="translate(0,-297.63785)"
         inkscape:connector-curvature="0"
         id="path8598"
         d="m 2106.3526,511.9587 c -18.8351,-5.92611 -35.2488,-20.56281 -41.3521,-36.87527 -6.9041,-18.45302 -4.8865,-26.3907 10.1644,-39.98827 16.1145,-14.55853 20.2529,-15.41088 58.9845,-12.14873 44.6017,3.75656 66.3032,8.99452 80.6977,19.47749 1.8912,1.37733 4.0845,1.85838 4.8739,1.06901 4.0155,-4.01558 -12.7499,-24.76703 -27.5054,-34.04493 -8.6438,-5.43498 -8.8147,-5.7183 -3.4707,-5.75479 3.0914,-0.0211 8.9675,1.35999 13.0581,3.06912 28.9179,12.08267 30.708,49.21213 3.6759,76.24425 -12.0712,12.07112 -22.5452,18.21595 -43.8646,25.73412 -18.7879,6.62542 -40.4268,7.8855 -55.2617,3.218 z m 62.1244,-41.12825 c 13.6835,-6.15837 11.9193,-9.09098 -2.0203,-3.35844 -13.6692,5.62133 -37.5777,6.5576 -54.6131,2.13867 -13.1788,-3.41855 -13.9361,-0.49125 -0.9453,3.65433 14.1488,4.51514 45.039,3.20903 57.5787,-2.43456 z m 47.5236,-7.69859 c -1.6308,-1.63076 -28.2296,-5.19827 -29.4747,-3.95322 -2.0444,2.04446 1.0933,3.02378 14.9181,4.65607 13.8571,1.63609 16.7555,1.49614 14.5566,-0.70285 z m -115.0226,-8.95599 c 3.1358,-3.76487 3.8807,-3.83644 11.4355,-1.09883 11.462,4.15344 29.994,3.77415 47.0915,-0.96382 11.0424,-3.06 15.6786,-3.538 18.689,-1.92688 2.2019,1.17846 5.0167,1.51648 6.255,0.75116 2.9555,-1.82658 -3.832,-5.5244 -20.5177,-11.17801 -15.6423,-5.30008 -37.824,-5.89001 -48.6343,-1.29345 -7.7317,3.28754 -22.0764,14.93542 -22.0764,17.926 0,3.17419 4.288,1.94916 7.7574,-2.21617 z"
         style="opacity:1;fill:#fff5e9;fill-opacity:1;stroke:#000000;stroke-width:4.04061031;stroke-miterlimit:4;stroke-dasharray:none;stroke-opacity:1" />
      <path
         transform="translate(0,-297.63785)"
         inkscape:connector-curvature="0"
         id="path8600"
         d="m 1912.9002,524.70004 c -9.7103,-2.28852 -26.7526,-10.87957 -35.9553,-18.12502 -8.9068,-7.01246 -18.844,-24.59816 -17.0658,-30.20088 0.7323,-2.30734 0.3573,-4.02895 -0.8777,-4.02895 -2.3586,0 -2.7907,-6.51976 -0.8996,-13.57388 1.1397,-4.25158 11.4926,-9.42068 29.7348,-14.84645 4.9373,-1.46849 5.5519,-1.22568 4.4042,1.7401 -2.2749,5.87919 -3.6405,14.5584 -2.2905,14.5584 0.707,0 6.754,-3.73273 13.4376,-8.29496 37.5281,-25.6164 86.4669,-23.77968 98.1692,3.68439 10.5083,24.66191 -6.4859,60.61234 -32.2721,68.27001 -11.1382,3.30768 -43.8087,3.78121 -56.3848,0.81724 z m 5.059,-37.55937 c 0.8333,-0.4905 1.5152,-1.7 1.5152,-2.68778 0,-2.04792 -12.0913,1.57757 -15.1523,4.54332 -1.9336,1.8734 10.0783,0.23899 13.6371,-1.85554 z m 64.7592,-5.75566 c 13.6964,-4.84491 10.3364,-5.97579 -6.4268,-2.16307 -7.7981,1.77363 -21.9538,3.22478 -31.4571,3.22478 -11.5825,0 -17.2789,0.75895 -17.2789,2.3021 0,3.50667 43.1847,0.87327 55.1628,-3.36381 z m -24.6408,-12.23171 c 9.2545,-1.75554 21.6295,-2.89196 27.5001,-2.52538 12.5605,0.78432 13.3262,-1.24688 3.328,-8.82883 -10.2758,-7.79247 -25.2756,-10.76245 -39.4714,-7.8154 -12.4426,2.58307 -28.4359,11.69818 -31.9077,18.1853 -2.1514,4.01997 -1.7494,4.1762 10.7449,4.1762 7.1389,0 20.5517,-1.43635 29.8061,-3.19189 z"
         style="opacity:1;fill:#fff5e9;fill-opacity:1;stroke:#000000;stroke-width:4.04061031;stroke-miterlimit:4;stroke-dasharray:none;stroke-opacity:1" />
      <path
         transform="translate(0,-297.63785)"
         inkscape:connector-curvature="0"
         id="path8602"
         d="m 2319.8989,595.17974 c -2.5353,-2.53522 -2.9752,-24.81845 -0.6702,-33.94112 1.1443,-4.5287 2.3642,-5.07888 11.8021,-5.32271 26.1395,-0.67534 39.2823,-22.42422 36.0364,-59.63363 -1.2605,-14.45065 -8.9217,-52.40291 -12.2955,-60.91028 -1.234,-3.11171 -0.675,-3.44545 3.8635,-2.30636 7.6144,1.91108 6.5432,-0.81591 -1.6681,-4.24683 -14.2518,-5.95478 -21.2918,1.07733 -28.4957,28.46404 -2.9099,11.06221 -7.0291,23.11977 -9.1539,26.79458 -4.3204,7.47196 -4.5816,8.47081 -2.215,8.47081 2.8637,0 9.8787,-14.7182 12.518,-26.26396 4.0892,-17.88827 10.0664,-32.17685 14.4392,-34.51713 2.236,-1.19666 4.5602,-1.68098 5.1649,-1.07629 0.6047,0.6047 3.8108,11.81529 7.1247,24.91243 4.8701,19.24754 6.0786,28.46097 6.3037,48.05663 0.2556,22.26431 -0.1231,24.94467 -4.6393,32.82978 -5.7527,10.04426 -17.515,16.6677 -29.5996,16.6677 l -7.9877,0 0.7479,-14.80974 c 0.573,-11.34749 -0.1841,-17.1333 -3.2384,-24.74874 -7.9944,-19.93264 -15.0312,-49.44316 -13.625,-57.13906 3.8224,-20.9183 22.509,-36.58819 43.6745,-36.62364 12.4089,-0.0208 21.2676,4.47123 28.7572,14.58207 8.2105,11.08401 8.3248,66.21058 0.1955,94.30108 -6.7267,23.24382 -27.7739,57.48029 -40.4376,65.77786 -5.6729,3.71701 -13.2554,4.02873 -16.6016,0.68251 z"
         style="opacity:1;fill:#fff5e9;fill-opacity:1;stroke:#000000;stroke-width:4.04061031;stroke-miterlimit:4;stroke-dasharray:none;stroke-opacity:1" />
      <path
         transform="translate(0,-297.63785)"
         inkscape:connector-curvature="0"
         id="path8604"
         d="m 1867.2291,604.1701 c -8.7707,-17.45716 -12.2056,-36.61258 -14.4781,-80.73889 -1.1323,-21.98589 -2.5539,-41.56533 -3.1591,-43.50987 -2.1046,-6.76136 4.3917,-3.61658 6.9089,3.34453 1.3683,3.78403 4.6214,10.02407 7.2291,13.86675 3.3014,4.86485 5.3991,12.1322 6.9073,23.92959 2.3081,18.05466 5.0722,94.72464 3.415,94.72464 -0.5427,0 -3.6131,-5.22754 -6.8231,-11.61675 z"
         style="opacity:1;fill:#fff5e9;fill-opacity:1;stroke:#000000;stroke-width:4.04061031;stroke-miterlimit:4;stroke-dasharray:none;stroke-opacity:1" />
      <path
         transform="translate(0,-297.63785)"
         inkscape:connector-curvature="0"
         id="path8606"
         d="m 1855.3998,426.54082 c -10.7621,-47.68046 -9.4639,-92.0712 4.195,-143.44826 20.5856,-77.43105 65.1346,-138.18106 122.1862,-166.62127 15.0149,-7.48494 31.6808,-13.2676 44.0007,-15.26718 11.3325,-1.839303 52.2116,-1.838899 68.7948,6.8e-4 53.0783,5.88801 110.0851,26.22573 155,55.29776 15.03,9.72849 37.9921,32.65096 48.3359,48.25255 31.0527,46.83704 48.7173,117.82153 48.7928,196.07143 0.017,17.24906 0.3428,17.03524 -14.7866,9.6936 -11.929,-5.78864 -28.0746,-8.48123 -42.4408,-7.07783 l -9.3844,0.91676 -3.1158,-13.37342 c -4.4115,-18.9347 -6.9606,-36.65122 -9.5295,-66.23054 -5.1273,-59.03864 -10.4387,-84.19195 -23.2278,-110 -7.4402,-15.01409 -10.5898,-18.56867 -18.4848,-20.86124 -9.7439,-2.82947 -27.0592,-2.24652 -46.159,1.55403 -18.552,3.69154 -36.7126,4.36501 -44.6014,1.654 -5.0233,-1.72623 -5.6659,-1.58582 -11.6795,2.55164 -33.7411,23.21442 -85.663,34.40844 -141.2378,30.44988 -12.7576,-0.90872 -30.0969,-2.68456 -38.5318,-3.94631 l -15.3362,-2.2941 -10.3781,5.38779 c -12.2652,6.36751 -27.9867,21.4264 -35.1856,33.70258 -5.5524,9.4686 -11.848,27.10976 -15.1725,42.51602 -3.6021,16.69201 -4.4425,58.37218 -1.5875,78.73107 1.7186,12.25547 1.9866,18.98617 1.026,25.76894 -1.2484,8.81562 -6.8618,29.7857 -7.9731,29.7857 -0.2951,0 -1.8787,-5.94643 -3.5192,-13.21428 z"
         style="opacity:1;fill:#433729;fill-opacity:1;stroke:#000000;stroke-width:2.85714293;stroke-miterlimit:4;stroke-dasharray:none;stroke-opacity:1" />
      <path
         transform="translate(0,-297.63785)"
         inkscape:connector-curvature="0"
         id="path8608"
         d="m 2293.6786,439.0348 -5.1836,-14.98637 7.0023,-2.07946 c 9.5563,-2.8379 22.6743,-4.13798 26.6263,-2.63883 3.1282,1.18665 2.9997,1.42162 -3.1501,5.75638 -7.2428,5.10517 -16.0057,17.35074 -17.3973,24.31144 -0.5106,2.55357 -1.3301,4.63843 -1.8211,4.63303 -0.4911,-0.005 -3.2255,-6.75369 -6.0765,-14.99619 z"
         style="opacity:1;fill:#433729;fill-opacity:1;stroke:#000000;stroke-width:2.85714293;stroke-miterlimit:4;stroke-dasharray:none;stroke-opacity:1" />
      <path
         transform="translate(0,-297.63785)"
         inkscape:connector-curvature="0"
         id="path8610"
         d="m 2202.4336,430.84057 c -13.8035,-6.35469 -28.3229,-8.8157 -79.2857,-13.43882 -12.2902,-1.11491 -11.4502,-1.38248 24,-7.645 l 26.8571,-4.74448 8.8082,4.15713 c 11.0838,5.23111 33.2237,25.43673 27.1204,24.75104 -0.5892,-0.0662 -3.9642,-1.45214 -7.5,-3.07987 z"
         style="opacity:1;fill:#433729;fill-opacity:1;stroke:#000000;stroke-width:2.85714293;stroke-miterlimit:4;stroke-dasharray:none;stroke-opacity:1" />
      <path
         transform="translate(0,-297.63785)"
         inkscape:connector-curvature="0"
         id="path8612"
         d="m 2092.7908,413.87113 c -2.5536,-0.73732 -4.6429,-1.87726 -4.6429,-2.53321 0,-2.00521 16.526,-8.7443 26.7628,-10.91354 15.3049,-3.24319 45.1424,-1.98415 49.3744,2.08343 0.6254,0.60113 -5.8032,2.20201 -14.2858,3.5575 -8.4825,1.35549 -22.4899,4.02593 -31.1274,5.9343 -16.9815,3.7519 -19.0538,3.90059 -26.0811,1.87152 z"
         style="opacity:1;fill:#433729;fill-opacity:1;stroke:#000000;stroke-width:2.85714293;stroke-miterlimit:4;stroke-dasharray:none;stroke-opacity:1" />
      <path
         transform="translate(0,-297.63785)"
         inkscape:connector-curvature="0"
         id="path8614"
         d="m 1910.2908,431.84313 c 1.5714,-1.31892 6.6865,-4.24257 11.3667,-6.49701 20.3704,-9.81212 48.7707,-11.25965 64.6004,-3.2926 4.5134,2.27158 8.4321,4.89275 8.7082,5.82482 0.2762,0.93206 -1.1565,2.7814 -3.1836,4.10964 -3.4639,2.26959 -4.2147,2.26657 -12.4716,-0.0502 -13.2623,-3.72121 -23.2065,-3.49816 -64.7344,1.45196 -6.8241,0.81344 -7.0153,0.74441 -4.2857,-1.54661 z"
         style="opacity:1;fill:#433729;fill-opacity:1;stroke:#000000;stroke-width:2.85714293;stroke-miterlimit:4;stroke-dasharray:none;stroke-opacity:1" />
      <path
         transform="translate(0,-297.63785)"
         inkscape:connector-curvature="0"
         id="path8616"
         d="m 1894.1647,452.45467 c 1.2823,-4.32923 6.2479,-12.83208 7.7546,-13.27878 4.0364,-1.19665 21.3324,-4.34712 23.7227,-4.32108 0.9371,0.0102 -0.051,0.61239 -3.1877,1.94268 -8.9406,3.79182 -17.1818,8.44621 -24.0204,13.56603 -4.6775,3.50186 -4.6887,3.50735 -4.2692,2.09115 z"
         style="opacity:1;fill:#433729;fill-opacity:1;stroke:#000000;stroke-width:1.01015258;stroke-miterlimit:4;stroke-dasharray:none;stroke-opacity:1" />
      <path
         transform="translate(0,-297.63785)"
         inkscape:connector-curvature="0"
         id="path8618"
         d="m 1961.9334,463.75563 c -0.3155,-0.52164 -3.3661,-10.34491 -3.3661,-10.83906 0,-0.21938 0.9951,-0.39888 2.2114,-0.39888 l 2.2115,0 0.819,3.26052 c 1.0496,4.17843 1.0128,5.81079 -0.1626,7.21981 -1.0112,1.21211 -1.3483,1.36115 -1.7132,0.75761 z"
         style="opacity:1;fill:#161325;fill-opacity:1;stroke:#000000;stroke-width:1.01015258;stroke-miterlimit:4;stroke-dasharray:none;stroke-opacity:1" />
      <path
         transform="translate(0,-297.63785)"
         inkscape:connector-curvature="0"
         id="path8620"
         d="m 2140.3947,451.52588 c 0,-0.15614 -0.5113,-0.50824 -1.1364,-0.78246 -1.5148,-0.66459 -1.7762,-4.38392 -0.6119,-8.70607 l 0.8504,-3.15672 2.2009,0 c 1.6961,0 2.1376,0.16487 1.925,0.71888 -0.1577,0.41112 0.1711,0.95809 0.7683,1.27766 1.484,0.79423 2.5697,3.16214 2.5697,5.60442 0,1.67481 -0.3027,2.37809 -1.5086,3.50459 -1.3178,1.23096 -5.0574,2.36948 -5.0574,1.5397 z"
         style="opacity:1;fill:#161325;fill-opacity:1;stroke:#000000;stroke-width:1.01015258;stroke-miterlimit:4;stroke-dasharray:none;stroke-opacity:1" />
      <path
         transform="translate(0,-297.63785)"
         inkscape:connector-curvature="0"
         id="path8622"
         d="m 2151.3401,447.34066 c 0.1733,-1.72877 -0.01,-3.43584 -0.5192,-4.90478 -0.4317,-1.23921 -0.7288,-2.30932 -0.6601,-2.37802 0.166,-0.16595 5.8791,1.16756 6.1461,1.43456 0.1145,0.11452 0.4004,1.81779 0.6354,3.78506 l 0.4272,3.57685 -2.465,0.56899 c -3.8884,0.89755 -3.8645,0.91151 -3.5644,-2.08266 z"
         style="opacity:1;fill:#194634;fill-opacity:1;stroke:#000000;stroke-width:1.01015258;stroke-miterlimit:4;stroke-dasharray:none;stroke-opacity:1" />
      <path
         transform="translate(0,-297.63785)"
         inkscape:connector-curvature="0"
         id="path8624"
         d="m 2133.4221,447.21439 c 0.01,-0.83338 0.1235,-1.11316 0.2516,-0.62174 0.128,0.49143 0.1196,1.17328 -0.019,1.51523 -0.1384,0.34196 -0.2432,-0.0601 -0.2329,-0.89349 z"
         style="opacity:1;fill:#194634;fill-opacity:1;stroke:#000000;stroke-width:1.01015258;stroke-miterlimit:4;stroke-dasharray:none;stroke-opacity:1" />
      <path
         transform="translate(0,-297.63785)"
         inkscape:connector-curvature="0"
         id="path8626"
         d="m 2129.4852,450.74388 c -2.0318,-3.1009 0.8083,-11.40167 4.0288,-11.77498 1.1686,-0.13546 1.3702,-0.003 1.1495,0.75761 -1.7174,5.91729 -1.9316,7.76458 -1.1624,10.02226 l 0.7714,2.26384 -1.978,0 c -1.555,0 -2.1558,-0.2713 -2.8093,-1.26873 z"
         style="opacity:1;fill:#194634;fill-opacity:1;stroke:#000000;stroke-width:1.01015258;stroke-miterlimit:4;stroke-dasharray:none;stroke-opacity:1" />
      <path
         transform="translate(0,-297.63785)"
         inkscape:connector-curvature="0"
         id="path8628"
         d="m 1968.9247,461.5165 c 0.1772,-0.94462 -0.017,-3.1657 -0.4337,-4.97137 -0.4148,-1.79515 -0.712,-3.30601 -0.6605,-3.35747 0.051,-0.0515 1.1703,0.13608 2.4862,0.41675 2.9252,0.62387 3.908,1.87878 3.908,4.99004 0,2.94425 -0.7258,3.84703 -3.4416,4.2812 l -2.1788,0.34832 0.3204,-1.70747 z"
         style="opacity:1;fill:#194634;fill-opacity:1;stroke:#000000;stroke-width:1.01015258;stroke-miterlimit:4;stroke-dasharray:none;stroke-opacity:1" />
      <path
         transform="translate(0,-297.63785)"
         inkscape:connector-curvature="0"
         id="path8630"
         d="m 1949.7826,465.45152 c -0.7135,-0.5855 -1.6426,-1.90956 -2.0647,-2.94235 -0.7948,-1.94487 -1.0314,-6.78242 -0.3808,-7.78597 0.3935,-0.60701 6.0889,-1.95929 6.504,-1.54425 0.3869,0.38688 3.6692,11.67577 3.4566,11.88835 -0.1051,0.10513 -1.5471,0.4741 -3.2044,0.81995 -2.8209,0.58865 -3.0962,0.56082 -4.3107,-0.43573 z"
         style="opacity:1;fill:#194634;fill-opacity:1;stroke:#000000;stroke-width:1.01015258;stroke-miterlimit:4;stroke-dasharray:none;stroke-opacity:1" />
      <path
         transform="translate(0,-297.63785)"
         inkscape:connector-curvature="0"
         id="path8632"
         d="m 1924.3047,468.23483 -1.6852,-0.31232 3.3352,-2.77792 c 5.0382,-4.19646 11.9489,-8.01105 17.7128,-9.77718 0.9413,-0.28841 1.0102,-0.076 1.0102,3.11533 0,2.72608 0.2751,3.9548 1.3485,6.02225 l 1.3486,2.59739 -1.3486,0.28189 c -5.7299,1.19773 -17.3856,1.65414 -21.7215,0.85056 z"
         style="opacity:1;fill:#ffffff;fill-opacity:1;stroke:#000000;stroke-width:1.01015258;stroke-miterlimit:4;stroke-dasharray:none;stroke-opacity:1" />
      <path
         transform="translate(0,-297.63785)"
         inkscape:connector-curvature="0"
         id="path8634"
         d="m 1976.4975,458.83279 c 0,-1.80509 0.1926,-3.28259 0.4279,-3.28332 0.7785,-0.002 8.1304,4.01145 9.6736,5.28141 l 1.5152,1.24693 -5.8083,0.0185 -5.8084,0.0185 0,-3.28199 z"
         style="opacity:1;fill:#ffffff;fill-opacity:1;stroke:#000000;stroke-width:1.01015258;stroke-miterlimit:4;stroke-dasharray:none;stroke-opacity:1" />
      <path
         transform="translate(0,-297.63785)"
         inkscape:connector-curvature="0"
         id="path8636"
         d="m 2120.6572,451.22884 c -3.8681,-0.70046 -11.257,-2.8822 -12.5099,-3.69385 -0.9498,-0.61521 4.3523,-3.77265 9.3874,-5.59038 3.832,-1.38336 10.5709,-2.89459 10.9989,-2.46655 0.1184,0.11842 -0.2782,1.21281 -0.8814,2.43199 -1.2715,2.56994 -1.7755,7.44636 -0.9323,9.02174 0.5283,0.98715 0.4565,1.07689 -0.8283,1.0355 -0.7737,-0.0249 -3.1292,-0.35723 -5.2344,-0.73845 z"
         style="opacity:1;fill:#ffffff;fill-opacity:1;stroke:#000000;stroke-width:1.01015258;stroke-miterlimit:4;stroke-dasharray:none;stroke-opacity:1" />
      <path
         transform="translate(0,-297.63785)"
         inkscape:connector-curvature="0"
         id="path8638"
         d="m 2159.5876,447.28488 c 0,-0.37792 -0.1437,-1.73559 -0.3193,-3.01706 l -0.3194,-2.32993 4.6125,1.54695 c 2.5369,0.85083 4.6125,1.7189 4.6125,1.92905 0,0.36464 -6.8919,2.55811 -8.0376,2.55811 -0.3018,0 -0.5487,-0.3092 -0.5487,-0.68712 z"
         style="opacity:1;fill:#ffffff;fill-opacity:1;stroke:#000000;stroke-width:1.01015258;stroke-miterlimit:4;stroke-dasharray:none;stroke-opacity:1" />
      <path
         transform="translate(0,-297.63785)"
         inkscape:connector-curvature="0"
         id="path8640"
         d="m 2041.3991,681.74792 c -14.5899,-1.03054 -27.706,-4.61299 -39.9003,-10.89815 -8.3624,-4.31007 -14.6896,-8.89429 -21.1807,-15.34571 l -5.3358,-5.30331 10.8591,-0.15471 c 18.917,-0.26951 37.1408,1.12229 50.7602,3.8767 3.8891,0.78653 7.1473,1.2354 7.2404,0.99747 0.093,-0.23793 0.371,-0.30803 0.6174,-0.15578 0.2463,0.15226 6.5427,-1.31893 13.9919,-3.26929 33.0574,-8.65511 52.8852,-12.762 72.0945,-14.93276 8.7449,-0.98823 19.9961,-1.6444 19.8251,-1.15621 -0.4745,1.35552 -9.627,10.93357 -14.2443,14.90664 -25.3537,21.81642 -61.427,33.78724 -94.7275,31.43511 z"
         style="opacity:1;fill:#ffffff;fill-opacity:1;stroke:#000000;stroke-width:1.01015258;stroke-miterlimit:4;stroke-dasharray:none;stroke-opacity:1" />
      <path
         transform="translate(0,-297.63785)"
         inkscape:connector-curvature="0"
         id="path8642"
         d="m 1851.4757,473.15792 c -3.4779,-1.0721 -6.2371,-3.75256 -8.4305,-8.18968 -1.8746,-3.79232 -1.9081,-3.96263 -1.9081,-9.69544 0,-5.37272 0.1087,-6.04147 1.3715,-8.43586 2.2807,-4.32425 6.7969,-7.12545 10.7357,-6.65887 1.2694,0.15038 1.5401,0.53977 2.5746,3.70358 1.0722,3.27943 1.105,3.71847 0.4528,6.06091 -0.3867,1.38896 -0.6594,2.86631 -0.606,3.283 0.053,0.41669 -0.1975,2.68953 -0.5575,5.05076 -0.3601,2.36123 -0.5825,6.85056 -0.4944,9.97629 0.1008,3.57495 -0.027,5.6697 -0.3448,5.64693 -0.2778,-0.0199 -1.5348,-0.35365 -2.7933,-0.74162 z"
         style="opacity:1;fill:#120f1b;fill-opacity:1;stroke:#000000;stroke-width:1.01015258;stroke-miterlimit:4;stroke-dasharray:none;stroke-opacity:1" />
      <path
         transform="translate(0,-297.63785)"
         inkscape:connector-curvature="0"
         id="path8644"
         d="m 2005.6775,457.83509 c -0.158,-0.4518 -0.5787,-1.54986 -0.935,-2.44013 -0.5696,-1.42355 -0.5454,-1.64904 0.2008,-1.87061 0.4668,-0.13856 10.6218,-2.63835 22.5669,-5.55508 22.5685,-5.51075 37.4249,-8.75242 37.9062,-8.27115 0.1539,0.1539 -0.6331,1.69221 -1.7488,3.41848 -1.1158,1.72627 -2.1695,3.58253 -2.3417,4.12503 -0.2103,0.66239 -0.5065,0.83452 -0.902,0.52407 -0.904,-0.70971 -12.0309,0.19048 -17.7614,1.43694 -2.7779,0.60423 -9.2098,2.32479 -14.2931,3.82345 -5.0833,1.49867 -9.4309,2.72485 -9.6614,2.72485 -0.2306,0 -0.7016,-0.68185 -1.0468,-1.51523 -0.7844,-1.89367 -1.5128,-1.95406 -1.523,-0.12627 0,0.76393 -0.1777,1.65625 -0.3855,1.98293 -0.4972,0.78183 -4.8798,1.87064 -6.1707,1.53307 -0.5567,-0.14559 -1.0122,-0.0852 -1.0122,0.13421 0,0.2194 -0.5861,0.51096 -1.3025,0.6479 -0.9059,0.17317 -1.3899,-0.001 -1.5898,-0.57246 z"
         style="opacity:1;fill:#120f1b;fill-opacity:1;stroke:#000000;stroke-width:1.01015258;stroke-miterlimit:4;stroke-dasharray:none;stroke-opacity:1" />
      <path
         transform="translate(0,-297.63785)"
         inkscape:connector-curvature="0"
         id="path8646"
         d="m 2007.8148,476.08026 c 0.2997,-4.39158 -0.2903,-12.45612 -1.0576,-14.45567 -0.3904,-1.01756 3.202,-1.37555 4.9544,-0.49371 2.8549,1.43666 3.0433,3.45211 0.9162,9.80097 -1.3547,4.04374 -4.2902,10.07291 -4.9043,10.07291 -0.1346,0 -0.093,-2.21603 0.091,-4.9245 z"
         style="opacity:1;fill:#120f1b;fill-opacity:1;stroke:#000000;stroke-width:1.01015258;stroke-miterlimit:4;stroke-dasharray:none;stroke-opacity:1" />
      <path
         transform="translate(0,-297.63785)"
         inkscape:connector-curvature="0"
         id="path8648"
         d="m 2232.1572,434.12271 c -1.1111,-0.53182 -2.5208,-1.51142 -3.1326,-2.17689 -1.177,-1.28036 -2.6757,-4.46006 -2.6757,-5.67698 0,-1.05976 7.5171,-5.72101 13.637,-8.45608 13.8124,-6.17294 30.7885,-10.2455 48.2348,-11.57153 18.6694,-1.41898 36.8077,1.95276 46.5452,8.65233 l 2.3248,1.5995 -3.9163,1.23474 -3.9163,1.23475 -2.5169,-1.04598 c -7.4713,-3.10492 -18.8355,-2.51097 -33.5168,1.75175 -2.4743,0.7184 -5.2842,1.40783 -6.2444,1.53207 -0.9602,0.12424 -2.2103,0.52699 -2.778,0.895 -1.4594,0.94619 -24.0321,8.63662 -31.5892,10.76236 -5.1398,1.44577 -7.4401,1.81829 -12.3743,2.00391 -5.2337,0.19688 -6.3367,0.096 -8.0813,-0.73895 z"
         style="opacity:1;fill:#120f1b;fill-opacity:1;stroke:#000000;stroke-width:1.01015258;stroke-miterlimit:4;stroke-dasharray:none;stroke-opacity:1" />
      <path
         transform="translate(0,-297.63785)"
         inkscape:connector-curvature="0"
         id="path8650"
         d="m 2051.3164,702.74127 c -28.2912,-2.79206 -53.3494,-16.27044 -68.9878,-37.10737 -2.521,-3.3591 -4.5837,-6.36876 -4.5837,-6.68813 0,-0.31938 2.1697,1.26314 4.8215,3.5167 14.6513,12.45117 33.2741,20.0847 54.6147,22.38673 28.0058,3.02101 60.0599,-4.54821 85.1438,-20.10574 10.9585,-6.79663 24.7036,-18.98712 31.2523,-27.71749 1.0314,-1.375 2.0445,-2.33764 2.2513,-2.13921 0.4012,0.38483 -0.8989,2.20951 -17.8095,24.99636 -14.7896,19.9288 -22.3421,27.06351 -35.8373,33.85446 -14.4682,7.28061 -33.7468,10.69312 -50.8653,9.00369 z"
         style="opacity:1;fill:#d39698;fill-opacity:1;stroke:#000000;stroke-width:1.42857146;stroke-miterlimit:4;stroke-dasharray:none;stroke-opacity:1" />
      <path
         transform="translate(0,-297.63785)"
         inkscape:connector-curvature="0"
         id="path8652"
         d="m 2037.3878,650.54694 c -10.1259,-2.28548 -25.2192,-3.59636 -46.7857,-4.06345 -12.3041,-0.26648 -19.7341,-0.66342 -17.8572,-0.95401 34.9114,-5.40508 49.439,-5.79422 65.3264,-1.74984 l 7.1122,1.81048 7.2875,-2.84929 c 19.0228,-7.43753 44.2642,-11.43614 72.0596,-11.4153 12.1035,0.009 15.799,0.93422 6.7471,1.68911 -14.5814,1.21604 -44.1675,7.26424 -73.5555,15.03675 -6.8625,1.81497 -12.9594,3.40916 -13.5487,3.54263 -0.5893,0.13346 -3.6429,-0.33772 -6.7857,-1.04708 z"
         style="opacity:1;fill:#d39698;fill-opacity:1;stroke:#000000;stroke-width:1.42857146;stroke-miterlimit:4;stroke-dasharray:none;stroke-opacity:1" />
    </g>
  </g>
</svg>
